%TF.GenerationSoftware,KiCad,Pcbnew,10.0.1-10.0.1~ubuntu24.04.1*%
%TF.CreationDate,2026-04-22T13:49:08+10:00*%
%TF.ProjectId,Smart USB Drive - Course,536d6172-7420-4555-9342-204472697665,rev?*%
%TF.SameCoordinates,Original*%
%TF.FileFunction,Soldermask,Top*%
%TF.FilePolarity,Negative*%
%FSLAX46Y46*%
G04 Gerber Fmt 4.6, Leading zero omitted, Abs format (unit mm)*
G04 Created by KiCad (PCBNEW 10.0.1-10.0.1~ubuntu24.04.1) date 2026-04-22 13:49:08*
%MOMM*%
%LPD*%
G01*
G04 APERTURE LIST*
G04 Aperture macros list*
%AMRoundRect*
0 Rectangle with rounded corners*
0 $1 Rounding radius*
0 $2 $3 $4 $5 $6 $7 $8 $9 X,Y pos of 4 corners*
0 Add a 4 corners polygon primitive as box body*
4,1,4,$2,$3,$4,$5,$6,$7,$8,$9,$2,$3,0*
0 Add four circle primitives for the rounded corners*
1,1,$1+$1,$2,$3*
1,1,$1+$1,$4,$5*
1,1,$1+$1,$6,$7*
1,1,$1+$1,$8,$9*
0 Add four rect primitives between the rounded corners*
20,1,$1+$1,$2,$3,$4,$5,0*
20,1,$1+$1,$4,$5,$6,$7,0*
20,1,$1+$1,$6,$7,$8,$9,0*
20,1,$1+$1,$8,$9,$2,$3,0*%
G04 Aperture macros list end*
%ADD10C,1.000000*%
%ADD11RoundRect,0.250000X-0.250000X-0.475000X0.250000X-0.475000X0.250000X0.475000X-0.250000X0.475000X0*%
%ADD12RoundRect,0.050000X0.050000X-0.387500X0.050000X0.387500X-0.050000X0.387500X-0.050000X-0.387500X0*%
%ADD13RoundRect,0.050000X0.387500X-0.050000X0.387500X0.050000X-0.387500X0.050000X-0.387500X-0.050000X0*%
%ADD14RoundRect,0.144000X1.456000X-1.456000X1.456000X1.456000X-1.456000X1.456000X-1.456000X-1.456000X0*%
%ADD15RoundRect,0.250000X0.350000X-0.450000X0.350000X0.450000X-0.350000X0.450000X-0.350000X-0.450000X0*%
%ADD16RoundRect,0.140000X0.170000X-0.140000X0.170000X0.140000X-0.170000X0.140000X-0.170000X-0.140000X0*%
%ADD17RoundRect,0.250000X-1.600000X0.300000X-1.600000X-0.300000X1.600000X-0.300000X1.600000X0.300000X0*%
%ADD18RoundRect,0.075000X-0.075000X0.125000X-0.075000X-0.125000X0.075000X-0.125000X0.075000X0.125000X0*%
%ADD19RoundRect,0.140000X-0.170000X0.140000X-0.170000X-0.140000X0.170000X-0.140000X0.170000X0.140000X0*%
%ADD20RoundRect,0.087500X-0.425000X-0.087500X0.425000X-0.087500X0.425000X0.087500X-0.425000X0.087500X0*%
%ADD21RoundRect,0.140000X0.140000X0.170000X-0.140000X0.170000X-0.140000X-0.170000X0.140000X-0.170000X0*%
%ADD22RoundRect,0.075000X0.075000X-0.125000X0.075000X0.125000X-0.075000X0.125000X-0.075000X-0.125000X0*%
%ADD23RoundRect,0.075000X0.650000X0.075000X-0.650000X0.075000X-0.650000X-0.075000X0.650000X-0.075000X0*%
%ADD24C,0.650000*%
%ADD25RoundRect,0.150000X-0.425000X0.150000X-0.425000X-0.150000X0.425000X-0.150000X0.425000X0.150000X0*%
%ADD26RoundRect,0.075000X-0.500000X0.075000X-0.500000X-0.075000X0.500000X-0.075000X0.500000X0.075000X0*%
%ADD27O,2.100000X1.000000*%
%ADD28O,1.600000X1.000000*%
%ADD29RoundRect,0.225000X-0.225000X-0.250000X0.225000X-0.250000X0.225000X0.250000X-0.225000X0.250000X0*%
%ADD30RoundRect,0.075000X0.125000X0.075000X-0.125000X0.075000X-0.125000X-0.075000X0.125000X-0.075000X0*%
%ADD31RoundRect,0.075000X-0.125000X-0.075000X0.125000X-0.075000X0.125000X0.075000X-0.125000X0.075000X0*%
%ADD32RoundRect,0.140000X-0.140000X-0.170000X0.140000X-0.170000X0.140000X0.170000X-0.140000X0.170000X0*%
%ADD33RoundRect,0.135000X0.135000X0.185000X-0.135000X0.185000X-0.135000X-0.185000X0.135000X-0.185000X0*%
%ADD34RoundRect,0.250000X0.475000X-0.250000X0.475000X0.250000X-0.475000X0.250000X-0.475000X-0.250000X0*%
%ADD35R,1.100000X1.750000*%
%ADD36C,0.350000*%
%ADD37C,1.500000*%
%ADD38RoundRect,0.162500X0.162500X-0.650000X0.162500X0.650000X-0.162500X0.650000X-0.162500X-0.650000X0*%
%ADD39RoundRect,0.150000X0.512500X0.150000X-0.512500X0.150000X-0.512500X-0.150000X0.512500X-0.150000X0*%
%ADD40RoundRect,0.218750X-0.218750X-0.256250X0.218750X-0.256250X0.218750X0.256250X-0.218750X0.256250X0*%
%ADD41RoundRect,0.135000X-0.135000X-0.185000X0.135000X-0.185000X0.135000X0.185000X-0.135000X0.185000X0*%
%ADD42RoundRect,0.062500X-0.250000X-0.062500X0.250000X-0.062500X0.250000X0.062500X-0.250000X0.062500X0*%
%ADD43RoundRect,0.112500X-0.237500X-0.112500X0.237500X-0.112500X0.237500X0.112500X-0.237500X0.112500X0*%
%ADD44RoundRect,0.112500X-0.175000X-0.112500X0.175000X-0.112500X0.175000X0.112500X-0.175000X0.112500X0*%
%ADD45RoundRect,0.250000X0.450000X-0.400000X0.450000X0.400000X-0.450000X0.400000X-0.450000X-0.400000X0*%
%ADD46RoundRect,0.218750X0.218750X0.256250X-0.218750X0.256250X-0.218750X-0.256250X0.218750X-0.256250X0*%
%ADD47RoundRect,0.225000X0.325000X0.225000X-0.325000X0.225000X-0.325000X-0.225000X0.325000X-0.225000X0*%
%ADD48RoundRect,0.150000X0.475000X-0.150000X0.475000X0.150000X-0.475000X0.150000X-0.475000X-0.150000X0*%
%ADD49RoundRect,0.225000X0.625000X-0.225000X0.625000X0.225000X-0.625000X0.225000X-0.625000X-0.225000X0*%
%ADD50RoundRect,0.150000X0.700000X-0.150000X0.700000X0.150000X-0.700000X0.150000X-0.700000X-0.150000X0*%
%ADD51RoundRect,0.250000X1.100000X-0.250000X1.100000X0.250000X-1.100000X0.250000X-1.100000X-0.250000X0*%
%ADD52R,1.700000X1.700000*%
%ADD53O,1.700000X1.700000*%
%ADD54R,1.750000X1.100000*%
%ADD55C,1.700000*%
%ADD56RoundRect,0.250000X0.250000X0.475000X-0.250000X0.475000X-0.250000X-0.475000X0.250000X-0.475000X0*%
%ADD57RoundRect,0.150000X-0.512500X-0.150000X0.512500X-0.150000X0.512500X0.150000X-0.512500X0.150000X0*%
%ADD58R,1.066800X0.254000*%
%ADD59R,0.254000X1.066800*%
%ADD60R,3.860800X3.860800*%
G04 APERTURE END LIST*
D10*
%TO.C,REF\u002A\u002A*%
X161600000Y-113600000D03*
%TD*%
%TO.C,REF\u002A\u002A*%
X160900000Y-80700000D03*
%TD*%
D11*
%TO.C,C304*%
X125050000Y-101000000D03*
X126950000Y-101000000D03*
%TD*%
D12*
%TO.C,U501*%
X117900000Y-114937500D03*
X118300000Y-114937500D03*
X118700000Y-114937500D03*
X119100000Y-114937500D03*
X119500000Y-114937500D03*
X119900000Y-114937500D03*
X120300000Y-114937500D03*
X120700000Y-114937500D03*
X121100000Y-114937500D03*
X121500000Y-114937500D03*
X121900000Y-114937500D03*
X122300000Y-114937500D03*
X122700000Y-114937500D03*
X123100000Y-114937500D03*
D13*
X123937500Y-114100000D03*
X123937500Y-113700000D03*
X123937500Y-113300000D03*
X123937500Y-112900000D03*
X123937500Y-112500000D03*
X123937500Y-112100000D03*
X123937500Y-111700000D03*
X123937500Y-111300000D03*
X123937500Y-110900000D03*
X123937500Y-110500000D03*
X123937500Y-110100000D03*
X123937500Y-109700000D03*
X123937500Y-109300000D03*
X123937500Y-108900000D03*
D12*
X123100000Y-108062500D03*
X122700000Y-108062500D03*
X122300000Y-108062500D03*
X121900000Y-108062500D03*
X121500000Y-108062500D03*
X121100000Y-108062500D03*
X120700000Y-108062500D03*
X120300000Y-108062500D03*
X119900000Y-108062500D03*
X119500000Y-108062500D03*
X119100000Y-108062500D03*
X118700000Y-108062500D03*
X118300000Y-108062500D03*
X117900000Y-108062500D03*
D13*
X117062500Y-108900000D03*
X117062500Y-109300000D03*
X117062500Y-109700000D03*
X117062500Y-110100000D03*
X117062500Y-110500000D03*
X117062500Y-110900000D03*
X117062500Y-111300000D03*
X117062500Y-111700000D03*
X117062500Y-112100000D03*
X117062500Y-112500000D03*
X117062500Y-112900000D03*
X117062500Y-113300000D03*
X117062500Y-113700000D03*
X117062500Y-114100000D03*
D14*
X120500000Y-111500000D03*
%TD*%
D15*
%TO.C,Y501*%
X133525000Y-106025000D03*
X133525000Y-103825000D03*
X131825000Y-103825000D03*
X131825000Y-106025000D03*
%TD*%
D16*
%TO.C,C601*%
X144800000Y-98555000D03*
X144800000Y-97595000D03*
%TD*%
D17*
%TO.C,L301*%
X119000000Y-101000000D03*
X119000000Y-104000000D03*
%TD*%
D18*
%TO.C,R602*%
X135200000Y-85900000D03*
X135200000Y-86400000D03*
%TD*%
D19*
%TO.C,C612*%
X144150000Y-81950000D03*
X144150000Y-82910000D03*
%TD*%
D20*
%TO.C,U202*%
X110662500Y-98350000D03*
X110662500Y-99000000D03*
X110662500Y-99650000D03*
X112337500Y-99650000D03*
X112337500Y-99000000D03*
X112337500Y-98350000D03*
%TD*%
D21*
%TO.C,C507*%
X114230000Y-112500000D03*
X113270000Y-112500000D03*
%TD*%
D22*
%TO.C,R403*%
X122225000Y-84000000D03*
X122225000Y-83500000D03*
%TD*%
D18*
%TO.C,R603*%
X129350000Y-86775000D03*
X129350000Y-87275000D03*
%TD*%
D23*
%TO.C,U702*%
X117150000Y-86800000D03*
X117150000Y-86300000D03*
X117150000Y-85800000D03*
X117150000Y-85300000D03*
X117150000Y-84800000D03*
X112850000Y-84800000D03*
X112850000Y-85300000D03*
X112850000Y-85800000D03*
X112850000Y-86300000D03*
X112850000Y-86800000D03*
%TD*%
D24*
%TO.C,J102*%
X106855000Y-87610000D03*
X106855000Y-93390000D03*
D25*
X107920000Y-87300000D03*
X107920000Y-88100000D03*
D26*
X107920000Y-89250000D03*
X107920000Y-90250000D03*
X107920000Y-90750000D03*
X107920000Y-91750000D03*
D25*
X107920000Y-92900000D03*
X107920000Y-93700000D03*
X107920000Y-93700000D03*
X107920000Y-92900000D03*
D26*
X107920000Y-92250000D03*
X107920000Y-91250000D03*
X107920000Y-89750000D03*
X107920000Y-88750000D03*
D25*
X107920000Y-88100000D03*
X107920000Y-87300000D03*
D27*
X107355000Y-86180000D03*
D28*
X103175000Y-86180000D03*
D27*
X107355000Y-94820000D03*
D28*
X103175000Y-94820000D03*
%TD*%
D21*
%TO.C,C504*%
X115380000Y-108950000D03*
X114420000Y-108950000D03*
%TD*%
D16*
%TO.C,C602*%
X143775000Y-98555000D03*
X143775000Y-97595000D03*
%TD*%
D29*
%TO.C,C409*%
X119350000Y-84550000D03*
X120900000Y-84550000D03*
%TD*%
D30*
%TO.C,R605*%
X129725000Y-92575000D03*
X129225000Y-92575000D03*
%TD*%
D18*
%TO.C,R405*%
X104750000Y-83000000D03*
X104750000Y-83500000D03*
%TD*%
D31*
%TO.C,R608*%
X119050000Y-90700000D03*
X119550000Y-90700000D03*
%TD*%
D21*
%TO.C,C406*%
X130055000Y-89575000D03*
X129095000Y-89575000D03*
%TD*%
D32*
%TO.C,C503*%
X125820000Y-110225000D03*
X126780000Y-110225000D03*
%TD*%
D18*
%TO.C,R506*%
X112975000Y-105350000D03*
X112975000Y-105850000D03*
%TD*%
D31*
%TO.C,R302*%
X120925000Y-96050000D03*
X121425000Y-96050000D03*
%TD*%
D21*
%TO.C,C511*%
X115305000Y-111500000D03*
X114345000Y-111500000D03*
%TD*%
D22*
%TO.C,R202*%
X113475000Y-99800000D03*
X113475000Y-99300000D03*
%TD*%
D33*
%TO.C,R803*%
X145190000Y-113225000D03*
X144170000Y-113225000D03*
%TD*%
D16*
%TO.C,C407*%
X124550000Y-94655000D03*
X124550000Y-93695000D03*
%TD*%
D22*
%TO.C,R204*%
X108275000Y-100575000D03*
X108275000Y-100075000D03*
%TD*%
D34*
%TO.C,C302*%
X114136667Y-94145000D03*
X114136667Y-92245000D03*
%TD*%
D31*
%TO.C,R607*%
X119050000Y-91450000D03*
X119550000Y-91450000D03*
%TD*%
%TO.C,R101*%
X108225000Y-116150000D03*
X108725000Y-116150000D03*
%TD*%
D35*
%TO.C,R107*%
X106275000Y-100625000D03*
X104875000Y-100625000D03*
X104875000Y-97875000D03*
X106275000Y-97875000D03*
%TD*%
D21*
%TO.C,C702*%
X102480000Y-102250000D03*
X101520000Y-102250000D03*
%TD*%
D36*
%TO.C,U701*%
X136900000Y-100300000D03*
X136900000Y-100700000D03*
X136500000Y-100300000D03*
X136500000Y-100700000D03*
X136100000Y-100300000D03*
X136100000Y-100700000D03*
%TD*%
D16*
%TO.C,C611*%
X145825000Y-98555000D03*
X145825000Y-97595000D03*
%TD*%
D19*
%TO.C,C613*%
X147275000Y-81945000D03*
X147275000Y-82905000D03*
%TD*%
D31*
%TO.C,R102*%
X101000000Y-98000000D03*
X101500000Y-98000000D03*
%TD*%
D22*
%TO.C,R106*%
X102625000Y-83500000D03*
X102625000Y-83000000D03*
%TD*%
D29*
%TO.C,C102*%
X101225000Y-96750000D03*
X102775000Y-96750000D03*
%TD*%
D32*
%TO.C,C512*%
X121695000Y-117000000D03*
X122655000Y-117000000D03*
%TD*%
D33*
%TO.C,R802*%
X145190000Y-114975000D03*
X144170000Y-114975000D03*
%TD*%
D37*
%TO.C,TP102*%
X110000000Y-81750000D03*
%TD*%
D18*
%TO.C,R404*%
X128000000Y-81550000D03*
X128000000Y-82050000D03*
%TD*%
D32*
%TO.C,C501*%
X135245000Y-106150000D03*
X136205000Y-106150000D03*
%TD*%
D19*
%TO.C,C404*%
X123125000Y-82970000D03*
X123125000Y-83930000D03*
%TD*%
D20*
%TO.C,U201*%
X110662500Y-95850000D03*
X110662500Y-96500000D03*
X110662500Y-97150000D03*
X112337500Y-97150000D03*
X112337500Y-96500000D03*
X112337500Y-95850000D03*
%TD*%
D38*
%TO.C,U503*%
X131270000Y-117062500D03*
X132540000Y-117062500D03*
X133810000Y-117062500D03*
X135080000Y-117062500D03*
X135080000Y-109887500D03*
X133810000Y-109887500D03*
X132540000Y-109887500D03*
X131270000Y-109887500D03*
%TD*%
D39*
%TO.C,U301*%
X119137500Y-98950000D03*
X119137500Y-98000000D03*
X119137500Y-97050000D03*
X116862500Y-97050000D03*
X116862500Y-98000000D03*
X116862500Y-98950000D03*
%TD*%
D16*
%TO.C,C604*%
X146850000Y-98555000D03*
X146850000Y-97595000D03*
%TD*%
D30*
%TO.C,R501*%
X115375000Y-110650000D03*
X114875000Y-110650000D03*
%TD*%
D40*
%TO.C,D401*%
X106212500Y-83250000D03*
X107787500Y-83250000D03*
%TD*%
D41*
%TO.C,R505*%
X128615000Y-117375000D03*
X129635000Y-117375000D03*
%TD*%
D18*
%TO.C,R507*%
X112275000Y-105350000D03*
X112275000Y-105850000D03*
%TD*%
D22*
%TO.C,R401*%
X127275000Y-98550000D03*
X127275000Y-98050000D03*
%TD*%
D37*
%TO.C,TP302*%
X152900000Y-111700000D03*
%TD*%
D18*
%TO.C,R105*%
X103625000Y-83000000D03*
X103625000Y-83500000D03*
%TD*%
D11*
%TO.C,C305*%
X125050000Y-103500000D03*
X126950000Y-103500000D03*
%TD*%
D19*
%TO.C,C303*%
X122025000Y-99770000D03*
X122025000Y-100730000D03*
%TD*%
D30*
%TO.C,R502*%
X115375000Y-109950000D03*
X114875000Y-109950000D03*
%TD*%
D16*
%TO.C,C403*%
X123525000Y-94655000D03*
X123525000Y-93695000D03*
%TD*%
D21*
%TO.C,C603*%
X156100000Y-91450000D03*
X155140000Y-91450000D03*
%TD*%
D32*
%TO.C,C408*%
X118770000Y-89500000D03*
X119730000Y-89500000D03*
%TD*%
D36*
%TO.C,U601*%
X143250000Y-93500000D03*
X143250000Y-93000000D03*
X143250000Y-92500000D03*
X143250000Y-92000000D03*
X143250000Y-91500000D03*
X143250000Y-91000000D03*
X143250000Y-90500000D03*
X143250000Y-90000000D03*
X143250000Y-89500000D03*
X143250000Y-89000000D03*
X143250000Y-88500000D03*
X143250000Y-88000000D03*
X143250000Y-87500000D03*
X143250000Y-87000000D03*
X143750000Y-93500000D03*
X143750000Y-93000000D03*
X143750000Y-92500000D03*
X143750000Y-92000000D03*
X143750000Y-91500000D03*
X143750000Y-91000000D03*
X143750000Y-90500000D03*
X143750000Y-90000000D03*
X143750000Y-89500000D03*
X143750000Y-89000000D03*
X143750000Y-88500000D03*
X143750000Y-88000000D03*
X143750000Y-87500000D03*
X143750000Y-87000000D03*
X144250000Y-93500000D03*
X144250000Y-93000000D03*
X144250000Y-92500000D03*
X144250000Y-92000000D03*
X144250000Y-91500000D03*
X144250000Y-91000000D03*
X144250000Y-90500000D03*
X144250000Y-90000000D03*
X144250000Y-89500000D03*
X144250000Y-89000000D03*
X144250000Y-88500000D03*
X144250000Y-88000000D03*
X144250000Y-87500000D03*
X144250000Y-87000000D03*
X144750000Y-93500000D03*
X144750000Y-93000000D03*
X144750000Y-92500000D03*
X144750000Y-92000000D03*
X144750000Y-88000000D03*
X144750000Y-87500000D03*
X144750000Y-87000000D03*
X145250000Y-93500000D03*
X145250000Y-93000000D03*
X145250000Y-92500000D03*
X145250000Y-91500000D03*
X145250000Y-91000000D03*
X145250000Y-90500000D03*
X145250000Y-90000000D03*
X145250000Y-89500000D03*
X145250000Y-89000000D03*
X145250000Y-88000000D03*
X145250000Y-87500000D03*
X145250000Y-87000000D03*
X145750000Y-93500000D03*
X145750000Y-93000000D03*
X145750000Y-92500000D03*
X145750000Y-91500000D03*
X145750000Y-89000000D03*
X145750000Y-88000000D03*
X145750000Y-87500000D03*
X145750000Y-87000000D03*
X146250000Y-93500000D03*
X146250000Y-93000000D03*
X146250000Y-92500000D03*
X146250000Y-91500000D03*
X146250000Y-89000000D03*
X146250000Y-88000000D03*
X146250000Y-87500000D03*
X146250000Y-87000000D03*
X146750000Y-93500000D03*
X146750000Y-93000000D03*
X146750000Y-92500000D03*
X146750000Y-91500000D03*
X146750000Y-89000000D03*
X146750000Y-88000000D03*
X146750000Y-87500000D03*
X146750000Y-87000000D03*
X147250000Y-93500000D03*
X147250000Y-93000000D03*
X147250000Y-92500000D03*
X147250000Y-91500000D03*
X147250000Y-89000000D03*
X147250000Y-88000000D03*
X147250000Y-87500000D03*
X147250000Y-87000000D03*
X147750000Y-93500000D03*
X147750000Y-93000000D03*
X147750000Y-92500000D03*
X147750000Y-91500000D03*
X147750000Y-91000000D03*
X147750000Y-90500000D03*
X147750000Y-90000000D03*
X147750000Y-89500000D03*
X147750000Y-89000000D03*
X147750000Y-88000000D03*
X147750000Y-87500000D03*
X147750000Y-87000000D03*
X148250000Y-93500000D03*
X148250000Y-93000000D03*
X148250000Y-92500000D03*
X148250000Y-88000000D03*
X148250000Y-87500000D03*
X148250000Y-87000000D03*
X148750000Y-93500000D03*
X148750000Y-93000000D03*
X148750000Y-92500000D03*
X148750000Y-92000000D03*
X148750000Y-91500000D03*
X148750000Y-91000000D03*
X148750000Y-90500000D03*
X148750000Y-90000000D03*
X148750000Y-89500000D03*
X148750000Y-89000000D03*
X148750000Y-88500000D03*
X148750000Y-88000000D03*
X148750000Y-87500000D03*
X148750000Y-87000000D03*
X149250000Y-93500000D03*
X149250000Y-93000000D03*
X149250000Y-92500000D03*
X149250000Y-92000000D03*
X149250000Y-91500000D03*
X149250000Y-91000000D03*
X149250000Y-90500000D03*
X149250000Y-90000000D03*
X149250000Y-89500000D03*
X149250000Y-89000000D03*
X149250000Y-88500000D03*
X149250000Y-88000000D03*
X149250000Y-87500000D03*
X149250000Y-87000000D03*
X149750000Y-93500000D03*
X149750000Y-93000000D03*
X149750000Y-92500000D03*
X149750000Y-92000000D03*
X149750000Y-91500000D03*
X149750000Y-91000000D03*
X149750000Y-90500000D03*
X149750000Y-90000000D03*
X149750000Y-89500000D03*
X149750000Y-89000000D03*
X149750000Y-88500000D03*
X149750000Y-88000000D03*
X149750000Y-87500000D03*
X149750000Y-87000000D03*
%TD*%
D32*
%TO.C,C508*%
X125270000Y-106000000D03*
X126230000Y-106000000D03*
%TD*%
D18*
%TO.C,R104*%
X105675000Y-114600000D03*
X105675000Y-115100000D03*
%TD*%
D32*
%TO.C,C513*%
X125820000Y-111300000D03*
X126780000Y-111300000D03*
%TD*%
D24*
%TO.C,J101*%
X106855000Y-105610000D03*
X106855000Y-111390000D03*
D25*
X107920000Y-105300000D03*
X107920000Y-106100000D03*
D26*
X107920000Y-107250000D03*
X107920000Y-108250000D03*
X107920000Y-108750000D03*
X107920000Y-109750000D03*
D25*
X107920000Y-110900000D03*
X107920000Y-111700000D03*
X107920000Y-111700000D03*
X107920000Y-110900000D03*
D26*
X107920000Y-110250000D03*
X107920000Y-109250000D03*
X107920000Y-107750000D03*
X107920000Y-106750000D03*
D25*
X107920000Y-106100000D03*
X107920000Y-105300000D03*
D27*
X107355000Y-104180000D03*
D28*
X103175000Y-104180000D03*
D27*
X107355000Y-112820000D03*
D28*
X103175000Y-112820000D03*
%TD*%
D42*
%TO.C,U403*%
X109937500Y-89517500D03*
X109937500Y-90017500D03*
D43*
X109975000Y-90517500D03*
D42*
X109937500Y-91017500D03*
X109937500Y-91517500D03*
X110712500Y-91517500D03*
X110712500Y-91017500D03*
D44*
X110737500Y-90517500D03*
D42*
X110712500Y-90017500D03*
X110712500Y-89517500D03*
%TD*%
D18*
%TO.C,R205*%
X108275000Y-96775000D03*
X108275000Y-97275000D03*
%TD*%
D21*
%TO.C,C605*%
X156105000Y-92575000D03*
X155145000Y-92575000D03*
%TD*%
D22*
%TO.C,R610*%
X121600000Y-94025000D03*
X121600000Y-93525000D03*
%TD*%
D31*
%TO.C,R303*%
X104250000Y-81250000D03*
X104750000Y-81250000D03*
%TD*%
D41*
%TO.C,R504*%
X139615000Y-117525000D03*
X140635000Y-117525000D03*
%TD*%
D19*
%TO.C,C609*%
X145175000Y-81950000D03*
X145175000Y-82910000D03*
%TD*%
D30*
%TO.C,R301*%
X121425000Y-96800000D03*
X120925000Y-96800000D03*
%TD*%
D45*
%TO.C,D301*%
X116693333Y-93950000D03*
X116693333Y-91050000D03*
%TD*%
D30*
%TO.C,R406*%
X129225000Y-85900000D03*
X128725000Y-85900000D03*
%TD*%
D19*
%TO.C,C610*%
X146250000Y-81950000D03*
X146250000Y-82910000D03*
%TD*%
D46*
%TO.C,D803*%
X148287500Y-113225000D03*
X146712500Y-113225000D03*
%TD*%
D22*
%TO.C,R103*%
X104850000Y-115125000D03*
X104850000Y-114625000D03*
%TD*%
D46*
%TO.C,D801*%
X148287500Y-116725000D03*
X146712500Y-116725000D03*
%TD*%
D37*
%TO.C,TP601*%
X155700000Y-82000000D03*
%TD*%
D47*
%TO.C,Y401*%
X126450000Y-80900000D03*
X124750000Y-80900000D03*
X124750000Y-82200000D03*
X126450000Y-82200000D03*
%TD*%
D18*
%TO.C,R201*%
X109075000Y-96775000D03*
X109075000Y-97275000D03*
%TD*%
D16*
%TO.C,C201*%
X118975000Y-95005000D03*
X118975000Y-94045000D03*
%TD*%
D32*
%TO.C,C401*%
X133945000Y-84025000D03*
X134905000Y-84025000D03*
%TD*%
%TO.C,C405*%
X119970000Y-83200000D03*
X120930000Y-83200000D03*
%TD*%
D22*
%TO.C,R612*%
X122650000Y-96675000D03*
X122650000Y-96175000D03*
%TD*%
D33*
%TO.C,R801*%
X145190000Y-116725000D03*
X144170000Y-116725000D03*
%TD*%
D42*
%TO.C,U502*%
X109987500Y-108000000D03*
X109987500Y-108500000D03*
D43*
X110025000Y-109000000D03*
D42*
X109987500Y-109500000D03*
X109987500Y-110000000D03*
X110762500Y-110000000D03*
X110762500Y-109500000D03*
D44*
X110787500Y-109000000D03*
D42*
X110762500Y-108500000D03*
X110762500Y-108000000D03*
%TD*%
D32*
%TO.C,C515*%
X131345000Y-108175000D03*
X132305000Y-108175000D03*
%TD*%
D23*
%TO.C,U703*%
X115250000Y-103725000D03*
X115250000Y-103225000D03*
X115250000Y-102725000D03*
X115250000Y-102225000D03*
X115250000Y-101725000D03*
X110950000Y-101725000D03*
X110950000Y-102225000D03*
X110950000Y-102725000D03*
X110950000Y-103225000D03*
X110950000Y-103725000D03*
%TD*%
D48*
%TO.C,J801*%
X157485000Y-109275000D03*
X157485000Y-108275000D03*
X157485000Y-107275000D03*
X157485000Y-106275000D03*
X157485000Y-105275000D03*
X157485000Y-104275000D03*
D49*
X160610000Y-110725000D03*
X160610000Y-102825000D03*
%TD*%
D31*
%TO.C,R609*%
X154750000Y-96075000D03*
X155250000Y-96075000D03*
%TD*%
D18*
%TO.C,R601*%
X134250000Y-85900000D03*
X134250000Y-86400000D03*
%TD*%
D32*
%TO.C,C402*%
X127295000Y-96975000D03*
X128255000Y-96975000D03*
%TD*%
D40*
%TO.C,D302*%
X106212500Y-81500000D03*
X107787500Y-81500000D03*
%TD*%
D46*
%TO.C,D802*%
X148287500Y-114995000D03*
X146712500Y-114995000D03*
%TD*%
D50*
%TO.C,J802*%
X140575000Y-107100000D03*
X140575000Y-105850000D03*
X140575000Y-104600000D03*
D51*
X143775000Y-108950000D03*
X143775000Y-102750000D03*
%TD*%
D18*
%TO.C,R503*%
X130150000Y-104150000D03*
X130150000Y-104650000D03*
%TD*%
D19*
%TO.C,C701*%
X110700000Y-85320000D03*
X110700000Y-86280000D03*
%TD*%
D37*
%TO.C,TP101*%
X101900000Y-100225000D03*
%TD*%
D32*
%TO.C,C502*%
X132220000Y-102175000D03*
X133180000Y-102175000D03*
%TD*%
D21*
%TO.C,C505*%
X114755000Y-113500000D03*
X113795000Y-113500000D03*
%TD*%
D52*
%TO.C,DS701*%
X161165000Y-85505000D03*
D53*
X161165000Y-88045000D03*
X161165000Y-90585000D03*
X161165000Y-93125000D03*
%TD*%
D29*
%TO.C,C101*%
X107675000Y-114875000D03*
X109225000Y-114875000D03*
%TD*%
D21*
%TO.C,C607*%
X156105000Y-93675000D03*
X155145000Y-93675000D03*
%TD*%
D54*
%TO.C,R108*%
X112875000Y-82450000D03*
X112875000Y-81050000D03*
X115625000Y-81050000D03*
X115625000Y-82450000D03*
%TD*%
D32*
%TO.C,C506*%
X118195000Y-105975000D03*
X119155000Y-105975000D03*
%TD*%
D30*
%TO.C,R402*%
X129225000Y-85150000D03*
X128725000Y-85150000D03*
%TD*%
D52*
%TO.C,J501*%
X140200000Y-114975000D03*
D55*
X140200000Y-112435000D03*
%TD*%
D18*
%TO.C,R604*%
X130225000Y-86775000D03*
X130225000Y-87275000D03*
%TD*%
D16*
%TO.C,C606*%
X147875000Y-98560000D03*
X147875000Y-97600000D03*
%TD*%
%TO.C,C608*%
X142700000Y-98580000D03*
X142700000Y-97620000D03*
%TD*%
%TO.C,C301*%
X111975000Y-94080000D03*
X111975000Y-93120000D03*
%TD*%
D22*
%TO.C,R606*%
X122475000Y-94475000D03*
X122475000Y-93975000D03*
%TD*%
D56*
%TO.C,C514*%
X115850000Y-116750000D03*
X113950000Y-116750000D03*
%TD*%
D32*
%TO.C,C509*%
X121695000Y-106000000D03*
X122655000Y-106000000D03*
%TD*%
D18*
%TO.C,R203*%
X108275000Y-98700000D03*
X108275000Y-99200000D03*
%TD*%
D57*
%TO.C,U401*%
X129712500Y-82075000D03*
X129712500Y-83025000D03*
X129712500Y-83975000D03*
X131987500Y-83975000D03*
X131987500Y-82075000D03*
%TD*%
D21*
%TO.C,C510*%
X115405000Y-107850000D03*
X114445000Y-107850000D03*
%TD*%
D58*
%TO.C,U402*%
X121655200Y-86999999D03*
X121655200Y-87500000D03*
X121655200Y-87999999D03*
X121655200Y-88500001D03*
X121655200Y-89000000D03*
X121655200Y-89499999D03*
X121655200Y-90000001D03*
X121655200Y-90500000D03*
X121655200Y-91000001D03*
D59*
X122499999Y-91844800D03*
X123000000Y-91844800D03*
X123499999Y-91844800D03*
X124000001Y-91844800D03*
X124500000Y-91844800D03*
X124999999Y-91844800D03*
X125500001Y-91844800D03*
X126000000Y-91844800D03*
X126500001Y-91844800D03*
D58*
X127344800Y-91000001D03*
X127344800Y-90500000D03*
X127344800Y-90000001D03*
X127344800Y-89499999D03*
X127344800Y-89000000D03*
X127344800Y-88500001D03*
X127344800Y-87999999D03*
X127344800Y-87500000D03*
X127344800Y-86999999D03*
D59*
X126500001Y-86155200D03*
X126000000Y-86155200D03*
X125500001Y-86155200D03*
X124999999Y-86155200D03*
X124500000Y-86155200D03*
X124000001Y-86155200D03*
X123499999Y-86155200D03*
X123000000Y-86155200D03*
X122499999Y-86155200D03*
D60*
X124500000Y-89000000D03*
%TD*%
D10*
%TO.C,REF\u002A\u002A*%
X102000000Y-116900000D03*
%TD*%
M02*
