M48
; DRILL file KiCad 10.0.1-10.0.1~ubuntu24.04.1 date 2026-04-22T13:49:18
; FORMAT={3:3/ absolute / metric / suppress leading zeros}
; #@! TF.CreationDate,2026-04-22T13:49:18+10:00
; #@! TF.GenerationSoftware,Kicad,Pcbnew,10.0.1-10.0.1~ubuntu24.04.1
; #@! TF.FileFunction,Plated,1,4,PTH
FMAT,2
METRIC,TZ
; #@! TA.AperFunction,Plated,PTH,ViaDrill
T1C0.150
; #@! TA.AperFunction,Plated,PTH,ViaDrill
T2C0.200
; #@! TA.AperFunction,Plated,PTH,ViaDrill
T3C0.300
; #@! TA.AperFunction,Plated,PTH,ComponentDrill
T4C0.350
; #@! TA.AperFunction,Plated,PTH,ViaDrill
T5C0.400
; #@! TA.AperFunction,Plated,PTH,ComponentDrill
T6C0.600
; #@! TA.AperFunction,Plated,PTH,ComponentDrill
T7C1.000
%
G90
G05
T1
X109975Y-90518
X110025Y-109000
X110650Y-96500
X110650Y-99000
X110650Y-99650
X110738Y-90518
X110788Y-109000
X110950Y-102250
X112850Y-85300
X115250Y-103750
X117150Y-86300
X117150Y-86800
X123300Y-90250
X123350Y-89000
X124450Y-89050
X124450Y-90250
X125650Y-89050
X125700Y-90300
X126400Y-84700
X127100Y-84700
X143250Y-91000
X143750Y-91000
X143750Y-91500
X143750Y-92000
X143750Y-92500
X143750Y-93000
X144250Y-91000
X144250Y-92000
X144250Y-93000
X145250Y-90500
X145250Y-91000
X145750Y-91500
X146250Y-91500
X146750Y-89000
X147250Y-89000
X147250Y-91500
X147750Y-89500
X147750Y-90000
X147750Y-91500
X148750Y-91000
X148750Y-91500
X148750Y-92000
X149250Y-91500
X149250Y-92000
X149250Y-93000
X149750Y-91000
X149750Y-92000
X149750Y-92500
T2
X102900Y-98000
X103600Y-100250
X107563Y-98212
X108690Y-97890
X108990Y-100760
X109250Y-114900
X109648Y-97523
X113300Y-112500
X113310Y-100350
X113800Y-113550
X113950Y-116700
X114200Y-87050
X114250Y-81125
X114350Y-111500
X114450Y-107850
X114450Y-109000
X118540Y-106850
X119270Y-88284
X119280Y-90150
X119800Y-106775
X119825Y-88575
X120050Y-90325
X120288Y-91612
X120300Y-91025
X120425Y-88500
X121825Y-95150
X122070Y-92750
X122500Y-93100
X122900Y-95625
X124800Y-80850
X126630Y-117850
X128390Y-88570
X129350Y-88550
X129470Y-115440
X129750Y-83050
X129975Y-93500
X131850Y-106000
X132050Y-82100
X133540Y-86568
X133550Y-103850
X134135Y-87035
X135100Y-117150
X135200Y-87507
X135830Y-86970
X136710Y-93950
X141025Y-90275
X141860Y-90370
X142700Y-97650
X142700Y-98585
X143750Y-97600
X143775Y-98555
X144800Y-97600
X144800Y-98555
X145825Y-98555
X145850Y-97600
X146850Y-97600
X146850Y-98555
X147850Y-97600
X147875Y-98560
T3
X100800Y-98645
X101475Y-83000
X102100Y-81800
X103400Y-101450
X104700Y-116000
X105288Y-81988
X105788Y-115963
X106175Y-91250
X106252Y-90227
X106275Y-107412
X106277Y-108152
X106277Y-109200
X106775Y-90750
X106800Y-108675
X106825Y-89750
X109199Y-99900
X109450Y-104400
X109750Y-116525
X110250Y-93025
X111550Y-105850
X111750Y-92050
X112450Y-101700
X112750Y-92100
X113000Y-106700
X113925Y-103225
X114368Y-99082
X115188Y-112438
X115293Y-106897
X115488Y-115088
X115550Y-84800
X115950Y-85550
X116050Y-114125
X116719Y-101625
X117050Y-115725
X117175Y-105525
X117376Y-102549
X117650Y-88534
X117675Y-89550
X117965Y-113107
X117972Y-112168
X118075Y-113925
X118400Y-92200
X118400Y-110550
X118475Y-83275
X118900Y-93050
X119275Y-102150
X119649Y-116300
X119891Y-85784
X120000Y-82375
X120025Y-105928
X120150Y-94500
X120200Y-93550
X120250Y-92650
X120326Y-115875
X120600Y-97700
X120750Y-86150
X120975Y-82025
X121088Y-95362
X121418Y-97650
X122050Y-103775
X122300Y-82250
X122325Y-97775
X122725Y-104950
X122778Y-111122
X122825Y-109275
X123100Y-112475
X123550Y-103950
X123775Y-105050
X123925Y-96775
X123950Y-102275
X124179Y-114992
X125119Y-114500
X125150Y-96825
X125150Y-107050
X125435Y-112910
X125500Y-83450
X125524Y-116875
X125800Y-108350
X125857Y-107552
X126350Y-114550
X126700Y-99450
X127525Y-106350
X127525Y-113950
X127775Y-109000
X127925Y-108200
X128000Y-110075
X128000Y-111150
X128250Y-92550
X128350Y-104275
X128550Y-101325
X128650Y-81200
X129150Y-96975
X129900Y-116450
X130007Y-94149
X130075Y-110125
X130350Y-85100
X130900Y-96200
X130975Y-89950
X131150Y-85700
X132425Y-85025
X132625Y-96200
X132850Y-100925
X133700Y-84975
X134050Y-113050
X134200Y-100300
X134425Y-107900
X134850Y-111450
X134930Y-112246
X135850Y-90675
X136000Y-94400
X136125Y-83925
X136500Y-85350
X136500Y-102450
X136956Y-90644
X137125Y-106325
X137175Y-86100
X137975Y-117575
X138075Y-108875
X138100Y-94593
X138575Y-104675
X138700Y-87300
X138800Y-86000
X138975Y-99750
X138975Y-107425
X139125Y-90600
X139700Y-94593
X141375Y-89375
X141400Y-94600
X141600Y-86100
X141600Y-87200
X142900Y-94500
X143075Y-81975
X143800Y-86100
X145050Y-94525
X145150Y-81140
X145800Y-86100
X146175Y-103275
X146240Y-81170
X146375Y-108800
X146700Y-94700
X147850Y-107475
X147900Y-106000
X148000Y-94700
X148450Y-81975
X149200Y-86100
X149300Y-94700
X149638Y-110556
X149750Y-113225
X149800Y-115050
X149850Y-116700
X150225Y-111100
X150600Y-94700
X150822Y-93075
X151100Y-86300
X151100Y-87475
X151100Y-88750
X151100Y-90100
X154000Y-82000
X155000Y-94950
X155500Y-89450
X155700Y-97000
X155869Y-95000
X157200Y-92550
X160475Y-109400
X160575Y-104275
T4
X119225Y-110225
X119225Y-111500
X119225Y-112775
X120500Y-110225
X120500Y-111500
X120500Y-112775
X121775Y-110225
X121775Y-111500
X121775Y-112775
T5
X101300Y-103775
X103225Y-81350
X107400Y-102300
X109125Y-86100
X109250Y-92575
X109275Y-87525
X109350Y-84575
X109600Y-105450
X109650Y-112800
X109826Y-111174
X109988Y-83805
X110012Y-94338
X111100Y-87275
X111500Y-83400
X111750Y-117500
X112350Y-115450
X112675Y-83950
X112688Y-94813
X113375Y-97725
X113575Y-96525
X114313Y-95363
X114425Y-83675
X115425Y-96975
X115450Y-97975
X116375Y-95500
X118195Y-95800
X127375Y-117425
X129339Y-90536
X147225Y-85475
X155225Y-103825
X155525Y-110175
T7
X140200Y-112435
X140200Y-114975
X161165Y-85505
X161165Y-88045
X161165Y-90585
X161165Y-93125
T6
G00X103475Y-86180
M15
G01X102875Y-86180
M16
G05
G00X103475Y-94820
M15
G01X102875Y-94820
M16
G05
G00X103475Y-104180
M15
G01X102875Y-104180
M16
G05
G00X103475Y-112820
M15
G01X102875Y-112820
M16
G05
G00X107905Y-86180
M15
G01X106805Y-86180
M16
G05
G00X107905Y-94820
M15
G01X106805Y-94820
M16
G05
G00X107905Y-104180
M15
G01X106805Y-104180
M16
G05
G00X107905Y-112820
M15
G01X106805Y-112820
M16
G05
M30
