%TF.GenerationSoftware,KiCad,Pcbnew,10.0.1-10.0.1~ubuntu24.04.1*%
%TF.CreationDate,2026-04-22T13:49:08+10:00*%
%TF.ProjectId,Smart USB Drive - Course,536d6172-7420-4555-9342-204472697665,rev?*%
%TF.SameCoordinates,Original*%
%TF.FileFunction,Copper,L2,Inr*%
%TF.FilePolarity,Positive*%
%FSLAX46Y46*%
G04 Gerber Fmt 4.6, Leading zero omitted, Abs format (unit mm)*
G04 Created by KiCad (PCBNEW 10.0.1-10.0.1~ubuntu24.04.1) date 2026-04-22 13:49:08*
%MOMM*%
%LPD*%
G01*
G04 APERTURE LIST*
%TA.AperFunction,ComponentPad*%
%ADD10C,0.600000*%
%TD*%
%TA.AperFunction,ComponentPad*%
%ADD11O,2.100000X1.000000*%
%TD*%
%TA.AperFunction,ComponentPad*%
%ADD12O,1.600000X1.000000*%
%TD*%
%TA.AperFunction,ComponentPad*%
%ADD13R,1.700000X1.700000*%
%TD*%
%TA.AperFunction,ComponentPad*%
%ADD14O,1.700000X1.700000*%
%TD*%
%TA.AperFunction,ComponentPad*%
%ADD15C,1.700000*%
%TD*%
%TA.AperFunction,ViaPad*%
%ADD16C,0.300000*%
%TD*%
%TA.AperFunction,ViaPad*%
%ADD17C,0.600000*%
%TD*%
%TA.AperFunction,ViaPad*%
%ADD18C,0.800000*%
%TD*%
%TA.AperFunction,ViaPad*%
%ADD19C,0.400000*%
%TD*%
G04 APERTURE END LIST*
D10*
%TO.N,GND*%
%TO.C,U501*%
X119225000Y-112775000D03*
X120500000Y-112775000D03*
X121775000Y-112775000D03*
X119225000Y-111500000D03*
X120500000Y-111500000D03*
X121775000Y-111500000D03*
X119225000Y-110225000D03*
X120500000Y-110225000D03*
X121775000Y-110225000D03*
%TD*%
D11*
%TO.N,Net-(J102-SHIELD)*%
%TO.C,J102*%
X107355000Y-86180000D03*
D12*
X103175000Y-86180000D03*
D11*
X107355000Y-94820000D03*
D12*
X103175000Y-94820000D03*
%TD*%
D11*
%TO.N,Net-(J101-SHIELD)*%
%TO.C,J101*%
X107355000Y-104180000D03*
D12*
X103175000Y-104180000D03*
D11*
X107355000Y-112820000D03*
D12*
X103175000Y-112820000D03*
%TD*%
D13*
%TO.N,GND*%
%TO.C,DS701*%
X161165000Y-85505000D03*
D14*
%TO.N,+3V3*%
X161165000Y-88045000D03*
%TO.N,/RP2040/I2C0_SCL*%
X161165000Y-90585000D03*
%TO.N,/RP2040/I2C0_SDA*%
X161165000Y-93125000D03*
%TD*%
D13*
%TO.N,/RP2040/~{USB_BOOT}*%
%TO.C,J501*%
X140200000Y-114975000D03*
D15*
%TO.N,GND*%
X140200000Y-112435000D03*
%TD*%
D16*
%TO.N,GND*%
X126400000Y-84700000D03*
X127100000Y-84700000D03*
D17*
X117650000Y-88534000D03*
D16*
X145750000Y-91500000D03*
D18*
X147225000Y-85475000D03*
D16*
X145250000Y-91000000D03*
D18*
X112675000Y-83950000D03*
D17*
X130900000Y-96200000D03*
X122050000Y-103775000D03*
D16*
X147750000Y-89500000D03*
D19*
X147850000Y-97600000D03*
D18*
X103225000Y-81350000D03*
D17*
X121417736Y-97650000D03*
X113925000Y-103225000D03*
X133700000Y-84975000D03*
X115188235Y-112438235D03*
X103400000Y-101450000D03*
X119891026Y-85783974D03*
X113000000Y-106700000D03*
X132425000Y-85025000D03*
X115293024Y-106897060D03*
D18*
X129339216Y-90535784D03*
D17*
X128650000Y-81200000D03*
D16*
X149750000Y-92500000D03*
D18*
X155525000Y-110175000D03*
D17*
X130350000Y-85100000D03*
X136500000Y-85350000D03*
X120975000Y-82025000D03*
D18*
X127375000Y-117425000D03*
D17*
X122325000Y-97775000D03*
X111550000Y-105850000D03*
X123950000Y-102275000D03*
X123550000Y-103950000D03*
X118400000Y-92200000D03*
D18*
X109350000Y-84575000D03*
D17*
X128000000Y-111150000D03*
X117175000Y-105525000D03*
D16*
X148750000Y-92000000D03*
D17*
X130075000Y-110125000D03*
X126700000Y-99450000D03*
X132625000Y-96200000D03*
X123775000Y-105050000D03*
X138975000Y-99750000D03*
D16*
X147250000Y-89000000D03*
D19*
X145850000Y-97600000D03*
D16*
X144250000Y-93000000D03*
D19*
X146850000Y-97600000D03*
D16*
X149250000Y-92000000D03*
D19*
X144800000Y-97600000D03*
D17*
X155000000Y-94950000D03*
D18*
X112350000Y-115450000D03*
D19*
X143750000Y-97600000D03*
D17*
X112450000Y-101700000D03*
X142900000Y-94500000D03*
D16*
X144250000Y-91000000D03*
D17*
X155700000Y-97000000D03*
X125500000Y-83450000D03*
D19*
X142700000Y-97650000D03*
D17*
X154000000Y-82000000D03*
X130007459Y-94149192D03*
X149300000Y-94700000D03*
X105787500Y-115962500D03*
X112750000Y-92100000D03*
X123925000Y-96775000D03*
X146700000Y-94700000D03*
X109750000Y-116525000D03*
D16*
X149250000Y-93000000D03*
X149750000Y-92000000D03*
D17*
X136500000Y-102450000D03*
D18*
X111100000Y-87275000D03*
D17*
X157200000Y-92550000D03*
D19*
X133550000Y-103850000D03*
D17*
X128000000Y-110075000D03*
D19*
X142700000Y-98585000D03*
X144800000Y-98555000D03*
X113950000Y-116700000D03*
D17*
X128250000Y-92550000D03*
D16*
X110650000Y-96500000D03*
D17*
X136125000Y-83925000D03*
D19*
X143775000Y-98555000D03*
D16*
X143250000Y-91000000D03*
X110650000Y-99000000D03*
X146250000Y-91500000D03*
D17*
X155500000Y-89450000D03*
X122725000Y-104950000D03*
X127525000Y-106350000D03*
X149800000Y-115050000D03*
X128550000Y-101325000D03*
X120600000Y-97700000D03*
D18*
X111750000Y-117500000D03*
D19*
X114450000Y-109000000D03*
D17*
X123100000Y-112475000D03*
D19*
X131850000Y-106000000D03*
D17*
X136956495Y-90643505D03*
X118900000Y-93050000D03*
X145150000Y-81140000D03*
X155869101Y-95000392D03*
D16*
X125650000Y-89050000D03*
D18*
X109650000Y-112800000D03*
D16*
X110737500Y-90517500D03*
D17*
X160575000Y-104275000D03*
X150600000Y-94700000D03*
X117675000Y-89550000D03*
D19*
X147875000Y-98560000D03*
D16*
X147250000Y-91500000D03*
D19*
X132050000Y-82100000D03*
D16*
X110025000Y-109000000D03*
D19*
X128390000Y-88570000D03*
D17*
X148450000Y-81975000D03*
D18*
X155225000Y-103825000D03*
D16*
X144250000Y-92000000D03*
D17*
X102100000Y-81800000D03*
D19*
X109250000Y-114900000D03*
D17*
X149200000Y-86100000D03*
D19*
X124800000Y-80850000D03*
X102900000Y-98000000D03*
D17*
X129150000Y-96975000D03*
D16*
X147750000Y-90000000D03*
X145250000Y-90500000D03*
D17*
X132850000Y-100925000D03*
X120750000Y-86150000D03*
X146175000Y-103275000D03*
X151100000Y-88750000D03*
X111750000Y-92050000D03*
D16*
X149250000Y-91500000D03*
X115250000Y-103750000D03*
D17*
X134200000Y-100300000D03*
X146240000Y-81170000D03*
D16*
X124450000Y-90250000D03*
X125700000Y-90300000D03*
D19*
X120287561Y-91612439D03*
D16*
X124450000Y-89050000D03*
D17*
X139125000Y-90600000D03*
X135850000Y-90675000D03*
X100800000Y-98645407D03*
X141375000Y-89375000D03*
D19*
X133540000Y-86568500D03*
D17*
X120025000Y-105927818D03*
X109199461Y-99900000D03*
X151100000Y-90100000D03*
X134425000Y-107900000D03*
D18*
X101300000Y-103775000D03*
D19*
X119280000Y-90150000D03*
D17*
X138700000Y-87300000D03*
X114367525Y-99082475D03*
D16*
X146750000Y-89000000D03*
D17*
X125150000Y-96825000D03*
D19*
X135100000Y-117150000D03*
X122070000Y-92750000D03*
D17*
X120250000Y-92650000D03*
X151100000Y-87475000D03*
X101475000Y-83000000D03*
X128350000Y-104275000D03*
X149850000Y-116700000D03*
X137125000Y-106325000D03*
X143800000Y-86100000D03*
D16*
X110787500Y-109000000D03*
D17*
X109450000Y-104400000D03*
X121088068Y-95361932D03*
X139700000Y-94593500D03*
X141600000Y-87200000D03*
D19*
X114450000Y-107850000D03*
X113800000Y-113550000D03*
D16*
X123300000Y-90250000D03*
D17*
X150822409Y-93074696D03*
D16*
X117150000Y-86800000D03*
D17*
X146375000Y-108800000D03*
X138800000Y-86000000D03*
X148000000Y-94700000D03*
X130975000Y-89950000D03*
D19*
X129750000Y-83050000D03*
D17*
X149750000Y-113225000D03*
X141400000Y-94600000D03*
D16*
X123350000Y-89000000D03*
D19*
X119270000Y-88284000D03*
D16*
X149750000Y-91000000D03*
D17*
X160475000Y-109400000D03*
X122300000Y-82250000D03*
X136000000Y-94400000D03*
X137175000Y-86100000D03*
D19*
X141860000Y-90370000D03*
D16*
X110950000Y-102250000D03*
D19*
X135830000Y-86970000D03*
D17*
X104700000Y-116000000D03*
X118475000Y-83275000D03*
D19*
X146850000Y-98555000D03*
D17*
X120000000Y-82375000D03*
D19*
X114350000Y-111500000D03*
D16*
X109975000Y-90517500D03*
D17*
X110250000Y-93025000D03*
X131150000Y-85700000D03*
D18*
X109125000Y-86100000D03*
D19*
X113300000Y-112500000D03*
D17*
X151100000Y-86300000D03*
D19*
X145825000Y-98555000D03*
D17*
X141600000Y-86100000D03*
D16*
X117150000Y-86300000D03*
D17*
X105287501Y-81987501D03*
D16*
X112850000Y-85300000D03*
D17*
X145800000Y-86100000D03*
X138100000Y-94593500D03*
X120150000Y-94500000D03*
X120200000Y-93550000D03*
X143075000Y-81975000D03*
%TO.N,/RP2040/I2C_SDA*%
X150225000Y-111100000D03*
X119648700Y-116300000D03*
%TO.N,/RP2040/I2C_SCL*%
X149638370Y-110556062D03*
X120326473Y-115875000D03*
%TO.N,/RP2040/I2C0_SDA*%
X119275000Y-102150000D03*
X117375735Y-102549265D03*
X115950000Y-85550000D03*
X118400000Y-110550000D03*
%TO.N,/RP2040/I2C0_SCL*%
X122777555Y-111122445D03*
X116719236Y-101625001D03*
X115550000Y-84800000D03*
%TO.N,/RP2040/GPIO14*%
X127525000Y-113950000D03*
X147850000Y-107475000D03*
%TO.N,/RP2040/GPIO15*%
X125435050Y-112910000D03*
X147900000Y-106000000D03*
%TO.N,/RP2040/SWCLK*%
X138075000Y-108875000D03*
X127775000Y-109000000D03*
%TO.N,/RP2040/SWD*%
X138575000Y-104675000D03*
X122825000Y-109275000D03*
%TO.N,/RP2040/RUN*%
X127925000Y-108200000D03*
X138975000Y-107425000D03*
%TO.N,/RP2040/LED_A*%
X134050000Y-113050000D03*
X125800000Y-108350000D03*
%TO.N,/RP2040/LED_B*%
X125856998Y-107552031D03*
X134929603Y-112246032D03*
%TO.N,/RP2040/LED_C*%
X134850000Y-111450000D03*
X125150000Y-107050000D03*
D19*
%TO.N,/ORING_POWER/NOTIFY_3V3_CON1*%
X113310000Y-100350000D03*
X119800000Y-106775000D03*
X109647500Y-97522500D03*
%TO.N,/ORING_POWER/NOTIFY_3V3_CON2*%
X118540000Y-106850000D03*
X108990000Y-100760000D03*
D17*
%TO.N,/RP2040/QSPI_SD3*%
X126350000Y-114550000D03*
X117971629Y-112168161D03*
%TO.N,/RP2040/QSPI_SCLK*%
X125118847Y-114500000D03*
X117964613Y-113107179D03*
D19*
%TO.N,/RP2040/QSPI_SD0*%
X129470000Y-115440000D03*
D17*
X115487500Y-115087500D03*
%TO.N,/RP2040/QSPI_SD2*%
X116050000Y-114125000D03*
D19*
X126630000Y-117850000D03*
D17*
%TO.N,/RP2040/QSPI_SD1*%
X118075000Y-113925000D03*
X124179032Y-114991935D03*
%TO.N,/RP2040/QSPI_SS*%
X129900000Y-116450000D03*
X125523686Y-116874999D03*
X137975000Y-117575000D03*
X117050000Y-115725000D03*
D19*
%TO.N,/USB_BRIDGE/MMCD1*%
X120425000Y-88500000D03*
X135200000Y-87506500D03*
%TO.N,/VBUS_MCU*%
X103600000Y-100250000D03*
X107562500Y-98212500D03*
%TO.N,Net-(U201-ST)*%
X108690000Y-97890000D03*
D16*
X110650000Y-99650000D03*
D18*
%TO.N,/ORING_POWER/ORING_5V*%
X118195014Y-95800000D03*
X112687500Y-94812500D03*
X114312500Y-95362500D03*
X115425000Y-96975000D03*
X113375000Y-97725000D03*
X116375000Y-95500000D03*
X113575000Y-96525000D03*
X115450000Y-97975000D03*
D19*
%TO.N,/USB_BRIDGE/MMCD2*%
X141025000Y-90275000D03*
X129350000Y-88550000D03*
%TO.N,/VBUS_STORAGE_IN+*%
X114200000Y-87050000D03*
X114250000Y-81125000D03*
D18*
%TO.N,Net-(J102-VBUS-PadA4)*%
X109250000Y-92575000D03*
X111500000Y-83400000D03*
X109275000Y-87525000D03*
D17*
%TO.N,/USB_BRIDGE/STORAGE_USB+*%
X106251739Y-90226739D03*
X106175000Y-91250000D03*
%TO.N,/USB_BRIDGE/STORAGE_USB-*%
X106825000Y-89750000D03*
X106775000Y-90750000D03*
D16*
%TO.N,/USB_BRIDGE/MMCD4*%
X143750000Y-92500000D03*
D19*
X129975000Y-93500000D03*
%TO.N,/USB_BRIDGE/MMCD7*%
X120050000Y-90325000D03*
D16*
X143750000Y-91000000D03*
%TO.N,/USB_BRIDGE/MMCD6*%
X143750000Y-91500000D03*
D19*
X120300000Y-91025000D03*
D18*
%TO.N,Net-(J101-VBUS-PadA4)*%
X109600000Y-105450000D03*
X107400000Y-102300000D03*
X109826041Y-111173959D03*
%TO.N,/VBUS_STORAGE*%
X114425000Y-83675000D03*
X110012336Y-94337664D03*
X109987569Y-83804604D03*
D17*
%TO.N,/RP2040/RP_USB_D+*%
X106276739Y-108151739D03*
X106276739Y-109200000D03*
%TO.N,/RP2040/RP_USB_D-*%
X106274507Y-107411740D03*
X106800000Y-108675000D03*
D19*
%TO.N,/USB_BRIDGE/MMCD0*%
X134135000Y-87035000D03*
X119825000Y-88575000D03*
%TO.N,/USB_BRIDGE/MMCD3*%
X136710000Y-93950000D03*
D16*
X143750000Y-93000000D03*
%TO.N,/USB_BRIDGE/MMCD5*%
X143750000Y-92000000D03*
D19*
X122499999Y-93100000D03*
D17*
%TO.N,Net-(U601-RST_N)*%
X145050000Y-94525000D03*
D16*
X147750000Y-91500000D03*
%TO.N,/eMMC_STORAGE/MMC_CMD_L*%
X148750000Y-91500000D03*
D19*
X122900000Y-95625000D03*
D16*
%TO.N,/eMMC_STORAGE/MMC_CLK_L*%
X148750000Y-91000000D03*
D19*
X121825000Y-95150000D03*
%TD*%
%TA.AperFunction,Conductor*%
%TO.N,GND*%
G36*
X160457415Y-79747045D02*
G01*
X160747475Y-79764591D01*
X160762339Y-79766396D01*
X161044477Y-79818100D01*
X161059014Y-79821683D01*
X161332862Y-79907018D01*
X161346843Y-79912320D01*
X161608414Y-80030044D01*
X161621667Y-80037000D01*
X161867138Y-80185391D01*
X161879456Y-80193893D01*
X161884159Y-80197577D01*
X162105253Y-80370794D01*
X162116461Y-80380724D01*
X162319275Y-80583538D01*
X162329205Y-80594746D01*
X162488747Y-80798386D01*
X162506102Y-80820537D01*
X162514608Y-80832861D01*
X162662999Y-81078332D01*
X162669957Y-81091589D01*
X162787674Y-81353143D01*
X162792984Y-81367145D01*
X162878315Y-81640984D01*
X162881899Y-81655522D01*
X162933603Y-81937660D01*
X162935408Y-81952525D01*
X162952954Y-82242583D01*
X162953180Y-82250070D01*
X162953180Y-115749929D01*
X162952954Y-115757416D01*
X162935408Y-116047474D01*
X162933603Y-116062339D01*
X162881899Y-116344477D01*
X162878315Y-116359015D01*
X162792984Y-116632854D01*
X162787674Y-116646856D01*
X162669957Y-116908410D01*
X162662999Y-116921667D01*
X162514608Y-117167138D01*
X162506102Y-117179462D01*
X162329205Y-117405253D01*
X162319275Y-117416461D01*
X162116461Y-117619275D01*
X162105253Y-117629205D01*
X161879462Y-117806102D01*
X161867138Y-117814608D01*
X161621667Y-117962999D01*
X161608410Y-117969957D01*
X161346856Y-118087674D01*
X161332854Y-118092984D01*
X161059015Y-118178315D01*
X161044477Y-118181899D01*
X160762339Y-118233603D01*
X160747474Y-118235408D01*
X160457423Y-118252952D01*
X160449928Y-118253178D01*
X127017948Y-118251037D01*
X126950910Y-118231348D01*
X126905158Y-118178541D01*
X126895219Y-118109382D01*
X126910568Y-118065040D01*
X126956614Y-117985288D01*
X126980500Y-117896144D01*
X126980500Y-117803856D01*
X126956614Y-117714712D01*
X126956611Y-117714706D01*
X126910473Y-117634794D01*
X126910470Y-117634791D01*
X126910469Y-117634788D01*
X126845212Y-117569531D01*
X126845209Y-117569529D01*
X126845205Y-117569526D01*
X126765293Y-117523388D01*
X126765290Y-117523387D01*
X126765289Y-117523386D01*
X126765288Y-117523386D01*
X126761134Y-117522273D01*
X137574500Y-117522273D01*
X137574500Y-117627727D01*
X137601793Y-117729587D01*
X137654520Y-117820913D01*
X137729087Y-117895480D01*
X137820413Y-117948207D01*
X137922273Y-117975500D01*
X137922275Y-117975500D01*
X138027725Y-117975500D01*
X138027727Y-117975500D01*
X138129587Y-117948207D01*
X138220913Y-117895480D01*
X138295480Y-117820913D01*
X138348207Y-117729587D01*
X138375500Y-117627727D01*
X138375500Y-117522273D01*
X138348207Y-117420413D01*
X138295480Y-117329087D01*
X138220913Y-117254520D01*
X138129587Y-117201793D01*
X138027727Y-117174500D01*
X137922273Y-117174500D01*
X137820413Y-117201793D01*
X137820410Y-117201794D01*
X137729085Y-117254521D01*
X137654521Y-117329085D01*
X137601794Y-117420410D01*
X137601793Y-117420413D01*
X137574500Y-117522273D01*
X126761134Y-117522273D01*
X126676144Y-117499500D01*
X126583856Y-117499500D01*
X126494712Y-117523386D01*
X126494711Y-117523386D01*
X126494709Y-117523387D01*
X126494706Y-117523388D01*
X126414794Y-117569526D01*
X126414785Y-117569533D01*
X126349533Y-117634785D01*
X126349526Y-117634794D01*
X126303388Y-117714706D01*
X126303387Y-117714709D01*
X126279500Y-117803856D01*
X126279500Y-117896143D01*
X126303386Y-117985288D01*
X126349401Y-118064987D01*
X126365874Y-118132887D01*
X126343022Y-118198914D01*
X126288101Y-118242105D01*
X126242006Y-118250988D01*
X103073524Y-118249504D01*
X103073524Y-118249503D01*
X103065902Y-118249502D01*
X103065892Y-118249500D01*
X103003744Y-118249500D01*
X103003743Y-118249499D01*
X102996264Y-118249274D01*
X102706205Y-118231728D01*
X102691340Y-118229923D01*
X102409202Y-118178219D01*
X102394664Y-118174635D01*
X102120825Y-118089304D01*
X102106827Y-118083995D01*
X101954096Y-118015256D01*
X101845269Y-117966277D01*
X101832012Y-117959319D01*
X101586541Y-117810928D01*
X101574217Y-117802422D01*
X101462256Y-117714706D01*
X101353123Y-117629205D01*
X101348426Y-117625525D01*
X101337218Y-117615595D01*
X101134404Y-117412781D01*
X101124474Y-117401573D01*
X101025700Y-117275498D01*
X100947573Y-117175776D01*
X100939071Y-117163458D01*
X100790680Y-116917987D01*
X100783722Y-116904730D01*
X100759315Y-116850500D01*
X100746611Y-116822272D01*
X125123186Y-116822272D01*
X125123186Y-116927726D01*
X125150479Y-117029586D01*
X125203206Y-117120912D01*
X125277773Y-117195479D01*
X125369099Y-117248206D01*
X125470959Y-117275499D01*
X125470961Y-117275499D01*
X125576411Y-117275499D01*
X125576413Y-117275499D01*
X125678273Y-117248206D01*
X125769599Y-117195479D01*
X125844166Y-117120912D01*
X125896893Y-117029586D01*
X125924186Y-116927726D01*
X125924186Y-116822272D01*
X125896893Y-116720412D01*
X125844166Y-116629086D01*
X125769599Y-116554519D01*
X125702745Y-116515921D01*
X125678275Y-116501793D01*
X125678273Y-116501792D01*
X125576413Y-116474499D01*
X125470959Y-116474499D01*
X125369099Y-116501792D01*
X125369096Y-116501793D01*
X125277771Y-116554520D01*
X125203207Y-116629084D01*
X125150480Y-116720409D01*
X125150479Y-116720412D01*
X125123186Y-116822272D01*
X100746611Y-116822272D01*
X100666000Y-116643163D01*
X100660698Y-116629182D01*
X100575363Y-116355334D01*
X100571780Y-116340797D01*
X100563463Y-116295413D01*
X100554641Y-116247273D01*
X119248200Y-116247273D01*
X119248200Y-116352727D01*
X119275493Y-116454587D01*
X119328220Y-116545913D01*
X119402787Y-116620480D01*
X119494113Y-116673207D01*
X119595973Y-116700500D01*
X119595975Y-116700500D01*
X119701424Y-116700500D01*
X119701427Y-116700500D01*
X119803287Y-116673207D01*
X119894613Y-116620480D01*
X119969180Y-116545913D01*
X120021907Y-116454587D01*
X120037264Y-116397273D01*
X129499500Y-116397273D01*
X129499500Y-116502727D01*
X129526793Y-116604587D01*
X129579520Y-116695913D01*
X129654087Y-116770480D01*
X129745413Y-116823207D01*
X129847273Y-116850500D01*
X129847275Y-116850500D01*
X129952725Y-116850500D01*
X129952727Y-116850500D01*
X130054587Y-116823207D01*
X130145913Y-116770480D01*
X130220480Y-116695913D01*
X130273207Y-116604587D01*
X130300500Y-116502727D01*
X130300500Y-116397273D01*
X130273207Y-116295413D01*
X130220480Y-116204087D01*
X130145913Y-116129520D01*
X130054587Y-116076793D01*
X129952727Y-116049500D01*
X129847273Y-116049500D01*
X129745413Y-116076793D01*
X129745410Y-116076794D01*
X129654085Y-116129521D01*
X129579521Y-116204085D01*
X129526794Y-116295410D01*
X129526793Y-116295413D01*
X129499500Y-116397273D01*
X120037264Y-116397273D01*
X120049200Y-116352727D01*
X120049200Y-116352725D01*
X120051303Y-116344877D01*
X120054607Y-116345762D01*
X120076462Y-116296326D01*
X120134777Y-116257840D01*
X120203243Y-116256609D01*
X120273746Y-116275500D01*
X120273750Y-116275500D01*
X120379198Y-116275500D01*
X120379200Y-116275500D01*
X120481060Y-116248207D01*
X120572386Y-116195480D01*
X120646953Y-116120913D01*
X120699680Y-116029587D01*
X120726973Y-115927727D01*
X120726973Y-115822273D01*
X120699680Y-115720413D01*
X120646953Y-115629087D01*
X120572386Y-115554520D01*
X120481060Y-115501793D01*
X120379200Y-115474500D01*
X120273746Y-115474500D01*
X120171886Y-115501793D01*
X120171883Y-115501794D01*
X120080558Y-115554521D01*
X120005994Y-115629085D01*
X119953267Y-115720410D01*
X119953266Y-115720413D01*
X119934487Y-115790500D01*
X119923870Y-115830123D01*
X119920599Y-115829246D01*
X119898557Y-115878853D01*
X119840169Y-115917228D01*
X119771926Y-115918389D01*
X119701427Y-115899500D01*
X119595973Y-115899500D01*
X119494113Y-115926793D01*
X119494110Y-115926794D01*
X119402785Y-115979521D01*
X119328221Y-116054085D01*
X119275494Y-116145410D01*
X119275493Y-116145413D01*
X119248200Y-116247273D01*
X100554641Y-116247273D01*
X100520075Y-116058657D01*
X100518271Y-116043794D01*
X100517164Y-116025500D01*
X100500726Y-115753736D01*
X100500500Y-115746249D01*
X100500500Y-115672273D01*
X116649500Y-115672273D01*
X116649500Y-115777727D01*
X116676793Y-115879587D01*
X116729520Y-115970913D01*
X116804087Y-116045480D01*
X116895413Y-116098207D01*
X116997273Y-116125500D01*
X116997275Y-116125500D01*
X117102725Y-116125500D01*
X117102727Y-116125500D01*
X117204587Y-116098207D01*
X117295913Y-116045480D01*
X117370480Y-115970913D01*
X117423207Y-115879587D01*
X117450500Y-115777727D01*
X117450500Y-115672273D01*
X117423207Y-115570413D01*
X117370480Y-115479087D01*
X117295913Y-115404520D01*
X117277442Y-115393856D01*
X129119500Y-115393856D01*
X129119500Y-115486144D01*
X129137821Y-115554520D01*
X129143387Y-115575290D01*
X129143388Y-115575293D01*
X129189526Y-115655205D01*
X129189529Y-115655209D01*
X129189531Y-115655212D01*
X129254788Y-115720469D01*
X129254791Y-115720470D01*
X129254794Y-115720473D01*
X129334706Y-115766611D01*
X129334707Y-115766611D01*
X129334712Y-115766614D01*
X129423856Y-115790500D01*
X129423858Y-115790500D01*
X129516142Y-115790500D01*
X129516144Y-115790500D01*
X129605288Y-115766614D01*
X129685212Y-115720469D01*
X129750469Y-115655212D01*
X129796614Y-115575288D01*
X129820500Y-115486144D01*
X129820500Y-115393856D01*
X129796614Y-115304712D01*
X129796611Y-115304706D01*
X129750473Y-115224794D01*
X129750470Y-115224791D01*
X129750469Y-115224788D01*
X129685212Y-115159531D01*
X129685209Y-115159529D01*
X129685205Y-115159526D01*
X129605293Y-115113388D01*
X129605290Y-115113387D01*
X129605289Y-115113386D01*
X129605288Y-115113386D01*
X129516144Y-115089500D01*
X129423856Y-115089500D01*
X129334712Y-115113386D01*
X129334711Y-115113386D01*
X129334709Y-115113387D01*
X129334706Y-115113388D01*
X129254794Y-115159526D01*
X129254785Y-115159533D01*
X129189533Y-115224785D01*
X129189526Y-115224794D01*
X129143388Y-115304706D01*
X129143387Y-115304709D01*
X129143386Y-115304711D01*
X129143386Y-115304712D01*
X129119500Y-115393856D01*
X117277442Y-115393856D01*
X117204587Y-115351793D01*
X117102727Y-115324500D01*
X116997273Y-115324500D01*
X116895413Y-115351793D01*
X116895410Y-115351794D01*
X116804085Y-115404521D01*
X116729521Y-115479085D01*
X116676794Y-115570410D01*
X116676793Y-115570413D01*
X116649500Y-115672273D01*
X100500500Y-115672273D01*
X100500500Y-115034773D01*
X115087000Y-115034773D01*
X115087000Y-115140227D01*
X115114293Y-115242087D01*
X115167020Y-115333413D01*
X115241587Y-115407980D01*
X115332913Y-115460707D01*
X115434773Y-115488000D01*
X115434775Y-115488000D01*
X115540225Y-115488000D01*
X115540227Y-115488000D01*
X115642087Y-115460707D01*
X115733413Y-115407980D01*
X115807980Y-115333413D01*
X115860707Y-115242087D01*
X115888000Y-115140227D01*
X115888000Y-115034773D01*
X115862394Y-114939208D01*
X123778532Y-114939208D01*
X123778532Y-115044662D01*
X123805825Y-115146522D01*
X123858552Y-115237848D01*
X123933119Y-115312415D01*
X124024445Y-115365142D01*
X124126305Y-115392435D01*
X124126307Y-115392435D01*
X124231757Y-115392435D01*
X124231759Y-115392435D01*
X124333619Y-115365142D01*
X124424945Y-115312415D01*
X124499512Y-115237848D01*
X124552239Y-115146522D01*
X124579532Y-115044662D01*
X124579532Y-114939208D01*
X124552239Y-114837348D01*
X124499512Y-114746022D01*
X124424945Y-114671455D01*
X124333619Y-114618728D01*
X124231759Y-114591435D01*
X124126305Y-114591435D01*
X124024445Y-114618728D01*
X124024442Y-114618729D01*
X123933117Y-114671456D01*
X123858553Y-114746020D01*
X123805826Y-114837345D01*
X123805825Y-114837348D01*
X123778532Y-114939208D01*
X115862394Y-114939208D01*
X115860707Y-114932913D01*
X115807980Y-114841587D01*
X115733413Y-114767020D01*
X115642087Y-114714293D01*
X115540227Y-114687000D01*
X115434773Y-114687000D01*
X115332913Y-114714293D01*
X115332910Y-114714294D01*
X115241585Y-114767021D01*
X115167021Y-114841585D01*
X115114294Y-114932910D01*
X115114293Y-114932913D01*
X115087000Y-115034773D01*
X100500500Y-115034773D01*
X100500500Y-114072273D01*
X115649500Y-114072273D01*
X115649500Y-114177727D01*
X115676793Y-114279587D01*
X115729520Y-114370913D01*
X115804087Y-114445480D01*
X115895413Y-114498207D01*
X115997273Y-114525500D01*
X115997275Y-114525500D01*
X116102725Y-114525500D01*
X116102727Y-114525500D01*
X116204587Y-114498207D01*
X116292807Y-114447273D01*
X124718347Y-114447273D01*
X124718347Y-114552727D01*
X124745640Y-114654587D01*
X124798367Y-114745913D01*
X124872934Y-114820480D01*
X124964260Y-114873207D01*
X125066120Y-114900500D01*
X125066122Y-114900500D01*
X125171572Y-114900500D01*
X125171574Y-114900500D01*
X125273434Y-114873207D01*
X125364760Y-114820480D01*
X125439327Y-114745913D01*
X125492054Y-114654587D01*
X125519347Y-114552727D01*
X125519347Y-114497273D01*
X125949500Y-114497273D01*
X125949500Y-114602727D01*
X125976793Y-114704587D01*
X126029520Y-114795913D01*
X126104087Y-114870480D01*
X126195413Y-114923207D01*
X126297273Y-114950500D01*
X126297275Y-114950500D01*
X126402725Y-114950500D01*
X126402727Y-114950500D01*
X126504587Y-114923207D01*
X126595913Y-114870480D01*
X126670480Y-114795913D01*
X126723207Y-114704587D01*
X126750500Y-114602727D01*
X126750500Y-114497273D01*
X126723207Y-114395413D01*
X126670480Y-114304087D01*
X126595913Y-114229520D01*
X126509312Y-114179521D01*
X126504589Y-114176794D01*
X126504588Y-114176793D01*
X126504587Y-114176793D01*
X126402727Y-114149500D01*
X126297273Y-114149500D01*
X126195413Y-114176793D01*
X126195410Y-114176794D01*
X126104085Y-114229521D01*
X126029521Y-114304085D01*
X125976794Y-114395410D01*
X125976793Y-114395413D01*
X125949500Y-114497273D01*
X125519347Y-114497273D01*
X125519347Y-114447273D01*
X125492054Y-114345413D01*
X125439327Y-114254087D01*
X125364760Y-114179520D01*
X125273434Y-114126793D01*
X125171574Y-114099500D01*
X125066120Y-114099500D01*
X124964260Y-114126793D01*
X124964257Y-114126794D01*
X124872932Y-114179521D01*
X124798368Y-114254085D01*
X124745641Y-114345410D01*
X124745640Y-114345413D01*
X124718347Y-114447273D01*
X116292807Y-114447273D01*
X116295913Y-114445480D01*
X116370480Y-114370913D01*
X116423207Y-114279587D01*
X116450500Y-114177727D01*
X116450500Y-114072273D01*
X116423207Y-113970413D01*
X116370480Y-113879087D01*
X116295913Y-113804520D01*
X116204587Y-113751793D01*
X116102727Y-113724500D01*
X115997273Y-113724500D01*
X115895413Y-113751793D01*
X115895410Y-113751794D01*
X115804085Y-113804521D01*
X115729521Y-113879085D01*
X115676794Y-113970410D01*
X115676793Y-113970413D01*
X115649500Y-114072273D01*
X100500500Y-114072273D01*
X100500500Y-112888995D01*
X102174499Y-112888995D01*
X102201418Y-113024322D01*
X102201421Y-113024332D01*
X102254221Y-113151804D01*
X102254228Y-113151817D01*
X102330885Y-113266541D01*
X102330888Y-113266545D01*
X102428454Y-113364111D01*
X102428458Y-113364114D01*
X102543182Y-113440771D01*
X102543195Y-113440778D01*
X102641834Y-113481635D01*
X102670672Y-113493580D01*
X102670676Y-113493580D01*
X102670677Y-113493581D01*
X102806004Y-113520500D01*
X102806007Y-113520500D01*
X103543995Y-113520500D01*
X103635041Y-113502389D01*
X103679328Y-113493580D01*
X103806811Y-113440775D01*
X103921542Y-113364114D01*
X104019114Y-113266542D01*
X104095775Y-113151811D01*
X104148580Y-113024328D01*
X104160833Y-112962727D01*
X104175500Y-112888995D01*
X106104499Y-112888995D01*
X106131418Y-113024322D01*
X106131421Y-113024332D01*
X106184221Y-113151804D01*
X106184228Y-113151817D01*
X106260885Y-113266541D01*
X106260888Y-113266545D01*
X106358454Y-113364111D01*
X106358458Y-113364114D01*
X106473182Y-113440771D01*
X106473195Y-113440778D01*
X106571834Y-113481635D01*
X106600672Y-113493580D01*
X106600676Y-113493580D01*
X106600677Y-113493581D01*
X106736004Y-113520500D01*
X106736007Y-113520500D01*
X107973995Y-113520500D01*
X108065041Y-113502389D01*
X108109328Y-113493580D01*
X108236811Y-113440775D01*
X108351542Y-113364114D01*
X108449114Y-113266542D01*
X108525775Y-113151811D01*
X108566102Y-113054452D01*
X117564113Y-113054452D01*
X117564113Y-113159906D01*
X117591406Y-113261766D01*
X117644133Y-113353092D01*
X117718700Y-113427659D01*
X117760859Y-113452000D01*
X117809074Y-113502567D01*
X117822296Y-113571174D01*
X117796328Y-113636039D01*
X117786540Y-113647066D01*
X117754521Y-113679085D01*
X117701794Y-113770410D01*
X117701793Y-113770413D01*
X117674500Y-113872273D01*
X117674500Y-113977727D01*
X117701793Y-114079587D01*
X117754520Y-114170913D01*
X117829087Y-114245480D01*
X117920413Y-114298207D01*
X118022273Y-114325500D01*
X118022275Y-114325500D01*
X118127725Y-114325500D01*
X118127727Y-114325500D01*
X118229587Y-114298207D01*
X118320913Y-114245480D01*
X118395480Y-114170913D01*
X118448207Y-114079587D01*
X118475500Y-113977727D01*
X118475500Y-113897273D01*
X127124500Y-113897273D01*
X127124500Y-114002727D01*
X127151793Y-114104587D01*
X127204520Y-114195913D01*
X127279087Y-114270480D01*
X127370413Y-114323207D01*
X127472273Y-114350500D01*
X127472275Y-114350500D01*
X127577725Y-114350500D01*
X127577727Y-114350500D01*
X127679587Y-114323207D01*
X127770913Y-114270480D01*
X127845480Y-114195913D01*
X127898207Y-114104587D01*
X127925500Y-114002727D01*
X127925500Y-113897273D01*
X127898207Y-113795413D01*
X127845480Y-113704087D01*
X127770913Y-113629520D01*
X127679587Y-113576793D01*
X127577727Y-113549500D01*
X127472273Y-113549500D01*
X127370413Y-113576793D01*
X127370410Y-113576794D01*
X127279085Y-113629521D01*
X127204521Y-113704085D01*
X127151794Y-113795410D01*
X127151793Y-113795413D01*
X127124500Y-113897273D01*
X118475500Y-113897273D01*
X118475500Y-113872273D01*
X118448207Y-113770413D01*
X118395480Y-113679087D01*
X118320913Y-113604520D01*
X118295109Y-113589622D01*
X118278752Y-113580178D01*
X118261499Y-113562083D01*
X118241485Y-113547100D01*
X118237805Y-113537232D01*
X118230537Y-113529610D01*
X118225805Y-113505058D01*
X118220505Y-113490845D01*
X118862706Y-113490845D01*
X118991652Y-113544257D01*
X118991656Y-113544258D01*
X119146202Y-113574999D01*
X119146206Y-113575000D01*
X119303794Y-113575000D01*
X119303797Y-113574999D01*
X119458343Y-113544258D01*
X119458347Y-113544257D01*
X119587293Y-113490845D01*
X120137706Y-113490845D01*
X120266652Y-113544257D01*
X120266656Y-113544258D01*
X120421202Y-113574999D01*
X120421206Y-113575000D01*
X120578794Y-113575000D01*
X120578797Y-113574999D01*
X120733343Y-113544258D01*
X120733347Y-113544257D01*
X120862293Y-113490845D01*
X121412706Y-113490845D01*
X121541652Y-113544257D01*
X121541656Y-113544258D01*
X121696202Y-113574999D01*
X121696206Y-113575000D01*
X121853794Y-113575000D01*
X121853797Y-113574999D01*
X122008343Y-113544258D01*
X122008347Y-113544257D01*
X122137293Y-113490845D01*
X121775001Y-113128553D01*
X121775000Y-113128553D01*
X121412706Y-113490845D01*
X120862293Y-113490845D01*
X120500001Y-113128553D01*
X120500000Y-113128553D01*
X120137706Y-113490845D01*
X119587293Y-113490845D01*
X119225001Y-113128553D01*
X119225000Y-113128553D01*
X118862706Y-113490845D01*
X118220505Y-113490845D01*
X118217070Y-113481635D01*
X118219308Y-113471344D01*
X118217316Y-113461003D01*
X118226607Y-113437794D01*
X118231923Y-113413363D01*
X118241523Y-113400539D01*
X118243285Y-113396139D01*
X118253067Y-113385117D01*
X118285093Y-113353092D01*
X118337820Y-113261766D01*
X118348096Y-113223413D01*
X118384457Y-113163758D01*
X118447303Y-113133227D01*
X118492061Y-113133893D01*
X118509153Y-113137293D01*
X118871446Y-112775001D01*
X118871446Y-112774999D01*
X118836637Y-112740190D01*
X119050000Y-112740190D01*
X119050000Y-112809810D01*
X119076643Y-112874129D01*
X119125871Y-112923357D01*
X119190190Y-112950000D01*
X119259810Y-112950000D01*
X119324129Y-112923357D01*
X119373357Y-112874129D01*
X119400000Y-112809810D01*
X119400000Y-112775000D01*
X119578553Y-112775000D01*
X119862500Y-113058946D01*
X119862501Y-113058946D01*
X120146446Y-112775001D01*
X120146446Y-112774999D01*
X120111637Y-112740190D01*
X120325000Y-112740190D01*
X120325000Y-112809810D01*
X120351643Y-112874129D01*
X120400871Y-112923357D01*
X120465190Y-112950000D01*
X120534810Y-112950000D01*
X120599129Y-112923357D01*
X120648357Y-112874129D01*
X120675000Y-112809810D01*
X120675000Y-112775000D01*
X120853552Y-112775000D01*
X121137500Y-113058946D01*
X121137501Y-113058946D01*
X121421446Y-112775001D01*
X121421446Y-112774999D01*
X121386637Y-112740190D01*
X121600000Y-112740190D01*
X121600000Y-112809810D01*
X121626643Y-112874129D01*
X121675871Y-112923357D01*
X121740190Y-112950000D01*
X121809810Y-112950000D01*
X121874129Y-112923357D01*
X121923357Y-112874129D01*
X121950000Y-112809810D01*
X121950000Y-112774999D01*
X122128553Y-112774999D01*
X122128553Y-112775001D01*
X122490845Y-113137293D01*
X122544257Y-113008347D01*
X122544258Y-113008343D01*
X122574308Y-112857273D01*
X125034550Y-112857273D01*
X125034550Y-112962727D01*
X125061843Y-113064587D01*
X125114570Y-113155913D01*
X125189137Y-113230480D01*
X125280463Y-113283207D01*
X125382323Y-113310500D01*
X125382325Y-113310500D01*
X125487775Y-113310500D01*
X125487777Y-113310500D01*
X125589637Y-113283207D01*
X125680963Y-113230480D01*
X125755530Y-113155913D01*
X125808257Y-113064587D01*
X125826294Y-112997273D01*
X133649500Y-112997273D01*
X133649500Y-113102727D01*
X133676793Y-113204587D01*
X133729520Y-113295913D01*
X133804087Y-113370480D01*
X133895413Y-113423207D01*
X133997273Y-113450500D01*
X133997275Y-113450500D01*
X134102725Y-113450500D01*
X134102727Y-113450500D01*
X134204587Y-113423207D01*
X134295913Y-113370480D01*
X134370480Y-113295913D01*
X134423207Y-113204587D01*
X134450500Y-113102727D01*
X134450500Y-112997273D01*
X134423207Y-112895413D01*
X134370480Y-112804087D01*
X134295913Y-112729520D01*
X134204587Y-112676793D01*
X134102727Y-112649500D01*
X133997273Y-112649500D01*
X133895413Y-112676793D01*
X133895410Y-112676794D01*
X133804085Y-112729521D01*
X133729521Y-112804085D01*
X133676794Y-112895410D01*
X133676793Y-112895413D01*
X133649500Y-112997273D01*
X125826294Y-112997273D01*
X125835550Y-112962727D01*
X125835550Y-112857273D01*
X125808257Y-112755413D01*
X125755530Y-112664087D01*
X125680963Y-112589520D01*
X125589637Y-112536793D01*
X125487777Y-112509500D01*
X125382323Y-112509500D01*
X125280463Y-112536793D01*
X125280460Y-112536794D01*
X125189135Y-112589521D01*
X125114571Y-112664085D01*
X125061844Y-112755410D01*
X125061843Y-112755413D01*
X125034550Y-112857273D01*
X122574308Y-112857273D01*
X122574999Y-112853797D01*
X122575000Y-112853794D01*
X122575000Y-112696206D01*
X122574999Y-112696202D01*
X122544258Y-112541656D01*
X122544257Y-112541652D01*
X122490845Y-112412706D01*
X122128553Y-112774999D01*
X121950000Y-112774999D01*
X121950000Y-112740190D01*
X121923357Y-112675871D01*
X121874129Y-112626643D01*
X121809810Y-112600000D01*
X121740190Y-112600000D01*
X121675871Y-112626643D01*
X121626643Y-112675871D01*
X121600000Y-112740190D01*
X121386637Y-112740190D01*
X121137501Y-112491053D01*
X121137500Y-112491053D01*
X120853552Y-112775000D01*
X120675000Y-112775000D01*
X120675000Y-112740190D01*
X120648357Y-112675871D01*
X120599129Y-112626643D01*
X120534810Y-112600000D01*
X120465190Y-112600000D01*
X120400871Y-112626643D01*
X120351643Y-112675871D01*
X120325000Y-112740190D01*
X120111637Y-112740190D01*
X119862501Y-112491053D01*
X119862500Y-112491053D01*
X119578553Y-112775000D01*
X119400000Y-112775000D01*
X119400000Y-112740190D01*
X119373357Y-112675871D01*
X119324129Y-112626643D01*
X119259810Y-112600000D01*
X119190190Y-112600000D01*
X119125871Y-112626643D01*
X119076643Y-112675871D01*
X119050000Y-112740190D01*
X118836637Y-112740190D01*
X118509153Y-112412705D01*
X118505698Y-112413393D01*
X118436107Y-112407164D01*
X118380930Y-112364301D01*
X118357686Y-112298411D01*
X118357690Y-112285064D01*
X118358388Y-112272167D01*
X118372129Y-112220888D01*
X118372129Y-112137500D01*
X118941052Y-112137500D01*
X119225000Y-112421446D01*
X119225001Y-112421446D01*
X119508946Y-112137501D01*
X119508946Y-112137500D01*
X120216053Y-112137500D01*
X120500000Y-112421446D01*
X120500001Y-112421446D01*
X120783946Y-112137501D01*
X120783946Y-112137500D01*
X121491053Y-112137500D01*
X121775000Y-112421446D01*
X121775001Y-112421446D01*
X122058946Y-112137501D01*
X122058946Y-112137499D01*
X121775001Y-111853553D01*
X121775000Y-111853553D01*
X121491053Y-112137500D01*
X120783946Y-112137500D01*
X120783946Y-112137499D01*
X120500001Y-111853553D01*
X120500000Y-111853553D01*
X120216053Y-112137500D01*
X119508946Y-112137500D01*
X119508946Y-112137499D01*
X119225001Y-111853553D01*
X119225000Y-111853553D01*
X118941052Y-112137500D01*
X118372129Y-112137500D01*
X118372129Y-112115434D01*
X118344836Y-112013574D01*
X118344833Y-112013570D01*
X118344377Y-112011865D01*
X118346040Y-111942015D01*
X118356941Y-111925907D01*
X118312738Y-111924329D01*
X118264217Y-111894356D01*
X118217543Y-111847682D01*
X118217542Y-111847681D01*
X118126216Y-111794954D01*
X118024356Y-111767661D01*
X117918902Y-111767661D01*
X117817042Y-111794954D01*
X117817039Y-111794955D01*
X117725714Y-111847682D01*
X117651150Y-111922246D01*
X117598423Y-112013571D01*
X117598422Y-112013574D01*
X117571129Y-112115434D01*
X117571129Y-112220888D01*
X117598422Y-112322748D01*
X117651149Y-112414074D01*
X117725716Y-112488641D01*
X117794335Y-112528258D01*
X117842550Y-112578824D01*
X117855773Y-112647431D01*
X117829805Y-112712296D01*
X117794335Y-112743030D01*
X117718699Y-112786699D01*
X117644134Y-112861264D01*
X117591407Y-112952589D01*
X117591406Y-112952592D01*
X117564113Y-113054452D01*
X108566102Y-113054452D01*
X108578580Y-113024328D01*
X108605500Y-112888993D01*
X108605500Y-112751007D01*
X108605500Y-112751004D01*
X108578581Y-112615677D01*
X108578580Y-112615676D01*
X108578580Y-112615672D01*
X108578578Y-112615667D01*
X108525778Y-112488195D01*
X108525771Y-112488182D01*
X108449114Y-112373458D01*
X108449111Y-112373454D01*
X108351545Y-112275888D01*
X108351541Y-112275885D01*
X108236817Y-112199228D01*
X108236804Y-112199221D01*
X108109332Y-112146421D01*
X108109322Y-112146418D01*
X107973995Y-112119500D01*
X107973993Y-112119500D01*
X107205244Y-112119500D01*
X107138205Y-112099815D01*
X107092450Y-112047011D01*
X107082506Y-111977853D01*
X107111531Y-111914297D01*
X107143244Y-111888113D01*
X107203103Y-111853553D01*
X107208365Y-111850515D01*
X107315515Y-111743365D01*
X107391281Y-111612135D01*
X107430500Y-111465766D01*
X107430500Y-111314234D01*
X107391281Y-111167865D01*
X107391280Y-111167863D01*
X107391280Y-111167862D01*
X107387860Y-111161939D01*
X107362631Y-111118242D01*
X107356756Y-111108067D01*
X109325541Y-111108067D01*
X109325541Y-111239851D01*
X109329490Y-111254589D01*
X109359649Y-111367146D01*
X109379121Y-111400871D01*
X109425541Y-111481273D01*
X109518727Y-111574459D01*
X109632855Y-111640351D01*
X109760149Y-111674459D01*
X109760151Y-111674459D01*
X109891931Y-111674459D01*
X109891933Y-111674459D01*
X110019227Y-111640351D01*
X110133355Y-111574459D01*
X110226541Y-111481273D01*
X110261223Y-111421202D01*
X118425000Y-111421202D01*
X118425000Y-111578797D01*
X118455741Y-111733343D01*
X118455744Y-111733355D01*
X118466459Y-111759223D01*
X118473928Y-111828693D01*
X118459734Y-111857046D01*
X118488343Y-111858154D01*
X118509153Y-111862293D01*
X118871446Y-111500001D01*
X118871446Y-111499999D01*
X118836637Y-111465190D01*
X119050000Y-111465190D01*
X119050000Y-111534810D01*
X119076643Y-111599129D01*
X119125871Y-111648357D01*
X119190190Y-111675000D01*
X119259810Y-111675000D01*
X119324129Y-111648357D01*
X119373357Y-111599129D01*
X119400000Y-111534810D01*
X119400000Y-111500000D01*
X119578553Y-111500000D01*
X119862500Y-111783946D01*
X119862501Y-111783946D01*
X120146446Y-111500001D01*
X120146446Y-111499999D01*
X120111637Y-111465190D01*
X120325000Y-111465190D01*
X120325000Y-111534810D01*
X120351643Y-111599129D01*
X120400871Y-111648357D01*
X120465190Y-111675000D01*
X120534810Y-111675000D01*
X120599129Y-111648357D01*
X120648357Y-111599129D01*
X120675000Y-111534810D01*
X120675000Y-111500000D01*
X120853552Y-111500000D01*
X121137500Y-111783946D01*
X121137501Y-111783946D01*
X121421446Y-111500001D01*
X121421446Y-111499999D01*
X121386637Y-111465190D01*
X121600000Y-111465190D01*
X121600000Y-111534810D01*
X121626643Y-111599129D01*
X121675871Y-111648357D01*
X121740190Y-111675000D01*
X121809810Y-111675000D01*
X121874129Y-111648357D01*
X121923357Y-111599129D01*
X121950000Y-111534810D01*
X121950000Y-111499999D01*
X122128553Y-111499999D01*
X122128553Y-111500001D01*
X122490845Y-111862293D01*
X122544256Y-111733350D01*
X122567299Y-111617505D01*
X122599684Y-111555594D01*
X122660400Y-111521020D01*
X122721013Y-111521922D01*
X122724828Y-111522945D01*
X122724830Y-111522945D01*
X122830280Y-111522945D01*
X122830282Y-111522945D01*
X122932142Y-111495652D01*
X123023468Y-111442925D01*
X123069120Y-111397273D01*
X134449500Y-111397273D01*
X134449500Y-111502727D01*
X134476793Y-111604587D01*
X134529520Y-111695913D01*
X134604087Y-111770480D01*
X134612916Y-111775577D01*
X134661129Y-111826139D01*
X134674355Y-111894745D01*
X134648390Y-111959611D01*
X134638598Y-111970643D01*
X134609124Y-112000117D01*
X134556397Y-112091442D01*
X134556396Y-112091445D01*
X134529103Y-112193305D01*
X134529103Y-112298759D01*
X134556396Y-112400619D01*
X134609123Y-112491945D01*
X134683690Y-112566512D01*
X134775016Y-112619239D01*
X134876876Y-112646532D01*
X134876878Y-112646532D01*
X134982328Y-112646532D01*
X134982330Y-112646532D01*
X135084190Y-112619239D01*
X135175516Y-112566512D01*
X135250083Y-112491945D01*
X135302810Y-112400619D01*
X135322066Y-112328753D01*
X138850000Y-112328753D01*
X138850000Y-112541246D01*
X138883242Y-112751127D01*
X138883242Y-112751130D01*
X138948904Y-112953217D01*
X139045375Y-113142550D01*
X139084728Y-113196716D01*
X139717037Y-112564408D01*
X139734075Y-112627993D01*
X139799901Y-112742007D01*
X139892993Y-112835099D01*
X140007007Y-112900925D01*
X140070590Y-112917962D01*
X139438282Y-113550269D01*
X139438282Y-113550270D01*
X139492449Y-113589624D01*
X139686121Y-113688306D01*
X139685603Y-113689321D01*
X139735808Y-113729779D01*
X139757873Y-113796073D01*
X139740594Y-113863772D01*
X139689458Y-113911383D01*
X139633952Y-113924500D01*
X139330247Y-113924500D01*
X139271770Y-113936131D01*
X139271769Y-113936132D01*
X139205447Y-113980447D01*
X139161132Y-114046769D01*
X139161131Y-114046770D01*
X139149500Y-114105247D01*
X139149500Y-115844752D01*
X139161131Y-115903229D01*
X139161132Y-115903230D01*
X139205447Y-115969552D01*
X139271769Y-116013867D01*
X139271770Y-116013868D01*
X139330247Y-116025499D01*
X139330250Y-116025500D01*
X139330252Y-116025500D01*
X141069750Y-116025500D01*
X141069751Y-116025499D01*
X141084568Y-116022552D01*
X141128229Y-116013868D01*
X141128229Y-116013867D01*
X141128231Y-116013867D01*
X141194552Y-115969552D01*
X141238867Y-115903231D01*
X141238867Y-115903229D01*
X141238868Y-115903229D01*
X141250499Y-115844752D01*
X141250500Y-115844750D01*
X141250500Y-114105249D01*
X141250499Y-114105247D01*
X141238868Y-114046770D01*
X141238867Y-114046769D01*
X141194552Y-113980447D01*
X141128230Y-113936132D01*
X141128229Y-113936131D01*
X141069752Y-113924500D01*
X141069748Y-113924500D01*
X140766048Y-113924500D01*
X140699009Y-113904815D01*
X140653254Y-113852011D01*
X140643310Y-113782853D01*
X140672335Y-113719297D01*
X140714264Y-113689061D01*
X140713879Y-113688306D01*
X140907554Y-113589622D01*
X140961716Y-113550270D01*
X140961717Y-113550270D01*
X140329408Y-112917962D01*
X140392993Y-112900925D01*
X140507007Y-112835099D01*
X140600099Y-112742007D01*
X140665925Y-112627993D01*
X140682962Y-112564408D01*
X141315270Y-113196717D01*
X141315270Y-113196716D01*
X141354622Y-113142554D01*
X141451095Y-112953217D01*
X141516757Y-112751130D01*
X141516757Y-112751127D01*
X141550000Y-112541246D01*
X141550000Y-112328753D01*
X141516757Y-112118872D01*
X141516757Y-112118869D01*
X141451095Y-111916782D01*
X141354624Y-111727449D01*
X141315270Y-111673282D01*
X141315269Y-111673282D01*
X140682962Y-112305590D01*
X140665925Y-112242007D01*
X140600099Y-112127993D01*
X140507007Y-112034901D01*
X140392993Y-111969075D01*
X140329409Y-111952037D01*
X140961716Y-111319728D01*
X140907550Y-111280375D01*
X140718217Y-111183904D01*
X140516129Y-111118242D01*
X140306246Y-111085000D01*
X140093754Y-111085000D01*
X139883872Y-111118242D01*
X139883869Y-111118242D01*
X139681782Y-111183904D01*
X139492439Y-111280380D01*
X139438282Y-111319727D01*
X139438282Y-111319728D01*
X140070591Y-111952037D01*
X140007007Y-111969075D01*
X139892993Y-112034901D01*
X139799901Y-112127993D01*
X139734075Y-112242007D01*
X139717037Y-112305591D01*
X139084728Y-111673282D01*
X139084727Y-111673282D01*
X139045380Y-111727439D01*
X138948904Y-111916782D01*
X138883242Y-112118869D01*
X138883242Y-112118872D01*
X138850000Y-112328753D01*
X135322066Y-112328753D01*
X135330103Y-112298759D01*
X135330103Y-112193305D01*
X135302810Y-112091445D01*
X135250083Y-112000119D01*
X135175516Y-111925552D01*
X135166686Y-111920454D01*
X135118471Y-111869890D01*
X135105247Y-111801283D01*
X135131214Y-111736418D01*
X135140998Y-111725394D01*
X135170480Y-111695913D01*
X135223207Y-111604587D01*
X135250500Y-111502727D01*
X135250500Y-111397273D01*
X135223207Y-111295413D01*
X135170480Y-111204087D01*
X135095913Y-111129520D01*
X135018802Y-111085000D01*
X135004589Y-111076794D01*
X135004588Y-111076793D01*
X135004587Y-111076793D01*
X134902727Y-111049500D01*
X134797273Y-111049500D01*
X134695413Y-111076793D01*
X134695410Y-111076794D01*
X134604085Y-111129521D01*
X134529521Y-111204085D01*
X134476794Y-111295410D01*
X134476793Y-111295413D01*
X134449500Y-111397273D01*
X123069120Y-111397273D01*
X123098035Y-111368358D01*
X123150762Y-111277032D01*
X123178055Y-111175172D01*
X123178055Y-111069718D01*
X123150762Y-110967858D01*
X123098035Y-110876532D01*
X123023468Y-110801965D01*
X122932142Y-110749238D01*
X122830282Y-110721945D01*
X122724828Y-110721945D01*
X122656014Y-110740383D01*
X122656012Y-110740383D01*
X122622968Y-110749238D01*
X122531642Y-110801965D01*
X122518233Y-110815373D01*
X122518231Y-110815375D01*
X122457075Y-110876532D01*
X122404349Y-110967855D01*
X122404348Y-110967858D01*
X122377055Y-111069718D01*
X122377055Y-111175172D01*
X122377056Y-111175176D01*
X122377953Y-111181987D01*
X122367189Y-111251023D01*
X122342695Y-111285857D01*
X122128553Y-111499999D01*
X121950000Y-111499999D01*
X121950000Y-111465190D01*
X121923357Y-111400871D01*
X121874129Y-111351643D01*
X121809810Y-111325000D01*
X121740190Y-111325000D01*
X121675871Y-111351643D01*
X121626643Y-111400871D01*
X121600000Y-111465190D01*
X121386637Y-111465190D01*
X121137501Y-111216053D01*
X121137500Y-111216053D01*
X120853552Y-111500000D01*
X120675000Y-111500000D01*
X120675000Y-111465190D01*
X120648357Y-111400871D01*
X120599129Y-111351643D01*
X120534810Y-111325000D01*
X120465190Y-111325000D01*
X120400871Y-111351643D01*
X120351643Y-111400871D01*
X120325000Y-111465190D01*
X120111637Y-111465190D01*
X119862501Y-111216053D01*
X119862500Y-111216053D01*
X119578553Y-111500000D01*
X119400000Y-111500000D01*
X119400000Y-111465190D01*
X119373357Y-111400871D01*
X119324129Y-111351643D01*
X119259810Y-111325000D01*
X119190190Y-111325000D01*
X119125871Y-111351643D01*
X119076643Y-111400871D01*
X119050000Y-111465190D01*
X118836637Y-111465190D01*
X118546815Y-111175368D01*
X118489488Y-111185179D01*
X118455743Y-111266648D01*
X118455741Y-111266656D01*
X118425000Y-111421202D01*
X110261223Y-111421202D01*
X110292433Y-111367145D01*
X110326541Y-111239851D01*
X110326541Y-111108067D01*
X110292433Y-110980773D01*
X110226541Y-110866645D01*
X110133355Y-110773459D01*
X110052529Y-110726794D01*
X110019228Y-110707567D01*
X109946511Y-110688083D01*
X109891933Y-110673459D01*
X109760149Y-110673459D01*
X109632853Y-110707567D01*
X109518727Y-110773459D01*
X109518724Y-110773461D01*
X109425543Y-110866642D01*
X109425541Y-110866645D01*
X109359649Y-110980771D01*
X109341830Y-111047275D01*
X109325541Y-111108067D01*
X107356756Y-111108067D01*
X107315515Y-111036635D01*
X107208365Y-110929485D01*
X107118820Y-110877786D01*
X107077136Y-110853719D01*
X107003950Y-110834109D01*
X106930766Y-110814500D01*
X106779234Y-110814500D01*
X106632863Y-110853719D01*
X106501635Y-110929485D01*
X106501632Y-110929487D01*
X106394487Y-111036632D01*
X106394485Y-111036635D01*
X106318719Y-111167863D01*
X106279500Y-111314234D01*
X106279500Y-111465765D01*
X106318719Y-111612136D01*
X106339632Y-111648357D01*
X106394485Y-111743365D01*
X106501635Y-111850515D01*
X106501636Y-111850516D01*
X106501638Y-111850517D01*
X106624024Y-111921177D01*
X106672240Y-111971744D01*
X106685462Y-112040351D01*
X106659494Y-112105216D01*
X106605981Y-112143321D01*
X106606299Y-112144089D01*
X106602964Y-112145470D01*
X106602580Y-112145744D01*
X106601300Y-112146159D01*
X106473195Y-112199221D01*
X106473182Y-112199228D01*
X106358458Y-112275885D01*
X106358454Y-112275888D01*
X106260888Y-112373454D01*
X106260885Y-112373458D01*
X106184228Y-112488182D01*
X106184221Y-112488195D01*
X106131421Y-112615667D01*
X106131418Y-112615677D01*
X106104500Y-112751004D01*
X106104500Y-112751007D01*
X106104500Y-112888993D01*
X106104500Y-112888995D01*
X106104499Y-112888995D01*
X104175500Y-112888995D01*
X104175500Y-112751004D01*
X104148581Y-112615677D01*
X104148580Y-112615676D01*
X104148580Y-112615672D01*
X104148578Y-112615667D01*
X104095778Y-112488195D01*
X104095771Y-112488182D01*
X104019114Y-112373458D01*
X104019111Y-112373454D01*
X103921545Y-112275888D01*
X103921541Y-112275885D01*
X103806817Y-112199228D01*
X103806804Y-112199221D01*
X103679332Y-112146421D01*
X103679322Y-112146418D01*
X103543995Y-112119500D01*
X103543993Y-112119500D01*
X102806007Y-112119500D01*
X102806005Y-112119500D01*
X102670677Y-112146418D01*
X102670667Y-112146421D01*
X102543195Y-112199221D01*
X102543182Y-112199228D01*
X102428458Y-112275885D01*
X102428454Y-112275888D01*
X102330888Y-112373454D01*
X102330885Y-112373458D01*
X102254228Y-112488182D01*
X102254221Y-112488195D01*
X102201421Y-112615667D01*
X102201418Y-112615677D01*
X102174500Y-112751004D01*
X102174500Y-112751007D01*
X102174500Y-112888993D01*
X102174500Y-112888995D01*
X102174499Y-112888995D01*
X100500500Y-112888995D01*
X100500500Y-110497273D01*
X117999500Y-110497273D01*
X117999500Y-110602727D01*
X118022307Y-110687842D01*
X118026793Y-110704586D01*
X118026794Y-110704589D01*
X118030292Y-110710648D01*
X118079520Y-110795913D01*
X118154087Y-110870480D01*
X118245413Y-110923207D01*
X118347273Y-110950500D01*
X118347275Y-110950500D01*
X118390584Y-110950500D01*
X118452727Y-110950500D01*
X118554587Y-110923207D01*
X118633259Y-110877786D01*
X118956338Y-110877786D01*
X119225000Y-111146446D01*
X119225001Y-111146446D01*
X119508946Y-110862501D01*
X119508946Y-110862500D01*
X120216053Y-110862500D01*
X120500000Y-111146446D01*
X120500001Y-111146446D01*
X120783946Y-110862501D01*
X120783946Y-110862500D01*
X121491052Y-110862500D01*
X121775000Y-111146446D01*
X121775001Y-111146446D01*
X122058946Y-110862501D01*
X122058946Y-110862499D01*
X121775001Y-110578553D01*
X121775000Y-110578553D01*
X121491052Y-110862500D01*
X120783946Y-110862500D01*
X120783946Y-110862499D01*
X120500001Y-110578553D01*
X120500000Y-110578553D01*
X120216053Y-110862500D01*
X119508946Y-110862500D01*
X119508946Y-110862499D01*
X119225001Y-110578553D01*
X119225000Y-110578553D01*
X118993676Y-110809875D01*
X118956338Y-110877786D01*
X118633259Y-110877786D01*
X118645913Y-110870480D01*
X118720480Y-110795913D01*
X118773207Y-110704587D01*
X118800500Y-110602727D01*
X118800500Y-110497273D01*
X118776483Y-110407639D01*
X118778146Y-110337793D01*
X118784962Y-110320875D01*
X118845034Y-110198588D01*
X118836636Y-110190190D01*
X119050000Y-110190190D01*
X119050000Y-110259810D01*
X119076643Y-110324129D01*
X119125871Y-110373357D01*
X119190190Y-110400000D01*
X119259810Y-110400000D01*
X119324129Y-110373357D01*
X119373357Y-110324129D01*
X119400000Y-110259810D01*
X119400000Y-110225000D01*
X119578553Y-110225000D01*
X119862500Y-110508946D01*
X119862501Y-110508946D01*
X120146446Y-110225001D01*
X120146446Y-110224999D01*
X120111637Y-110190190D01*
X120325000Y-110190190D01*
X120325000Y-110259810D01*
X120351643Y-110324129D01*
X120400871Y-110373357D01*
X120465190Y-110400000D01*
X120534810Y-110400000D01*
X120599129Y-110373357D01*
X120648357Y-110324129D01*
X120675000Y-110259810D01*
X120675000Y-110225000D01*
X120853553Y-110225000D01*
X121137500Y-110508946D01*
X121137501Y-110508946D01*
X121421446Y-110225001D01*
X121421446Y-110224999D01*
X121386637Y-110190190D01*
X121600000Y-110190190D01*
X121600000Y-110259810D01*
X121626643Y-110324129D01*
X121675871Y-110373357D01*
X121740190Y-110400000D01*
X121809810Y-110400000D01*
X121874129Y-110373357D01*
X121923357Y-110324129D01*
X121950000Y-110259810D01*
X121950000Y-110224999D01*
X122128553Y-110224999D01*
X122128553Y-110225001D01*
X122465353Y-110561801D01*
X122511899Y-110536467D01*
X122525623Y-110503335D01*
X149237870Y-110503335D01*
X149237870Y-110608789D01*
X149265163Y-110710649D01*
X149317890Y-110801975D01*
X149392457Y-110876542D01*
X149483783Y-110929269D01*
X149585643Y-110956562D01*
X149585645Y-110956562D01*
X149699224Y-110956562D01*
X149699224Y-110959793D01*
X149753263Y-110968178D01*
X149805555Y-111014518D01*
X149824500Y-111080393D01*
X149824500Y-111152727D01*
X149851793Y-111254587D01*
X149904520Y-111345913D01*
X149979087Y-111420480D01*
X150070413Y-111473207D01*
X150172273Y-111500500D01*
X150172275Y-111500500D01*
X150277725Y-111500500D01*
X150277727Y-111500500D01*
X150379587Y-111473207D01*
X150470913Y-111420480D01*
X150545480Y-111345913D01*
X150598207Y-111254587D01*
X150625500Y-111152727D01*
X150625500Y-111047273D01*
X150598207Y-110945413D01*
X150545480Y-110854087D01*
X150470913Y-110779520D01*
X150379587Y-110726793D01*
X150277727Y-110699500D01*
X150172273Y-110699500D01*
X150164146Y-110699500D01*
X150164146Y-110696282D01*
X150110021Y-110687842D01*
X150057765Y-110641462D01*
X150038870Y-110575668D01*
X150038870Y-110503337D01*
X150038870Y-110503335D01*
X150011577Y-110401475D01*
X149958850Y-110310149D01*
X149884283Y-110235582D01*
X149792957Y-110182855D01*
X149691097Y-110155562D01*
X149585643Y-110155562D01*
X149483783Y-110182855D01*
X149483780Y-110182856D01*
X149392455Y-110235583D01*
X149317891Y-110310147D01*
X149265164Y-110401472D01*
X149265163Y-110401475D01*
X149237870Y-110503335D01*
X122525623Y-110503335D01*
X122544256Y-110458353D01*
X122544258Y-110458346D01*
X122574999Y-110303797D01*
X122575000Y-110303794D01*
X122575000Y-110146206D01*
X122574999Y-110146202D01*
X122544258Y-109991656D01*
X122544257Y-109991652D01*
X122490845Y-109862706D01*
X122128553Y-110224999D01*
X121950000Y-110224999D01*
X121950000Y-110190190D01*
X121923357Y-110125871D01*
X121874129Y-110076643D01*
X121809810Y-110050000D01*
X121740190Y-110050000D01*
X121675871Y-110076643D01*
X121626643Y-110125871D01*
X121600000Y-110190190D01*
X121386637Y-110190190D01*
X121137501Y-109941053D01*
X121137500Y-109941053D01*
X120853553Y-110225000D01*
X120675000Y-110225000D01*
X120675000Y-110190190D01*
X120648357Y-110125871D01*
X120599129Y-110076643D01*
X120534810Y-110050000D01*
X120465190Y-110050000D01*
X120400871Y-110076643D01*
X120351643Y-110125871D01*
X120325000Y-110190190D01*
X120111637Y-110190190D01*
X119862501Y-109941053D01*
X119862500Y-109941053D01*
X119578553Y-110225000D01*
X119400000Y-110225000D01*
X119400000Y-110190190D01*
X119373357Y-110125871D01*
X119324129Y-110076643D01*
X119259810Y-110050000D01*
X119190190Y-110050000D01*
X119125871Y-110076643D01*
X119076643Y-110125871D01*
X119050000Y-110190190D01*
X118836636Y-110190190D01*
X118509153Y-109862705D01*
X118455743Y-109991648D01*
X118455741Y-109991654D01*
X118443726Y-110052060D01*
X118411341Y-110113971D01*
X118354203Y-110147643D01*
X118245411Y-110176793D01*
X118245410Y-110176794D01*
X118154085Y-110229521D01*
X118079521Y-110304085D01*
X118026794Y-110395410D01*
X118026793Y-110395413D01*
X117999500Y-110497273D01*
X100500500Y-110497273D01*
X100500500Y-107359013D01*
X105874007Y-107359013D01*
X105874007Y-107464467D01*
X105901300Y-107566327D01*
X105937824Y-107629589D01*
X105954028Y-107657654D01*
X105991548Y-107695174D01*
X106025033Y-107756497D01*
X106020049Y-107826189D01*
X105991549Y-107870535D01*
X105956260Y-107905824D01*
X105903533Y-107997149D01*
X105903532Y-107997152D01*
X105876239Y-108099012D01*
X105876239Y-108204466D01*
X105903532Y-108306326D01*
X105956259Y-108397652D01*
X106030826Y-108472219D01*
X106122152Y-108524946D01*
X106224012Y-108552239D01*
X106224013Y-108552239D01*
X106229262Y-108552930D01*
X106293159Y-108581195D01*
X106331631Y-108639519D01*
X106332463Y-108709384D01*
X106295391Y-108768608D01*
X106232186Y-108798388D01*
X106229271Y-108798807D01*
X106224017Y-108799499D01*
X106224013Y-108799500D01*
X106224012Y-108799500D01*
X106122152Y-108826793D01*
X106122149Y-108826794D01*
X106030824Y-108879521D01*
X105956260Y-108954085D01*
X105903533Y-109045410D01*
X105903532Y-109045413D01*
X105876239Y-109147273D01*
X105876239Y-109252727D01*
X105903532Y-109354587D01*
X105956259Y-109445913D01*
X106030826Y-109520480D01*
X106122152Y-109573207D01*
X106224012Y-109600500D01*
X106224014Y-109600500D01*
X106329464Y-109600500D01*
X106329466Y-109600500D01*
X106431326Y-109573207D01*
X106522652Y-109520480D01*
X106533979Y-109509153D01*
X118862705Y-109509153D01*
X119225000Y-109871446D01*
X119225001Y-109871446D01*
X119587293Y-109509153D01*
X120137705Y-109509153D01*
X120500000Y-109871446D01*
X120500001Y-109871446D01*
X120862293Y-109509153D01*
X121412705Y-109509153D01*
X121775000Y-109871446D01*
X121775001Y-109871446D01*
X122137293Y-109509153D01*
X122008351Y-109455743D01*
X122008343Y-109455741D01*
X121853797Y-109425000D01*
X121696202Y-109425000D01*
X121541656Y-109455741D01*
X121541648Y-109455743D01*
X121412705Y-109509153D01*
X120862293Y-109509153D01*
X120733351Y-109455743D01*
X120733343Y-109455741D01*
X120578797Y-109425000D01*
X120421202Y-109425000D01*
X120266656Y-109455741D01*
X120266648Y-109455743D01*
X120137705Y-109509153D01*
X119587293Y-109509153D01*
X119458351Y-109455743D01*
X119458343Y-109455741D01*
X119303797Y-109425000D01*
X119146202Y-109425000D01*
X118991656Y-109455741D01*
X118991648Y-109455743D01*
X118862705Y-109509153D01*
X106533979Y-109509153D01*
X106597219Y-109445913D01*
X106649946Y-109354587D01*
X106677239Y-109252727D01*
X106677239Y-109222273D01*
X122424500Y-109222273D01*
X122424500Y-109327727D01*
X122451793Y-109429587D01*
X122504520Y-109520913D01*
X122579087Y-109595480D01*
X122670413Y-109648207D01*
X122772273Y-109675500D01*
X122772275Y-109675500D01*
X122877725Y-109675500D01*
X122877727Y-109675500D01*
X122979587Y-109648207D01*
X123070913Y-109595480D01*
X123145480Y-109520913D01*
X123198207Y-109429587D01*
X123225500Y-109327727D01*
X123225500Y-109222273D01*
X123198207Y-109120413D01*
X123145480Y-109029087D01*
X123070913Y-108954520D01*
X123058361Y-108947273D01*
X127374500Y-108947273D01*
X127374500Y-109052727D01*
X127401793Y-109154587D01*
X127454520Y-109245913D01*
X127529087Y-109320480D01*
X127620413Y-109373207D01*
X127722273Y-109400500D01*
X127722275Y-109400500D01*
X127827725Y-109400500D01*
X127827727Y-109400500D01*
X127929587Y-109373207D01*
X128020913Y-109320480D01*
X128095480Y-109245913D01*
X128148207Y-109154587D01*
X128175500Y-109052727D01*
X128175500Y-108947273D01*
X128148207Y-108845413D01*
X128134847Y-108822273D01*
X137674500Y-108822273D01*
X137674500Y-108927727D01*
X137701793Y-109029587D01*
X137754520Y-109120913D01*
X137829087Y-109195480D01*
X137920413Y-109248207D01*
X138022273Y-109275500D01*
X138022275Y-109275500D01*
X138127725Y-109275500D01*
X138127727Y-109275500D01*
X138229587Y-109248207D01*
X138320913Y-109195480D01*
X138395480Y-109120913D01*
X138448207Y-109029587D01*
X138475500Y-108927727D01*
X138475500Y-108822273D01*
X138448207Y-108720413D01*
X138395480Y-108629087D01*
X138320913Y-108554520D01*
X138234430Y-108504589D01*
X138229589Y-108501794D01*
X138229588Y-108501793D01*
X138229587Y-108501793D01*
X138127727Y-108474500D01*
X138022273Y-108474500D01*
X137920413Y-108501793D01*
X137920410Y-108501794D01*
X137829085Y-108554521D01*
X137754521Y-108629085D01*
X137701794Y-108720410D01*
X137701793Y-108720413D01*
X137674500Y-108822273D01*
X128134847Y-108822273D01*
X128095480Y-108754087D01*
X128078223Y-108736830D01*
X128070270Y-108723413D01*
X128065339Y-108704063D01*
X128055772Y-108686541D01*
X128056890Y-108670900D01*
X128053019Y-108655706D01*
X128059331Y-108636765D01*
X128060756Y-108616849D01*
X128070153Y-108604295D01*
X128075111Y-108589421D01*
X128090663Y-108576898D01*
X128102628Y-108560916D01*
X128114920Y-108552807D01*
X128170913Y-108520480D01*
X128245480Y-108445913D01*
X128298207Y-108354587D01*
X128325500Y-108252727D01*
X128325500Y-108147273D01*
X128298207Y-108045413D01*
X128245480Y-107954087D01*
X128170913Y-107879520D01*
X128097128Y-107836920D01*
X128079589Y-107826794D01*
X128079588Y-107826793D01*
X128079587Y-107826793D01*
X127977727Y-107799500D01*
X127872273Y-107799500D01*
X127770413Y-107826793D01*
X127770410Y-107826794D01*
X127679085Y-107879521D01*
X127604521Y-107954085D01*
X127551794Y-108045410D01*
X127551793Y-108045413D01*
X127524500Y-108147273D01*
X127524500Y-108252727D01*
X127551793Y-108354587D01*
X127594804Y-108429085D01*
X127604521Y-108445914D01*
X127610742Y-108452135D01*
X127644227Y-108513458D01*
X127639243Y-108583150D01*
X127597371Y-108639083D01*
X127585062Y-108647202D01*
X127529086Y-108679520D01*
X127454521Y-108754085D01*
X127401794Y-108845410D01*
X127401793Y-108845413D01*
X127374500Y-108947273D01*
X123058361Y-108947273D01*
X122979587Y-108901793D01*
X122877727Y-108874500D01*
X122772273Y-108874500D01*
X122670413Y-108901793D01*
X122670410Y-108901794D01*
X122579085Y-108954521D01*
X122504521Y-109029085D01*
X122451794Y-109120410D01*
X122451793Y-109120413D01*
X122424500Y-109222273D01*
X106677239Y-109222273D01*
X106677239Y-109199500D01*
X106696924Y-109132461D01*
X106749728Y-109086706D01*
X106801239Y-109075500D01*
X106852725Y-109075500D01*
X106852727Y-109075500D01*
X106954587Y-109048207D01*
X107045913Y-108995480D01*
X107120480Y-108920913D01*
X107173207Y-108829587D01*
X107200500Y-108727727D01*
X107200500Y-108622273D01*
X107173207Y-108520413D01*
X107120480Y-108429087D01*
X107045913Y-108354520D01*
X106962442Y-108306328D01*
X106954589Y-108301794D01*
X106954588Y-108301793D01*
X106954587Y-108301793D01*
X106852727Y-108274500D01*
X106801239Y-108274500D01*
X106734200Y-108254815D01*
X106688445Y-108202011D01*
X106677239Y-108150500D01*
X106677239Y-108099014D01*
X106677239Y-108099012D01*
X106649946Y-107997152D01*
X106597219Y-107905826D01*
X106559697Y-107868304D01*
X106526212Y-107806981D01*
X106531196Y-107737289D01*
X106559696Y-107692943D01*
X106594987Y-107657653D01*
X106647714Y-107566327D01*
X106675007Y-107464467D01*
X106675007Y-107359013D01*
X106647714Y-107257153D01*
X106594987Y-107165827D01*
X106520420Y-107091260D01*
X106429094Y-107038533D01*
X106327234Y-107011240D01*
X106221780Y-107011240D01*
X106119920Y-107038533D01*
X106119917Y-107038534D01*
X106028592Y-107091261D01*
X105954028Y-107165825D01*
X105901301Y-107257150D01*
X105901300Y-107257153D01*
X105874007Y-107359013D01*
X100500500Y-107359013D01*
X100500500Y-106803856D01*
X118189500Y-106803856D01*
X118189500Y-106896144D01*
X118197806Y-106927144D01*
X118213387Y-106985290D01*
X118213388Y-106985293D01*
X118259526Y-107065205D01*
X118259529Y-107065209D01*
X118259531Y-107065212D01*
X118324788Y-107130469D01*
X118324791Y-107130470D01*
X118324794Y-107130473D01*
X118404706Y-107176611D01*
X118404707Y-107176611D01*
X118404712Y-107176614D01*
X118493856Y-107200500D01*
X118493858Y-107200500D01*
X118586142Y-107200500D01*
X118586144Y-107200500D01*
X118675288Y-107176614D01*
X118755212Y-107130469D01*
X118820469Y-107065212D01*
X118866614Y-106985288D01*
X118890500Y-106896144D01*
X118890500Y-106803856D01*
X118870404Y-106728856D01*
X119449500Y-106728856D01*
X119449500Y-106821144D01*
X119469596Y-106896144D01*
X119473387Y-106910290D01*
X119473388Y-106910293D01*
X119519526Y-106990205D01*
X119519529Y-106990209D01*
X119519531Y-106990212D01*
X119584788Y-107055469D01*
X119584791Y-107055470D01*
X119584794Y-107055473D01*
X119664706Y-107101611D01*
X119664707Y-107101611D01*
X119664712Y-107101614D01*
X119753856Y-107125500D01*
X119753858Y-107125500D01*
X119846142Y-107125500D01*
X119846144Y-107125500D01*
X119935288Y-107101614D01*
X120015212Y-107055469D01*
X120073408Y-106997273D01*
X124749500Y-106997273D01*
X124749500Y-107102727D01*
X124776793Y-107204587D01*
X124829520Y-107295913D01*
X124904087Y-107370480D01*
X124995413Y-107423207D01*
X125097273Y-107450500D01*
X125097275Y-107450500D01*
X125202725Y-107450500D01*
X125202727Y-107450500D01*
X125300406Y-107424327D01*
X125370254Y-107425990D01*
X125428117Y-107465153D01*
X125455621Y-107529381D01*
X125456498Y-107544102D01*
X125456498Y-107604758D01*
X125483791Y-107706618D01*
X125535095Y-107795480D01*
X125536519Y-107797945D01*
X125575494Y-107836920D01*
X125608979Y-107898243D01*
X125603995Y-107967935D01*
X125562123Y-108023868D01*
X125557345Y-108027019D01*
X125554087Y-108029519D01*
X125479521Y-108104085D01*
X125426794Y-108195410D01*
X125426793Y-108195413D01*
X125399500Y-108297273D01*
X125399500Y-108402727D01*
X125426793Y-108504587D01*
X125479520Y-108595913D01*
X125554087Y-108670480D01*
X125645413Y-108723207D01*
X125747273Y-108750500D01*
X125747275Y-108750500D01*
X125852725Y-108750500D01*
X125852727Y-108750500D01*
X125954587Y-108723207D01*
X126045913Y-108670480D01*
X126120480Y-108595913D01*
X126173207Y-108504587D01*
X126200500Y-108402727D01*
X126200500Y-108297273D01*
X126173207Y-108195413D01*
X126120480Y-108104087D01*
X126081503Y-108065110D01*
X126048018Y-108003787D01*
X126053002Y-107934095D01*
X126094874Y-107878162D01*
X126099652Y-107875011D01*
X126102906Y-107872513D01*
X126102911Y-107872511D01*
X126177478Y-107797944D01*
X126230205Y-107706618D01*
X126257498Y-107604758D01*
X126257498Y-107499304D01*
X126230205Y-107397444D01*
X126215673Y-107372273D01*
X138574500Y-107372273D01*
X138574500Y-107477727D01*
X138601793Y-107579587D01*
X138654520Y-107670913D01*
X138729087Y-107745480D01*
X138820413Y-107798207D01*
X138922273Y-107825500D01*
X138922275Y-107825500D01*
X139027725Y-107825500D01*
X139027727Y-107825500D01*
X139129587Y-107798207D01*
X139220913Y-107745480D01*
X139295480Y-107670913D01*
X139348207Y-107579587D01*
X139375500Y-107477727D01*
X139375500Y-107422273D01*
X147449500Y-107422273D01*
X147449500Y-107527727D01*
X147476793Y-107629587D01*
X147529520Y-107720913D01*
X147604087Y-107795480D01*
X147695413Y-107848207D01*
X147797273Y-107875500D01*
X147797275Y-107875500D01*
X147902725Y-107875500D01*
X147902727Y-107875500D01*
X148004587Y-107848207D01*
X148095913Y-107795480D01*
X148170480Y-107720913D01*
X148223207Y-107629587D01*
X148250500Y-107527727D01*
X148250500Y-107422273D01*
X148223207Y-107320413D01*
X148170480Y-107229087D01*
X148095913Y-107154520D01*
X148009312Y-107104521D01*
X148004589Y-107101794D01*
X148004588Y-107101793D01*
X148004587Y-107101793D01*
X147902727Y-107074500D01*
X147797273Y-107074500D01*
X147695413Y-107101793D01*
X147695410Y-107101794D01*
X147604085Y-107154521D01*
X147529521Y-107229085D01*
X147476794Y-107320410D01*
X147476793Y-107320413D01*
X147449500Y-107422273D01*
X139375500Y-107422273D01*
X139375500Y-107372273D01*
X139348207Y-107270413D01*
X139295480Y-107179087D01*
X139220913Y-107104520D01*
X139129587Y-107051793D01*
X139027727Y-107024500D01*
X138922273Y-107024500D01*
X138820413Y-107051793D01*
X138820410Y-107051794D01*
X138729085Y-107104521D01*
X138654521Y-107179085D01*
X138601794Y-107270410D01*
X138601793Y-107270413D01*
X138574500Y-107372273D01*
X126215673Y-107372273D01*
X126177478Y-107306118D01*
X126102911Y-107231551D01*
X126011585Y-107178824D01*
X125909725Y-107151531D01*
X125804271Y-107151531D01*
X125804269Y-107151531D01*
X125706592Y-107177703D01*
X125636742Y-107176040D01*
X125578880Y-107136877D01*
X125551377Y-107072648D01*
X125550500Y-107057928D01*
X125550500Y-106997275D01*
X125550500Y-106997273D01*
X125523207Y-106895413D01*
X125470480Y-106804087D01*
X125395913Y-106729520D01*
X125304587Y-106676793D01*
X125202727Y-106649500D01*
X125097273Y-106649500D01*
X124995413Y-106676793D01*
X124995410Y-106676794D01*
X124904085Y-106729521D01*
X124829521Y-106804085D01*
X124776794Y-106895410D01*
X124776793Y-106895413D01*
X124749500Y-106997273D01*
X120073408Y-106997273D01*
X120080469Y-106990212D01*
X120126614Y-106910288D01*
X120150500Y-106821144D01*
X120150500Y-106728856D01*
X120126614Y-106639712D01*
X120123775Y-106634794D01*
X120080473Y-106559794D01*
X120080470Y-106559791D01*
X120080469Y-106559788D01*
X120015212Y-106494531D01*
X120015209Y-106494529D01*
X120015205Y-106494526D01*
X119935293Y-106448388D01*
X119935290Y-106448387D01*
X119935289Y-106448386D01*
X119935288Y-106448386D01*
X119846144Y-106424500D01*
X119753856Y-106424500D01*
X119664712Y-106448386D01*
X119664711Y-106448386D01*
X119664709Y-106448387D01*
X119664706Y-106448388D01*
X119584794Y-106494526D01*
X119584785Y-106494533D01*
X119519533Y-106559785D01*
X119519526Y-106559794D01*
X119473388Y-106639706D01*
X119473387Y-106639709D01*
X119473386Y-106639711D01*
X119473386Y-106639712D01*
X119449500Y-106728856D01*
X118870404Y-106728856D01*
X118866614Y-106714712D01*
X118844722Y-106676794D01*
X118820473Y-106634794D01*
X118820470Y-106634791D01*
X118820469Y-106634788D01*
X118755212Y-106569531D01*
X118755209Y-106569529D01*
X118755205Y-106569526D01*
X118675293Y-106523388D01*
X118675290Y-106523387D01*
X118675289Y-106523386D01*
X118675288Y-106523386D01*
X118586144Y-106499500D01*
X118493856Y-106499500D01*
X118404712Y-106523386D01*
X118404711Y-106523386D01*
X118404709Y-106523387D01*
X118404706Y-106523388D01*
X118324794Y-106569526D01*
X118324785Y-106569533D01*
X118259533Y-106634785D01*
X118259526Y-106634794D01*
X118213388Y-106714706D01*
X118213387Y-106714709D01*
X118213386Y-106714711D01*
X118213386Y-106714712D01*
X118189500Y-106803856D01*
X100500500Y-106803856D01*
X100500500Y-104248995D01*
X102174499Y-104248995D01*
X102201418Y-104384322D01*
X102201421Y-104384332D01*
X102254221Y-104511804D01*
X102254228Y-104511817D01*
X102330885Y-104626541D01*
X102330888Y-104626545D01*
X102428454Y-104724111D01*
X102428458Y-104724114D01*
X102543182Y-104800771D01*
X102543195Y-104800778D01*
X102612752Y-104829589D01*
X102670672Y-104853580D01*
X102670676Y-104853580D01*
X102670677Y-104853581D01*
X102806004Y-104880500D01*
X102806007Y-104880500D01*
X103543995Y-104880500D01*
X103667609Y-104855911D01*
X103679328Y-104853580D01*
X103806811Y-104800775D01*
X103921542Y-104724114D01*
X104019114Y-104626542D01*
X104095775Y-104511811D01*
X104148580Y-104384328D01*
X104164997Y-104301794D01*
X104175500Y-104248995D01*
X106104499Y-104248995D01*
X106131418Y-104384322D01*
X106131421Y-104384332D01*
X106184221Y-104511804D01*
X106184228Y-104511817D01*
X106260885Y-104626541D01*
X106260888Y-104626545D01*
X106358454Y-104724111D01*
X106358458Y-104724114D01*
X106473182Y-104800771D01*
X106473195Y-104800778D01*
X106606299Y-104855911D01*
X106605550Y-104857717D01*
X106656441Y-104891052D01*
X106684911Y-104954858D01*
X106674365Y-105023927D01*
X106628152Y-105076331D01*
X106624025Y-105078822D01*
X106501635Y-105149485D01*
X106501632Y-105149487D01*
X106394487Y-105256632D01*
X106394485Y-105256635D01*
X106318719Y-105387863D01*
X106279500Y-105534234D01*
X106279500Y-105685765D01*
X106318719Y-105832136D01*
X106329322Y-105850500D01*
X106394485Y-105963365D01*
X106501635Y-106070515D01*
X106632865Y-106146281D01*
X106779234Y-106185500D01*
X106779236Y-106185500D01*
X106930764Y-106185500D01*
X106930766Y-106185500D01*
X107077135Y-106146281D01*
X107208365Y-106070515D01*
X107315515Y-105963365D01*
X107391281Y-105832135D01*
X107430500Y-105685766D01*
X107430500Y-105534234D01*
X107396696Y-105408074D01*
X107396696Y-105408072D01*
X107391281Y-105387866D01*
X107391281Y-105387865D01*
X107389112Y-105384108D01*
X109099500Y-105384108D01*
X109099500Y-105515891D01*
X109133608Y-105643187D01*
X109166554Y-105700250D01*
X109199500Y-105757314D01*
X109292686Y-105850500D01*
X109406814Y-105916392D01*
X109534108Y-105950500D01*
X109534110Y-105950500D01*
X109665890Y-105950500D01*
X109665892Y-105950500D01*
X109677935Y-105947273D01*
X147499500Y-105947273D01*
X147499500Y-106052727D01*
X147526793Y-106154587D01*
X147579520Y-106245913D01*
X147654087Y-106320480D01*
X147745413Y-106373207D01*
X147847273Y-106400500D01*
X147847275Y-106400500D01*
X147952725Y-106400500D01*
X147952727Y-106400500D01*
X148054587Y-106373207D01*
X148145913Y-106320480D01*
X148220480Y-106245913D01*
X148273207Y-106154587D01*
X148300500Y-106052727D01*
X148300500Y-105947273D01*
X148273207Y-105845413D01*
X148220480Y-105754087D01*
X148145913Y-105679520D01*
X148054587Y-105626793D01*
X147952727Y-105599500D01*
X147847273Y-105599500D01*
X147745413Y-105626793D01*
X147745410Y-105626794D01*
X147654085Y-105679521D01*
X147579521Y-105754085D01*
X147526794Y-105845410D01*
X147526793Y-105845413D01*
X147499500Y-105947273D01*
X109677935Y-105947273D01*
X109793186Y-105916392D01*
X109907314Y-105850500D01*
X110000500Y-105757314D01*
X110066392Y-105643186D01*
X110100500Y-105515892D01*
X110100500Y-105384108D01*
X110066392Y-105256814D01*
X110000500Y-105142686D01*
X109907314Y-105049500D01*
X109813749Y-104995480D01*
X109793187Y-104983608D01*
X109729539Y-104966554D01*
X109665892Y-104949500D01*
X109534108Y-104949500D01*
X109406812Y-104983608D01*
X109292686Y-105049500D01*
X109292683Y-105049502D01*
X109199502Y-105142683D01*
X109199500Y-105142686D01*
X109133608Y-105256812D01*
X109099500Y-105384108D01*
X107389112Y-105384108D01*
X107315515Y-105256635D01*
X107208365Y-105149485D01*
X107208363Y-105149484D01*
X107208361Y-105149482D01*
X107143244Y-105111887D01*
X107095028Y-105061320D01*
X107081806Y-104992713D01*
X107107774Y-104927848D01*
X107164688Y-104887320D01*
X107205244Y-104880500D01*
X107973995Y-104880500D01*
X108097609Y-104855911D01*
X108109328Y-104853580D01*
X108236811Y-104800775D01*
X108351542Y-104724114D01*
X108449114Y-104626542D01*
X108451966Y-104622273D01*
X138174500Y-104622273D01*
X138174500Y-104727727D01*
X138201793Y-104829587D01*
X138254520Y-104920913D01*
X138329087Y-104995480D01*
X138420413Y-105048207D01*
X138522273Y-105075500D01*
X138522275Y-105075500D01*
X138627725Y-105075500D01*
X138627727Y-105075500D01*
X138729587Y-105048207D01*
X138820913Y-104995480D01*
X138895480Y-104920913D01*
X138948207Y-104829587D01*
X138975500Y-104727727D01*
X138975500Y-104622273D01*
X138948207Y-104520413D01*
X138895480Y-104429087D01*
X138820913Y-104354520D01*
X138729587Y-104301793D01*
X138627727Y-104274500D01*
X138522273Y-104274500D01*
X138420413Y-104301793D01*
X138420410Y-104301794D01*
X138329085Y-104354521D01*
X138254521Y-104429085D01*
X138201794Y-104520410D01*
X138201793Y-104520413D01*
X138174500Y-104622273D01*
X108451966Y-104622273D01*
X108477206Y-104584498D01*
X108503429Y-104545255D01*
X108525771Y-104511817D01*
X108525771Y-104511816D01*
X108525775Y-104511811D01*
X108578580Y-104384328D01*
X108594997Y-104301794D01*
X108605500Y-104248995D01*
X108605500Y-104111004D01*
X108578581Y-103975677D01*
X108578580Y-103975676D01*
X108578580Y-103975672D01*
X108578578Y-103975667D01*
X108525778Y-103848195D01*
X108525771Y-103848182D01*
X108449114Y-103733458D01*
X108449111Y-103733454D01*
X108351545Y-103635888D01*
X108351541Y-103635885D01*
X108236817Y-103559228D01*
X108236804Y-103559221D01*
X108109332Y-103506421D01*
X108109322Y-103506418D01*
X107973995Y-103479500D01*
X107973993Y-103479500D01*
X106736007Y-103479500D01*
X106736005Y-103479500D01*
X106600677Y-103506418D01*
X106600667Y-103506421D01*
X106473195Y-103559221D01*
X106473182Y-103559228D01*
X106358458Y-103635885D01*
X106358454Y-103635888D01*
X106260888Y-103733454D01*
X106260885Y-103733458D01*
X106184228Y-103848182D01*
X106184221Y-103848195D01*
X106131421Y-103975667D01*
X106131418Y-103975677D01*
X106104500Y-104111004D01*
X106104500Y-104111007D01*
X106104500Y-104248993D01*
X106104500Y-104248995D01*
X106104499Y-104248995D01*
X104175500Y-104248995D01*
X104175500Y-104111004D01*
X104148581Y-103975677D01*
X104148580Y-103975676D01*
X104148580Y-103975672D01*
X104148578Y-103975667D01*
X104095778Y-103848195D01*
X104095771Y-103848182D01*
X104019114Y-103733458D01*
X104019111Y-103733454D01*
X103921545Y-103635888D01*
X103921541Y-103635885D01*
X103806817Y-103559228D01*
X103806804Y-103559221D01*
X103679332Y-103506421D01*
X103679322Y-103506418D01*
X103543995Y-103479500D01*
X103543993Y-103479500D01*
X102806007Y-103479500D01*
X102806005Y-103479500D01*
X102670677Y-103506418D01*
X102670667Y-103506421D01*
X102543195Y-103559221D01*
X102543182Y-103559228D01*
X102428458Y-103635885D01*
X102428454Y-103635888D01*
X102330888Y-103733454D01*
X102330885Y-103733458D01*
X102254228Y-103848182D01*
X102254221Y-103848195D01*
X102201421Y-103975667D01*
X102201418Y-103975677D01*
X102174500Y-104111004D01*
X102174500Y-104111007D01*
X102174500Y-104248993D01*
X102174500Y-104248995D01*
X102174499Y-104248995D01*
X100500500Y-104248995D01*
X100500500Y-102234108D01*
X106899500Y-102234108D01*
X106899500Y-102365891D01*
X106933608Y-102493187D01*
X106966554Y-102550250D01*
X106999500Y-102607314D01*
X107092686Y-102700500D01*
X107206814Y-102766392D01*
X107334108Y-102800500D01*
X107334110Y-102800500D01*
X107465890Y-102800500D01*
X107465892Y-102800500D01*
X107593186Y-102766392D01*
X107707314Y-102700500D01*
X107800500Y-102607314D01*
X107864457Y-102496538D01*
X116975235Y-102496538D01*
X116975235Y-102601992D01*
X117002528Y-102703852D01*
X117055255Y-102795178D01*
X117129822Y-102869745D01*
X117221148Y-102922472D01*
X117323008Y-102949765D01*
X117323010Y-102949765D01*
X117428460Y-102949765D01*
X117428462Y-102949765D01*
X117530322Y-102922472D01*
X117621648Y-102869745D01*
X117696215Y-102795178D01*
X117748942Y-102703852D01*
X117776235Y-102601992D01*
X117776235Y-102496538D01*
X117748942Y-102394678D01*
X117696215Y-102303352D01*
X117621648Y-102228785D01*
X117530322Y-102176058D01*
X117428462Y-102148765D01*
X117323008Y-102148765D01*
X117221148Y-102176058D01*
X117221145Y-102176059D01*
X117129820Y-102228786D01*
X117055256Y-102303350D01*
X117002529Y-102394675D01*
X117002528Y-102394678D01*
X116975235Y-102496538D01*
X107864457Y-102496538D01*
X107866392Y-102493186D01*
X107900500Y-102365892D01*
X107900500Y-102234108D01*
X107866392Y-102106814D01*
X107860883Y-102097273D01*
X118874500Y-102097273D01*
X118874500Y-102202727D01*
X118901793Y-102304587D01*
X118954520Y-102395913D01*
X119029087Y-102470480D01*
X119120413Y-102523207D01*
X119222273Y-102550500D01*
X119222275Y-102550500D01*
X119327725Y-102550500D01*
X119327727Y-102550500D01*
X119429587Y-102523207D01*
X119520913Y-102470480D01*
X119595480Y-102395913D01*
X119648207Y-102304587D01*
X119675500Y-102202727D01*
X119675500Y-102097273D01*
X119648207Y-101995413D01*
X119595480Y-101904087D01*
X119520913Y-101829520D01*
X119434428Y-101779588D01*
X119429589Y-101776794D01*
X119429588Y-101776793D01*
X119429587Y-101776793D01*
X119327727Y-101749500D01*
X119222273Y-101749500D01*
X119120413Y-101776793D01*
X119120410Y-101776794D01*
X119029085Y-101829521D01*
X118954521Y-101904085D01*
X118901794Y-101995410D01*
X118901793Y-101995413D01*
X118874500Y-102097273D01*
X107860883Y-102097273D01*
X107857563Y-102091521D01*
X107800500Y-101992686D01*
X107707314Y-101899500D01*
X107650250Y-101866554D01*
X107593187Y-101833608D01*
X107529539Y-101816554D01*
X107465892Y-101799500D01*
X107334108Y-101799500D01*
X107206812Y-101833608D01*
X107092686Y-101899500D01*
X107092683Y-101899502D01*
X106999502Y-101992683D01*
X106999500Y-101992686D01*
X106933608Y-102106812D01*
X106899500Y-102234108D01*
X100500500Y-102234108D01*
X100500500Y-101572274D01*
X116318736Y-101572274D01*
X116318736Y-101677728D01*
X116346029Y-101779588D01*
X116398756Y-101870914D01*
X116473323Y-101945481D01*
X116564649Y-101998208D01*
X116666509Y-102025501D01*
X116666511Y-102025501D01*
X116771961Y-102025501D01*
X116771963Y-102025501D01*
X116873823Y-101998208D01*
X116965149Y-101945481D01*
X117039716Y-101870914D01*
X117092443Y-101779588D01*
X117119736Y-101677728D01*
X117119736Y-101572274D01*
X117092443Y-101470414D01*
X117039716Y-101379088D01*
X116965149Y-101304521D01*
X116873823Y-101251794D01*
X116771963Y-101224501D01*
X116666509Y-101224501D01*
X116564649Y-101251794D01*
X116564646Y-101251795D01*
X116473321Y-101304522D01*
X116398757Y-101379086D01*
X116346030Y-101470411D01*
X116346029Y-101470414D01*
X116318736Y-101572274D01*
X100500500Y-101572274D01*
X100500500Y-100713856D01*
X108639500Y-100713856D01*
X108639500Y-100806143D01*
X108663387Y-100895290D01*
X108663388Y-100895293D01*
X108709526Y-100975205D01*
X108709529Y-100975209D01*
X108709531Y-100975212D01*
X108774788Y-101040469D01*
X108774791Y-101040470D01*
X108774794Y-101040473D01*
X108854706Y-101086611D01*
X108854707Y-101086611D01*
X108854712Y-101086614D01*
X108943856Y-101110500D01*
X108943858Y-101110500D01*
X109036142Y-101110500D01*
X109036144Y-101110500D01*
X109125288Y-101086614D01*
X109205212Y-101040469D01*
X109270469Y-100975212D01*
X109316614Y-100895288D01*
X109340500Y-100806144D01*
X109340500Y-100713856D01*
X109316614Y-100624712D01*
X109302635Y-100600500D01*
X109270473Y-100544794D01*
X109270470Y-100544791D01*
X109270469Y-100544788D01*
X109205212Y-100479531D01*
X109205209Y-100479529D01*
X109205205Y-100479526D01*
X109125293Y-100433388D01*
X109125290Y-100433387D01*
X109125289Y-100433386D01*
X109125288Y-100433386D01*
X109036144Y-100409500D01*
X108943856Y-100409500D01*
X108854712Y-100433386D01*
X108854711Y-100433386D01*
X108854709Y-100433387D01*
X108854706Y-100433388D01*
X108774794Y-100479526D01*
X108774785Y-100479533D01*
X108709533Y-100544785D01*
X108709526Y-100544794D01*
X108663388Y-100624706D01*
X108663387Y-100624709D01*
X108663386Y-100624711D01*
X108663386Y-100624712D01*
X108649479Y-100676614D01*
X108639500Y-100713856D01*
X100500500Y-100713856D01*
X100500500Y-100203856D01*
X103249500Y-100203856D01*
X103249500Y-100296144D01*
X103251566Y-100303856D01*
X103273387Y-100385290D01*
X103273388Y-100385293D01*
X103319526Y-100465205D01*
X103319529Y-100465209D01*
X103319531Y-100465212D01*
X103384788Y-100530469D01*
X103384791Y-100530470D01*
X103384794Y-100530473D01*
X103464706Y-100576611D01*
X103464707Y-100576611D01*
X103464712Y-100576614D01*
X103553856Y-100600500D01*
X103553858Y-100600500D01*
X103646141Y-100600500D01*
X103646144Y-100600500D01*
X103735288Y-100576614D01*
X103815212Y-100530469D01*
X103880469Y-100465212D01*
X103926614Y-100385288D01*
X103948434Y-100303856D01*
X112959500Y-100303856D01*
X112959500Y-100396144D01*
X112981843Y-100479531D01*
X112983387Y-100485290D01*
X112983388Y-100485293D01*
X113029526Y-100565205D01*
X113029529Y-100565209D01*
X113029531Y-100565212D01*
X113094788Y-100630469D01*
X113094791Y-100630470D01*
X113094794Y-100630473D01*
X113174706Y-100676611D01*
X113174707Y-100676611D01*
X113174712Y-100676614D01*
X113263856Y-100700500D01*
X113263858Y-100700500D01*
X113356142Y-100700500D01*
X113356144Y-100700500D01*
X113445288Y-100676614D01*
X113525212Y-100630469D01*
X113590469Y-100565212D01*
X113636614Y-100485288D01*
X113660500Y-100396144D01*
X113660500Y-100303856D01*
X113636614Y-100214712D01*
X113636611Y-100214706D01*
X113590473Y-100134794D01*
X113590470Y-100134791D01*
X113590469Y-100134788D01*
X113525212Y-100069531D01*
X113525209Y-100069529D01*
X113525205Y-100069526D01*
X113445293Y-100023388D01*
X113445290Y-100023387D01*
X113445289Y-100023386D01*
X113445288Y-100023386D01*
X113356144Y-99999500D01*
X113263856Y-99999500D01*
X113174712Y-100023386D01*
X113174711Y-100023386D01*
X113174709Y-100023387D01*
X113174706Y-100023388D01*
X113094794Y-100069526D01*
X113094785Y-100069533D01*
X113029533Y-100134785D01*
X113029526Y-100134794D01*
X112983388Y-100214706D01*
X112983387Y-100214709D01*
X112983386Y-100214711D01*
X112983386Y-100214712D01*
X112959500Y-100303856D01*
X103948434Y-100303856D01*
X103950500Y-100296144D01*
X103950500Y-100203856D01*
X103926614Y-100114712D01*
X103926611Y-100114706D01*
X103880473Y-100034794D01*
X103880470Y-100034791D01*
X103880469Y-100034788D01*
X103815212Y-99969531D01*
X103815209Y-99969529D01*
X103815205Y-99969526D01*
X103735293Y-99923388D01*
X103735290Y-99923387D01*
X103735289Y-99923386D01*
X103735288Y-99923386D01*
X103646144Y-99899500D01*
X103553856Y-99899500D01*
X103464712Y-99923386D01*
X103464711Y-99923386D01*
X103464709Y-99923387D01*
X103464706Y-99923388D01*
X103384794Y-99969526D01*
X103384785Y-99969533D01*
X103319533Y-100034785D01*
X103319526Y-100034794D01*
X103273388Y-100114706D01*
X103273387Y-100114709D01*
X103273386Y-100114711D01*
X103273386Y-100114712D01*
X103249500Y-100203856D01*
X100500500Y-100203856D01*
X100500500Y-99607147D01*
X110324500Y-99607147D01*
X110324500Y-99692852D01*
X110346682Y-99775637D01*
X110346685Y-99775644D01*
X110389530Y-99849855D01*
X110389534Y-99849860D01*
X110389535Y-99849862D01*
X110450138Y-99910465D01*
X110450140Y-99910466D01*
X110450144Y-99910469D01*
X110472521Y-99923388D01*
X110524362Y-99953318D01*
X110607147Y-99975500D01*
X110607149Y-99975500D01*
X110692851Y-99975500D01*
X110692853Y-99975500D01*
X110775638Y-99953318D01*
X110849862Y-99910465D01*
X110910465Y-99849862D01*
X110953318Y-99775638D01*
X110975500Y-99692853D01*
X110975500Y-99607147D01*
X110953318Y-99524362D01*
X110953314Y-99524355D01*
X110910469Y-99450144D01*
X110910463Y-99450136D01*
X110849863Y-99389536D01*
X110849855Y-99389530D01*
X110775644Y-99346685D01*
X110775640Y-99346683D01*
X110775638Y-99346682D01*
X110692853Y-99324500D01*
X110607147Y-99324500D01*
X110524362Y-99346682D01*
X110524355Y-99346685D01*
X110450144Y-99389530D01*
X110450136Y-99389536D01*
X110389536Y-99450136D01*
X110389530Y-99450144D01*
X110346685Y-99524355D01*
X110346682Y-99524362D01*
X110324500Y-99607147D01*
X100500500Y-99607147D01*
X100500500Y-98166356D01*
X107212000Y-98166356D01*
X107212000Y-98258644D01*
X107218342Y-98282314D01*
X107235887Y-98347790D01*
X107235888Y-98347793D01*
X107282026Y-98427705D01*
X107282029Y-98427709D01*
X107282031Y-98427712D01*
X107347288Y-98492969D01*
X107347291Y-98492970D01*
X107347294Y-98492973D01*
X107427206Y-98539111D01*
X107427207Y-98539111D01*
X107427212Y-98539114D01*
X107516356Y-98563000D01*
X107516358Y-98563000D01*
X107608642Y-98563000D01*
X107608644Y-98563000D01*
X107697788Y-98539114D01*
X107777712Y-98492969D01*
X107842969Y-98427712D01*
X107889114Y-98347788D01*
X107913000Y-98258644D01*
X107913000Y-98166356D01*
X107889114Y-98077212D01*
X107889111Y-98077206D01*
X107842973Y-97997294D01*
X107842970Y-97997291D01*
X107842969Y-97997288D01*
X107777712Y-97932031D01*
X107777711Y-97932030D01*
X107777709Y-97932029D01*
X107697793Y-97885888D01*
X107697790Y-97885887D01*
X107697789Y-97885886D01*
X107697788Y-97885886D01*
X107608644Y-97862000D01*
X107516356Y-97862000D01*
X107427212Y-97885886D01*
X107427211Y-97885886D01*
X107427209Y-97885887D01*
X107427206Y-97885888D01*
X107347294Y-97932026D01*
X107347285Y-97932033D01*
X107282033Y-97997285D01*
X107282026Y-97997294D01*
X107235888Y-98077206D01*
X107235887Y-98077209D01*
X107235886Y-98077211D01*
X107235886Y-98077212D01*
X107212000Y-98166356D01*
X100500500Y-98166356D01*
X100500500Y-97843856D01*
X108339500Y-97843856D01*
X108339500Y-97936144D01*
X108355883Y-97997288D01*
X108363387Y-98025290D01*
X108363388Y-98025293D01*
X108409526Y-98105205D01*
X108409529Y-98105209D01*
X108409531Y-98105212D01*
X108474788Y-98170469D01*
X108474791Y-98170470D01*
X108474794Y-98170473D01*
X108554706Y-98216611D01*
X108554707Y-98216611D01*
X108554712Y-98216614D01*
X108643856Y-98240500D01*
X108643858Y-98240500D01*
X108736142Y-98240500D01*
X108736144Y-98240500D01*
X108825288Y-98216614D01*
X108905212Y-98170469D01*
X108970469Y-98105212D01*
X109016614Y-98025288D01*
X109040500Y-97936144D01*
X109040500Y-97843856D01*
X109016614Y-97754712D01*
X109006795Y-97737705D01*
X108970473Y-97674794D01*
X108970470Y-97674791D01*
X108970469Y-97674788D01*
X108905212Y-97609531D01*
X108842482Y-97573313D01*
X108825290Y-97563386D01*
X108765858Y-97547462D01*
X108736144Y-97539500D01*
X108643856Y-97539500D01*
X108554712Y-97563386D01*
X108554711Y-97563386D01*
X108554709Y-97563387D01*
X108554706Y-97563388D01*
X108474794Y-97609526D01*
X108474785Y-97609533D01*
X108409533Y-97674785D01*
X108409526Y-97674794D01*
X108363388Y-97754706D01*
X108363387Y-97754709D01*
X108363386Y-97754711D01*
X108363386Y-97754712D01*
X108339500Y-97843856D01*
X100500500Y-97843856D01*
X100500500Y-97476356D01*
X109297000Y-97476356D01*
X109297000Y-97568644D01*
X109310462Y-97618886D01*
X109320887Y-97657790D01*
X109320888Y-97657793D01*
X109367026Y-97737705D01*
X109367029Y-97737709D01*
X109367031Y-97737712D01*
X109432288Y-97802969D01*
X109432291Y-97802970D01*
X109432294Y-97802973D01*
X109512206Y-97849111D01*
X109512207Y-97849111D01*
X109512212Y-97849114D01*
X109601356Y-97873000D01*
X109601358Y-97873000D01*
X109693642Y-97873000D01*
X109693644Y-97873000D01*
X109782788Y-97849114D01*
X109862712Y-97802969D01*
X109927969Y-97737712D01*
X109973352Y-97659108D01*
X112874500Y-97659108D01*
X112874500Y-97790891D01*
X112908608Y-97918187D01*
X112918976Y-97936144D01*
X112974500Y-98032314D01*
X113067686Y-98125500D01*
X113181814Y-98191392D01*
X113309108Y-98225500D01*
X113309110Y-98225500D01*
X113440890Y-98225500D01*
X113440892Y-98225500D01*
X113568186Y-98191392D01*
X113682314Y-98125500D01*
X113775500Y-98032314D01*
X113841392Y-97918186D01*
X113875500Y-97790892D01*
X113875500Y-97659108D01*
X113841392Y-97531814D01*
X113775500Y-97417686D01*
X113682314Y-97324500D01*
X113682312Y-97324499D01*
X113682310Y-97324497D01*
X113565206Y-97256887D01*
X113516990Y-97206320D01*
X113503768Y-97137713D01*
X113529736Y-97072848D01*
X113586650Y-97032320D01*
X113627206Y-97025500D01*
X113640890Y-97025500D01*
X113640892Y-97025500D01*
X113768186Y-96991392D01*
X113882314Y-96925500D01*
X113898706Y-96909108D01*
X114924500Y-96909108D01*
X114924500Y-97040891D01*
X114958608Y-97168187D01*
X114974601Y-97195887D01*
X115024500Y-97282314D01*
X115117686Y-97375500D01*
X115119741Y-97376686D01*
X115121128Y-97378140D01*
X115124135Y-97380448D01*
X115123775Y-97380916D01*
X115167958Y-97427248D01*
X115181186Y-97495854D01*
X115155223Y-97560721D01*
X115145429Y-97571757D01*
X115049500Y-97667686D01*
X114983608Y-97781812D01*
X114949500Y-97909108D01*
X114949500Y-98040891D01*
X114983608Y-98168187D01*
X114984924Y-98170466D01*
X115049500Y-98282314D01*
X115142686Y-98375500D01*
X115256814Y-98441392D01*
X115384108Y-98475500D01*
X115384110Y-98475500D01*
X115515890Y-98475500D01*
X115515892Y-98475500D01*
X115643186Y-98441392D01*
X115757314Y-98375500D01*
X115850500Y-98282314D01*
X115916392Y-98168186D01*
X115950500Y-98040892D01*
X115950500Y-97909108D01*
X115916392Y-97781814D01*
X115850500Y-97667686D01*
X115757314Y-97574500D01*
X115755253Y-97573310D01*
X115753864Y-97571853D01*
X115750865Y-97569552D01*
X115751223Y-97569084D01*
X115707039Y-97522747D01*
X115693813Y-97454141D01*
X115719778Y-97389275D01*
X115729571Y-97378241D01*
X115732309Y-97375502D01*
X115732314Y-97375500D01*
X115825500Y-97282314D01*
X115891392Y-97168186D01*
X115925500Y-97040892D01*
X115925500Y-96909108D01*
X115891392Y-96781814D01*
X115825500Y-96667686D01*
X115732314Y-96574500D01*
X115675250Y-96541554D01*
X115618187Y-96508608D01*
X115554539Y-96491554D01*
X115490892Y-96474500D01*
X115359108Y-96474500D01*
X115231812Y-96508608D01*
X115117686Y-96574500D01*
X115117683Y-96574502D01*
X115024502Y-96667683D01*
X115024500Y-96667686D01*
X114958608Y-96781812D01*
X114924500Y-96909108D01*
X113898706Y-96909108D01*
X113975500Y-96832314D01*
X114041392Y-96718186D01*
X114075500Y-96590892D01*
X114075500Y-96459108D01*
X114041392Y-96331814D01*
X113975500Y-96217686D01*
X113882314Y-96124500D01*
X113825250Y-96091554D01*
X113768187Y-96058608D01*
X113704539Y-96041554D01*
X113640892Y-96024500D01*
X113509108Y-96024500D01*
X113381812Y-96058608D01*
X113267686Y-96124500D01*
X113267683Y-96124502D01*
X113174502Y-96217683D01*
X113174500Y-96217686D01*
X113108608Y-96331812D01*
X113074500Y-96459108D01*
X113074500Y-96590891D01*
X113108608Y-96718187D01*
X113141554Y-96775250D01*
X113174500Y-96832314D01*
X113267686Y-96925500D01*
X113267687Y-96925501D01*
X113267689Y-96925502D01*
X113384794Y-96993113D01*
X113433010Y-97043680D01*
X113446232Y-97112287D01*
X113420264Y-97177152D01*
X113363350Y-97217680D01*
X113322794Y-97224500D01*
X113309108Y-97224500D01*
X113181812Y-97258608D01*
X113067686Y-97324500D01*
X113067683Y-97324502D01*
X112974502Y-97417683D01*
X112974500Y-97417686D01*
X112908608Y-97531812D01*
X112874500Y-97659108D01*
X109973352Y-97659108D01*
X109974114Y-97657788D01*
X109998000Y-97568644D01*
X109998000Y-97476356D01*
X109974114Y-97387212D01*
X109970209Y-97380448D01*
X109927973Y-97307294D01*
X109927970Y-97307291D01*
X109927969Y-97307288D01*
X109862712Y-97242031D01*
X109862709Y-97242029D01*
X109862705Y-97242026D01*
X109782793Y-97195888D01*
X109782790Y-97195887D01*
X109782789Y-97195886D01*
X109782788Y-97195886D01*
X109693644Y-97172000D01*
X109601356Y-97172000D01*
X109512212Y-97195886D01*
X109512211Y-97195886D01*
X109512209Y-97195887D01*
X109512206Y-97195888D01*
X109432294Y-97242026D01*
X109432285Y-97242033D01*
X109367033Y-97307285D01*
X109367026Y-97307294D01*
X109320888Y-97387206D01*
X109320887Y-97387209D01*
X109320886Y-97387211D01*
X109320886Y-97387212D01*
X109297000Y-97476356D01*
X100500500Y-97476356D01*
X100500500Y-94888995D01*
X102174499Y-94888995D01*
X102201418Y-95024322D01*
X102201421Y-95024332D01*
X102254221Y-95151804D01*
X102254228Y-95151817D01*
X102330885Y-95266541D01*
X102330888Y-95266545D01*
X102428454Y-95364111D01*
X102428458Y-95364114D01*
X102543182Y-95440771D01*
X102543195Y-95440778D01*
X102670667Y-95493578D01*
X102670672Y-95493580D01*
X102670676Y-95493580D01*
X102670677Y-95493581D01*
X102806004Y-95520500D01*
X102806007Y-95520500D01*
X103543995Y-95520500D01*
X103644544Y-95500499D01*
X103679328Y-95493580D01*
X103806811Y-95440775D01*
X103921542Y-95364114D01*
X104019114Y-95266542D01*
X104095775Y-95151811D01*
X104148580Y-95024328D01*
X104166391Y-94934788D01*
X104175500Y-94888995D01*
X106104499Y-94888995D01*
X106131418Y-95024322D01*
X106131421Y-95024332D01*
X106184221Y-95151804D01*
X106184228Y-95151817D01*
X106260885Y-95266541D01*
X106260888Y-95266545D01*
X106358454Y-95364111D01*
X106358458Y-95364114D01*
X106473182Y-95440771D01*
X106473195Y-95440778D01*
X106600667Y-95493578D01*
X106600672Y-95493580D01*
X106600676Y-95493580D01*
X106600677Y-95493581D01*
X106736004Y-95520500D01*
X106736007Y-95520500D01*
X107973995Y-95520500D01*
X108074544Y-95500499D01*
X108109328Y-95493580D01*
X108236811Y-95440775D01*
X108351542Y-95364114D01*
X108449114Y-95266542D01*
X108525775Y-95151811D01*
X108578580Y-95024328D01*
X108596391Y-94934788D01*
X108605500Y-94888995D01*
X108605500Y-94751004D01*
X108578581Y-94615677D01*
X108578580Y-94615676D01*
X108578580Y-94615672D01*
X108562863Y-94577727D01*
X108525778Y-94488195D01*
X108525771Y-94488182D01*
X108449114Y-94373458D01*
X108449111Y-94373454D01*
X108351545Y-94275888D01*
X108351541Y-94275885D01*
X108345386Y-94271772D01*
X109511836Y-94271772D01*
X109511836Y-94403555D01*
X109545944Y-94530851D01*
X109578890Y-94587914D01*
X109611836Y-94644978D01*
X109705022Y-94738164D01*
X109819150Y-94804056D01*
X109946444Y-94838164D01*
X109946446Y-94838164D01*
X110078226Y-94838164D01*
X110078228Y-94838164D01*
X110205522Y-94804056D01*
X110305025Y-94746608D01*
X112187000Y-94746608D01*
X112187000Y-94878392D01*
X112202110Y-94934785D01*
X112221108Y-95005687D01*
X112231871Y-95024328D01*
X112287000Y-95119814D01*
X112380186Y-95213000D01*
X112494314Y-95278892D01*
X112621608Y-95313000D01*
X112621610Y-95313000D01*
X112753390Y-95313000D01*
X112753392Y-95313000D01*
X112814568Y-95296608D01*
X113812000Y-95296608D01*
X113812000Y-95428391D01*
X113846108Y-95555687D01*
X113852000Y-95565892D01*
X113912000Y-95669814D01*
X114005186Y-95763000D01*
X114119314Y-95828892D01*
X114246608Y-95863000D01*
X114246610Y-95863000D01*
X114378390Y-95863000D01*
X114378392Y-95863000D01*
X114505686Y-95828892D01*
X114619814Y-95763000D01*
X114713000Y-95669814D01*
X114778892Y-95555686D01*
X114811468Y-95434108D01*
X115874500Y-95434108D01*
X115874500Y-95565891D01*
X115908608Y-95693187D01*
X115941554Y-95750250D01*
X115974500Y-95807314D01*
X116067686Y-95900500D01*
X116181814Y-95966392D01*
X116309108Y-96000500D01*
X116309110Y-96000500D01*
X116440890Y-96000500D01*
X116440892Y-96000500D01*
X116568186Y-95966392D01*
X116682314Y-95900500D01*
X116775500Y-95807314D01*
X116817766Y-95734108D01*
X117694514Y-95734108D01*
X117694514Y-95865891D01*
X117728622Y-95993187D01*
X117746701Y-96024500D01*
X117794514Y-96107314D01*
X117887700Y-96200500D01*
X118001828Y-96266392D01*
X118129122Y-96300500D01*
X118129124Y-96300500D01*
X118260904Y-96300500D01*
X118260906Y-96300500D01*
X118388200Y-96266392D01*
X118502328Y-96200500D01*
X118595514Y-96107314D01*
X118661406Y-95993186D01*
X118695514Y-95865892D01*
X118695514Y-95734108D01*
X118661406Y-95606814D01*
X118645264Y-95578856D01*
X122549500Y-95578856D01*
X122549500Y-95671144D01*
X122566371Y-95734108D01*
X122573387Y-95760290D01*
X122573388Y-95760293D01*
X122619526Y-95840205D01*
X122619529Y-95840209D01*
X122619531Y-95840212D01*
X122684788Y-95905469D01*
X122684791Y-95905470D01*
X122684794Y-95905473D01*
X122764706Y-95951611D01*
X122764707Y-95951611D01*
X122764712Y-95951614D01*
X122853856Y-95975500D01*
X122853858Y-95975500D01*
X122946142Y-95975500D01*
X122946144Y-95975500D01*
X123035288Y-95951614D01*
X123115212Y-95905469D01*
X123180469Y-95840212D01*
X123226614Y-95760288D01*
X123250500Y-95671144D01*
X123250500Y-95578856D01*
X123226614Y-95489712D01*
X123211390Y-95463343D01*
X123180473Y-95409794D01*
X123180470Y-95409791D01*
X123180469Y-95409788D01*
X123115212Y-95344531D01*
X123115209Y-95344529D01*
X123115205Y-95344526D01*
X123035293Y-95298388D01*
X123035290Y-95298387D01*
X123035289Y-95298386D01*
X123035288Y-95298386D01*
X122946144Y-95274500D01*
X122853856Y-95274500D01*
X122764712Y-95298386D01*
X122764711Y-95298386D01*
X122764709Y-95298387D01*
X122764706Y-95298388D01*
X122684794Y-95344526D01*
X122684785Y-95344533D01*
X122619533Y-95409785D01*
X122619526Y-95409794D01*
X122573388Y-95489706D01*
X122573387Y-95489709D01*
X122573386Y-95489711D01*
X122573386Y-95489712D01*
X122549500Y-95578856D01*
X118645264Y-95578856D01*
X118595514Y-95492686D01*
X118502328Y-95399500D01*
X118442940Y-95365212D01*
X118388201Y-95333608D01*
X118288202Y-95306814D01*
X118260906Y-95299500D01*
X118129122Y-95299500D01*
X118001826Y-95333608D01*
X117887700Y-95399500D01*
X117887697Y-95399502D01*
X117794516Y-95492683D01*
X117794514Y-95492686D01*
X117728622Y-95606812D01*
X117694514Y-95734108D01*
X116817766Y-95734108D01*
X116841392Y-95693186D01*
X116875500Y-95565892D01*
X116875500Y-95434108D01*
X116841392Y-95306814D01*
X116775500Y-95192686D01*
X116686670Y-95103856D01*
X121474500Y-95103856D01*
X121474500Y-95196144D01*
X121496672Y-95278892D01*
X121498387Y-95285290D01*
X121498388Y-95285293D01*
X121544526Y-95365205D01*
X121544529Y-95365209D01*
X121544531Y-95365212D01*
X121609788Y-95430469D01*
X121609791Y-95430470D01*
X121609794Y-95430473D01*
X121689706Y-95476611D01*
X121689707Y-95476611D01*
X121689712Y-95476614D01*
X121778856Y-95500500D01*
X121778858Y-95500500D01*
X121871142Y-95500500D01*
X121871144Y-95500500D01*
X121960288Y-95476614D01*
X121963150Y-95474961D01*
X121983275Y-95463343D01*
X122040205Y-95430473D01*
X122040204Y-95430473D01*
X122040212Y-95430469D01*
X122105469Y-95365212D01*
X122151614Y-95285288D01*
X122175500Y-95196144D01*
X122175500Y-95103856D01*
X122151614Y-95014712D01*
X122151611Y-95014706D01*
X122105473Y-94934794D01*
X122105470Y-94934791D01*
X122105469Y-94934788D01*
X122040212Y-94869531D01*
X122040209Y-94869529D01*
X122040205Y-94869526D01*
X121960293Y-94823388D01*
X121960290Y-94823387D01*
X121960289Y-94823386D01*
X121960288Y-94823386D01*
X121871144Y-94799500D01*
X121778856Y-94799500D01*
X121689712Y-94823386D01*
X121689711Y-94823386D01*
X121689709Y-94823387D01*
X121689706Y-94823388D01*
X121609794Y-94869526D01*
X121609785Y-94869533D01*
X121544533Y-94934785D01*
X121544526Y-94934794D01*
X121498388Y-95014706D01*
X121498387Y-95014709D01*
X121498386Y-95014711D01*
X121498386Y-95014712D01*
X121474500Y-95103856D01*
X116686670Y-95103856D01*
X116682314Y-95099500D01*
X116605555Y-95055183D01*
X116568187Y-95033608D01*
X116463982Y-95005687D01*
X116440892Y-94999500D01*
X116309108Y-94999500D01*
X116181812Y-95033608D01*
X116067686Y-95099500D01*
X116067683Y-95099502D01*
X115974502Y-95192683D01*
X115974500Y-95192686D01*
X115908608Y-95306812D01*
X115874500Y-95434108D01*
X114811468Y-95434108D01*
X114813000Y-95428392D01*
X114813000Y-95296608D01*
X114778892Y-95169314D01*
X114713000Y-95055186D01*
X114619814Y-94962000D01*
X114556593Y-94925499D01*
X114505687Y-94896108D01*
X114439561Y-94878390D01*
X114378392Y-94862000D01*
X114246608Y-94862000D01*
X114119312Y-94896108D01*
X114005186Y-94962000D01*
X114005183Y-94962002D01*
X113912002Y-95055183D01*
X113912000Y-95055186D01*
X113846108Y-95169312D01*
X113812000Y-95296608D01*
X112814568Y-95296608D01*
X112880686Y-95278892D01*
X112994814Y-95213000D01*
X113088000Y-95119814D01*
X113153892Y-95005686D01*
X113188000Y-94878392D01*
X113188000Y-94746608D01*
X113153892Y-94619314D01*
X113151786Y-94615667D01*
X113145769Y-94605245D01*
X113088000Y-94505186D01*
X113055087Y-94472273D01*
X144649500Y-94472273D01*
X144649500Y-94577727D01*
X144676793Y-94679587D01*
X144729520Y-94770913D01*
X144804087Y-94845480D01*
X144895413Y-94898207D01*
X144997273Y-94925500D01*
X144997275Y-94925500D01*
X145102725Y-94925500D01*
X145102727Y-94925500D01*
X145204587Y-94898207D01*
X145295913Y-94845480D01*
X145370480Y-94770913D01*
X145423207Y-94679587D01*
X145450500Y-94577727D01*
X145450500Y-94472273D01*
X145423207Y-94370413D01*
X145370480Y-94279087D01*
X145295913Y-94204520D01*
X145204587Y-94151793D01*
X145102727Y-94124500D01*
X144997273Y-94124500D01*
X144895413Y-94151793D01*
X144895410Y-94151794D01*
X144804085Y-94204521D01*
X144729521Y-94279085D01*
X144676794Y-94370410D01*
X144676793Y-94370413D01*
X144649500Y-94472273D01*
X113055087Y-94472273D01*
X112994814Y-94412000D01*
X112937750Y-94379054D01*
X112880687Y-94346108D01*
X112817039Y-94329054D01*
X112753392Y-94312000D01*
X112621608Y-94312000D01*
X112494312Y-94346108D01*
X112380186Y-94412000D01*
X112380183Y-94412002D01*
X112287002Y-94505183D01*
X112287000Y-94505186D01*
X112221108Y-94619312D01*
X112189263Y-94738161D01*
X112187000Y-94746608D01*
X110305025Y-94746608D01*
X110319650Y-94738164D01*
X110412836Y-94644978D01*
X110478728Y-94530850D01*
X110512836Y-94403556D01*
X110512836Y-94271772D01*
X110478728Y-94144478D01*
X110478503Y-94144089D01*
X110456060Y-94105216D01*
X110412836Y-94030350D01*
X110319650Y-93937164D01*
X110261959Y-93903856D01*
X136359500Y-93903856D01*
X136359500Y-93996144D01*
X136371345Y-94040351D01*
X136383387Y-94085290D01*
X136383388Y-94085293D01*
X136429526Y-94165205D01*
X136429529Y-94165209D01*
X136429531Y-94165212D01*
X136494788Y-94230469D01*
X136494791Y-94230470D01*
X136494794Y-94230473D01*
X136574706Y-94276611D01*
X136574707Y-94276611D01*
X136574712Y-94276614D01*
X136663856Y-94300500D01*
X136663858Y-94300500D01*
X136756142Y-94300500D01*
X136756144Y-94300500D01*
X136845288Y-94276614D01*
X136925212Y-94230469D01*
X136990469Y-94165212D01*
X137036614Y-94085288D01*
X137060500Y-93996144D01*
X137060500Y-93903856D01*
X137036614Y-93814712D01*
X137036611Y-93814706D01*
X136990473Y-93734794D01*
X136990470Y-93734791D01*
X136990469Y-93734788D01*
X136925212Y-93669531D01*
X136925209Y-93669529D01*
X136925205Y-93669526D01*
X136845293Y-93623388D01*
X136845290Y-93623387D01*
X136845289Y-93623386D01*
X136845288Y-93623386D01*
X136756144Y-93599500D01*
X136663856Y-93599500D01*
X136574712Y-93623386D01*
X136574711Y-93623386D01*
X136574709Y-93623387D01*
X136574706Y-93623388D01*
X136494794Y-93669526D01*
X136494785Y-93669533D01*
X136429533Y-93734785D01*
X136429526Y-93734794D01*
X136383388Y-93814706D01*
X136383387Y-93814709D01*
X136383386Y-93814711D01*
X136383386Y-93814712D01*
X136359500Y-93903856D01*
X110261959Y-93903856D01*
X110205523Y-93871272D01*
X110141875Y-93854218D01*
X110078228Y-93837164D01*
X109946444Y-93837164D01*
X109819148Y-93871272D01*
X109705022Y-93937164D01*
X109705019Y-93937166D01*
X109611838Y-94030347D01*
X109611836Y-94030350D01*
X109545944Y-94144476D01*
X109511836Y-94271772D01*
X108345386Y-94271772D01*
X108236817Y-94199228D01*
X108236804Y-94199221D01*
X108109332Y-94146421D01*
X108109322Y-94146418D01*
X107973995Y-94119500D01*
X107973993Y-94119500D01*
X107205244Y-94119500D01*
X107138205Y-94099815D01*
X107092450Y-94047011D01*
X107082506Y-93977853D01*
X107111531Y-93914297D01*
X107143244Y-93888113D01*
X107172413Y-93871272D01*
X107208365Y-93850515D01*
X107315515Y-93743365D01*
X107391281Y-93612135D01*
X107430500Y-93465766D01*
X107430500Y-93453856D01*
X129624500Y-93453856D01*
X129624500Y-93546144D01*
X129645197Y-93623388D01*
X129648387Y-93635290D01*
X129648388Y-93635293D01*
X129694526Y-93715205D01*
X129694529Y-93715209D01*
X129694531Y-93715212D01*
X129759788Y-93780469D01*
X129759791Y-93780470D01*
X129759794Y-93780473D01*
X129839706Y-93826611D01*
X129839707Y-93826611D01*
X129839712Y-93826614D01*
X129928856Y-93850500D01*
X129928858Y-93850500D01*
X130021142Y-93850500D01*
X130021144Y-93850500D01*
X130110288Y-93826614D01*
X130190212Y-93780469D01*
X130255469Y-93715212D01*
X130301614Y-93635288D01*
X130325500Y-93546144D01*
X130325500Y-93453856D01*
X130301614Y-93364712D01*
X130301611Y-93364706D01*
X130255473Y-93284794D01*
X130255470Y-93284791D01*
X130255469Y-93284788D01*
X130190212Y-93219531D01*
X130190209Y-93219529D01*
X130190205Y-93219526D01*
X130110293Y-93173388D01*
X130110290Y-93173387D01*
X130110289Y-93173386D01*
X130110288Y-93173386D01*
X130021144Y-93149500D01*
X129928856Y-93149500D01*
X129839712Y-93173386D01*
X129839711Y-93173386D01*
X129839709Y-93173387D01*
X129839706Y-93173388D01*
X129759794Y-93219526D01*
X129759785Y-93219533D01*
X129694533Y-93284785D01*
X129694526Y-93284794D01*
X129648388Y-93364706D01*
X129648387Y-93364709D01*
X129648386Y-93364711D01*
X129648386Y-93364712D01*
X129624500Y-93453856D01*
X107430500Y-93453856D01*
X107430500Y-93314234D01*
X107391281Y-93167865D01*
X107315515Y-93036635D01*
X107208365Y-92929485D01*
X107112888Y-92874361D01*
X107077136Y-92853719D01*
X107003950Y-92834109D01*
X106930766Y-92814500D01*
X106779234Y-92814500D01*
X106632863Y-92853719D01*
X106501635Y-92929485D01*
X106501632Y-92929487D01*
X106394487Y-93036632D01*
X106394485Y-93036635D01*
X106318719Y-93167863D01*
X106279500Y-93314234D01*
X106279500Y-93465765D01*
X106318719Y-93612136D01*
X106332089Y-93635293D01*
X106394485Y-93743365D01*
X106501635Y-93850515D01*
X106501636Y-93850516D01*
X106501638Y-93850517D01*
X106624024Y-93921177D01*
X106672240Y-93971744D01*
X106685462Y-94040351D01*
X106659494Y-94105216D01*
X106605981Y-94143321D01*
X106606299Y-94144089D01*
X106602964Y-94145470D01*
X106602580Y-94145744D01*
X106601300Y-94146159D01*
X106473195Y-94199221D01*
X106473182Y-94199228D01*
X106358458Y-94275885D01*
X106358454Y-94275888D01*
X106260888Y-94373454D01*
X106260885Y-94373458D01*
X106184228Y-94488182D01*
X106184221Y-94488195D01*
X106131421Y-94615667D01*
X106131418Y-94615677D01*
X106104500Y-94751004D01*
X106104500Y-94751007D01*
X106104500Y-94888993D01*
X106104500Y-94888995D01*
X106104499Y-94888995D01*
X104175500Y-94888995D01*
X104175500Y-94751004D01*
X104148581Y-94615677D01*
X104148580Y-94615676D01*
X104148580Y-94615672D01*
X104132863Y-94577727D01*
X104095778Y-94488195D01*
X104095771Y-94488182D01*
X104019114Y-94373458D01*
X104019111Y-94373454D01*
X103921545Y-94275888D01*
X103921541Y-94275885D01*
X103806817Y-94199228D01*
X103806804Y-94199221D01*
X103679332Y-94146421D01*
X103679322Y-94146418D01*
X103543995Y-94119500D01*
X103543993Y-94119500D01*
X102806007Y-94119500D01*
X102806005Y-94119500D01*
X102670677Y-94146418D01*
X102670667Y-94146421D01*
X102543195Y-94199221D01*
X102543182Y-94199228D01*
X102428458Y-94275885D01*
X102428454Y-94275888D01*
X102330888Y-94373454D01*
X102330885Y-94373458D01*
X102254228Y-94488182D01*
X102254221Y-94488195D01*
X102201421Y-94615667D01*
X102201418Y-94615677D01*
X102174500Y-94751004D01*
X102174500Y-94751007D01*
X102174500Y-94888993D01*
X102174500Y-94888995D01*
X102174499Y-94888995D01*
X100500500Y-94888995D01*
X100500500Y-92509108D01*
X108749500Y-92509108D01*
X108749500Y-92640892D01*
X108762123Y-92688001D01*
X108783608Y-92768187D01*
X108808904Y-92812000D01*
X108849500Y-92882314D01*
X108942686Y-92975500D01*
X109056814Y-93041392D01*
X109184108Y-93075500D01*
X109184110Y-93075500D01*
X109315890Y-93075500D01*
X109315892Y-93075500D01*
X109396669Y-93053856D01*
X122149499Y-93053856D01*
X122149499Y-93146144D01*
X122171557Y-93228466D01*
X122173386Y-93235290D01*
X122173387Y-93235293D01*
X122219525Y-93315205D01*
X122219528Y-93315209D01*
X122219530Y-93315212D01*
X122284787Y-93380469D01*
X122284790Y-93380470D01*
X122284793Y-93380473D01*
X122364705Y-93426611D01*
X122364706Y-93426611D01*
X122364711Y-93426614D01*
X122453855Y-93450500D01*
X122453857Y-93450500D01*
X122546141Y-93450500D01*
X122546143Y-93450500D01*
X122635287Y-93426614D01*
X122715211Y-93380469D01*
X122780468Y-93315212D01*
X122826613Y-93235288D01*
X122850499Y-93146144D01*
X122850499Y-93053856D01*
X122826613Y-92964712D01*
X122826610Y-92964706D01*
X122780472Y-92884794D01*
X122780469Y-92884791D01*
X122780468Y-92884788D01*
X122715211Y-92819531D01*
X122715208Y-92819529D01*
X122715204Y-92819526D01*
X122635292Y-92773388D01*
X122635289Y-92773387D01*
X122635288Y-92773386D01*
X122635287Y-92773386D01*
X122546143Y-92749500D01*
X122453855Y-92749500D01*
X122364711Y-92773386D01*
X122364710Y-92773386D01*
X122364708Y-92773387D01*
X122364705Y-92773388D01*
X122284793Y-92819526D01*
X122284784Y-92819533D01*
X122219532Y-92884785D01*
X122219525Y-92884794D01*
X122173387Y-92964706D01*
X122173386Y-92964709D01*
X122173385Y-92964711D01*
X122173385Y-92964712D01*
X122149499Y-93053856D01*
X109396669Y-93053856D01*
X109443186Y-93041392D01*
X109557314Y-92975500D01*
X109650500Y-92882314D01*
X109716392Y-92768186D01*
X109750500Y-92640892D01*
X109750500Y-92509108D01*
X109716392Y-92381814D01*
X109650500Y-92267686D01*
X109557314Y-92174500D01*
X109500250Y-92141554D01*
X109443187Y-92108608D01*
X109379539Y-92091554D01*
X109315892Y-92074500D01*
X109184108Y-92074500D01*
X109056812Y-92108608D01*
X108942686Y-92174500D01*
X108942683Y-92174502D01*
X108849502Y-92267683D01*
X108849500Y-92267686D01*
X108783608Y-92381812D01*
X108763423Y-92457147D01*
X108749500Y-92509108D01*
X100500500Y-92509108D01*
X100500500Y-91197273D01*
X105774500Y-91197273D01*
X105774500Y-91302727D01*
X105801793Y-91404587D01*
X105854520Y-91495913D01*
X105929087Y-91570480D01*
X106020413Y-91623207D01*
X106122273Y-91650500D01*
X106122275Y-91650500D01*
X106227725Y-91650500D01*
X106227727Y-91650500D01*
X106329587Y-91623207D01*
X106420913Y-91570480D01*
X106495480Y-91495913D01*
X106548207Y-91404587D01*
X106575500Y-91302727D01*
X106575500Y-91272571D01*
X106595185Y-91205532D01*
X106647989Y-91159777D01*
X106715692Y-91149633D01*
X106722271Y-91150499D01*
X106722273Y-91150500D01*
X106722275Y-91150500D01*
X106827725Y-91150500D01*
X106827727Y-91150500D01*
X106929587Y-91123207D01*
X107020913Y-91070480D01*
X107095480Y-90995913D01*
X107148207Y-90904587D01*
X107175500Y-90802727D01*
X107175500Y-90697273D01*
X107148207Y-90595413D01*
X107095480Y-90504087D01*
X107020913Y-90429520D01*
X106929587Y-90376793D01*
X106920237Y-90374287D01*
X106912451Y-90371016D01*
X106891639Y-90354069D01*
X106868729Y-90340104D01*
X106864960Y-90332346D01*
X106858271Y-90326899D01*
X106849925Y-90301391D01*
X106838979Y-90278856D01*
X119699500Y-90278856D01*
X119699500Y-90371144D01*
X119702414Y-90382021D01*
X119723387Y-90460290D01*
X119723388Y-90460293D01*
X119769526Y-90540205D01*
X119769529Y-90540209D01*
X119769531Y-90540212D01*
X119834788Y-90605469D01*
X119834791Y-90605470D01*
X119834794Y-90605473D01*
X119914706Y-90651611D01*
X119914707Y-90651612D01*
X119914709Y-90651612D01*
X119914712Y-90651614D01*
X119928479Y-90655302D01*
X119988138Y-90691664D01*
X120018669Y-90754510D01*
X120010377Y-90823886D01*
X120003774Y-90837077D01*
X119973387Y-90889708D01*
X119973387Y-90889709D01*
X119973386Y-90889711D01*
X119973386Y-90889712D01*
X119949500Y-90978856D01*
X119949500Y-91071144D01*
X119973249Y-91159777D01*
X119973387Y-91160290D01*
X119973388Y-91160293D01*
X120019526Y-91240205D01*
X120019529Y-91240209D01*
X120019531Y-91240212D01*
X120084788Y-91305469D01*
X120084791Y-91305470D01*
X120084794Y-91305473D01*
X120164706Y-91351611D01*
X120164707Y-91351611D01*
X120164712Y-91351614D01*
X120253856Y-91375500D01*
X120253858Y-91375500D01*
X120346142Y-91375500D01*
X120346144Y-91375500D01*
X120435288Y-91351614D01*
X120515212Y-91305469D01*
X120580469Y-91240212D01*
X120626614Y-91160288D01*
X120650500Y-91071144D01*
X120650500Y-90978856D01*
X120644683Y-90957147D01*
X143424500Y-90957147D01*
X143424500Y-91042853D01*
X143446031Y-91123206D01*
X143446682Y-91125637D01*
X143446682Y-91125638D01*
X143482687Y-91188001D01*
X143499159Y-91255901D01*
X143482687Y-91311999D01*
X143446682Y-91374361D01*
X143446682Y-91374362D01*
X143424500Y-91457147D01*
X143424500Y-91542853D01*
X143446031Y-91623206D01*
X143446682Y-91625637D01*
X143446682Y-91625638D01*
X143482687Y-91688001D01*
X143499159Y-91755901D01*
X143482687Y-91811999D01*
X143446682Y-91874361D01*
X143446682Y-91874362D01*
X143424500Y-91957147D01*
X143424500Y-92042852D01*
X143446682Y-92125637D01*
X143446682Y-92125638D01*
X143482687Y-92188001D01*
X143499159Y-92255901D01*
X143482687Y-92311999D01*
X143446682Y-92374361D01*
X143446682Y-92374362D01*
X143424500Y-92457147D01*
X143424500Y-92542852D01*
X143446682Y-92625637D01*
X143446682Y-92625638D01*
X143482687Y-92688001D01*
X143499159Y-92755901D01*
X143482687Y-92811999D01*
X143446682Y-92874361D01*
X143446682Y-92874362D01*
X143424500Y-92957147D01*
X143424500Y-93042853D01*
X143433248Y-93075499D01*
X143446682Y-93125637D01*
X143446685Y-93125644D01*
X143489530Y-93199855D01*
X143489534Y-93199860D01*
X143489535Y-93199862D01*
X143550138Y-93260465D01*
X143550140Y-93260466D01*
X143550144Y-93260469D01*
X143592277Y-93284794D01*
X143624362Y-93303318D01*
X143707147Y-93325500D01*
X143707149Y-93325500D01*
X143792851Y-93325500D01*
X143792853Y-93325500D01*
X143875638Y-93303318D01*
X143949862Y-93260465D01*
X144010465Y-93199862D01*
X144053318Y-93125638D01*
X144075500Y-93042853D01*
X144075500Y-93021530D01*
X160114500Y-93021530D01*
X160114500Y-93228469D01*
X160154868Y-93431412D01*
X160154870Y-93431420D01*
X160202390Y-93546144D01*
X160234059Y-93622598D01*
X160265420Y-93669533D01*
X160349024Y-93794657D01*
X160495342Y-93940975D01*
X160495345Y-93940977D01*
X160667402Y-94055941D01*
X160858580Y-94135130D01*
X161061530Y-94175499D01*
X161061534Y-94175500D01*
X161061535Y-94175500D01*
X161268466Y-94175500D01*
X161268467Y-94175499D01*
X161471420Y-94135130D01*
X161662598Y-94055941D01*
X161834655Y-93940977D01*
X161980977Y-93794655D01*
X162095941Y-93622598D01*
X162175130Y-93431420D01*
X162215500Y-93228465D01*
X162215500Y-93021535D01*
X162175130Y-92818580D01*
X162095941Y-92627402D01*
X161980977Y-92455345D01*
X161980975Y-92455342D01*
X161834657Y-92309024D01*
X161737490Y-92244100D01*
X161662598Y-92194059D01*
X161647970Y-92188000D01*
X161471420Y-92114870D01*
X161471412Y-92114868D01*
X161268469Y-92074500D01*
X161268465Y-92074500D01*
X161061535Y-92074500D01*
X161061530Y-92074500D01*
X160858587Y-92114868D01*
X160858579Y-92114870D01*
X160667403Y-92194058D01*
X160495342Y-92309024D01*
X160349024Y-92455342D01*
X160234058Y-92627403D01*
X160154870Y-92818579D01*
X160154868Y-92818587D01*
X160114500Y-93021530D01*
X144075500Y-93021530D01*
X144075500Y-92957147D01*
X144053318Y-92874362D01*
X144017312Y-92811998D01*
X144000840Y-92744100D01*
X144017313Y-92688000D01*
X144053318Y-92625638D01*
X144075500Y-92542853D01*
X144075500Y-92457147D01*
X144053318Y-92374362D01*
X144017312Y-92311998D01*
X144000840Y-92244100D01*
X144017313Y-92188000D01*
X144053318Y-92125638D01*
X144075500Y-92042853D01*
X144075500Y-91957147D01*
X144053318Y-91874362D01*
X144017312Y-91811998D01*
X144000840Y-91744100D01*
X144017313Y-91688000D01*
X144053318Y-91625638D01*
X144075500Y-91542853D01*
X144075500Y-91457147D01*
X147424500Y-91457147D01*
X147424500Y-91542853D01*
X147446031Y-91623206D01*
X147446682Y-91625637D01*
X147446685Y-91625644D01*
X147489530Y-91699855D01*
X147489534Y-91699860D01*
X147489535Y-91699862D01*
X147550138Y-91760465D01*
X147550140Y-91760466D01*
X147550144Y-91760469D01*
X147618854Y-91800138D01*
X147624362Y-91803318D01*
X147707147Y-91825500D01*
X147707149Y-91825500D01*
X147792851Y-91825500D01*
X147792853Y-91825500D01*
X147875638Y-91803318D01*
X147949862Y-91760465D01*
X148010465Y-91699862D01*
X148053318Y-91625638D01*
X148075500Y-91542853D01*
X148075500Y-91457147D01*
X148053318Y-91374362D01*
X148040185Y-91351614D01*
X148010469Y-91300144D01*
X148010463Y-91300136D01*
X147949863Y-91239536D01*
X147949855Y-91239530D01*
X147875644Y-91196685D01*
X147875640Y-91196683D01*
X147875638Y-91196682D01*
X147792853Y-91174500D01*
X147707147Y-91174500D01*
X147624362Y-91196682D01*
X147624355Y-91196685D01*
X147550144Y-91239530D01*
X147550136Y-91239536D01*
X147489536Y-91300136D01*
X147489530Y-91300144D01*
X147446685Y-91374355D01*
X147446682Y-91374362D01*
X147424500Y-91457147D01*
X144075500Y-91457147D01*
X144053318Y-91374362D01*
X144012212Y-91303164D01*
X144008627Y-91293625D01*
X144006769Y-91268542D01*
X144000840Y-91244100D01*
X144004130Y-91232893D01*
X144003468Y-91223946D01*
X144010635Y-91210741D01*
X144017313Y-91188000D01*
X144053318Y-91125638D01*
X144075500Y-91042853D01*
X144075500Y-90957147D01*
X148424500Y-90957147D01*
X148424500Y-91042853D01*
X148446031Y-91123206D01*
X148446682Y-91125637D01*
X148446682Y-91125638D01*
X148482687Y-91188001D01*
X148499159Y-91255901D01*
X148482687Y-91311999D01*
X148446682Y-91374361D01*
X148446682Y-91374362D01*
X148424500Y-91457147D01*
X148424500Y-91542853D01*
X148446031Y-91623206D01*
X148446682Y-91625637D01*
X148446685Y-91625644D01*
X148489530Y-91699855D01*
X148489534Y-91699860D01*
X148489535Y-91699862D01*
X148550138Y-91760465D01*
X148550140Y-91760466D01*
X148550144Y-91760469D01*
X148618854Y-91800138D01*
X148624362Y-91803318D01*
X148707147Y-91825500D01*
X148707149Y-91825500D01*
X148792851Y-91825500D01*
X148792853Y-91825500D01*
X148875638Y-91803318D01*
X148949862Y-91760465D01*
X149010465Y-91699862D01*
X149053318Y-91625638D01*
X149075500Y-91542853D01*
X149075500Y-91457147D01*
X149053318Y-91374362D01*
X149017312Y-91311998D01*
X149000840Y-91244100D01*
X149017313Y-91188000D01*
X149053318Y-91125638D01*
X149075500Y-91042853D01*
X149075500Y-90957147D01*
X149053318Y-90874362D01*
X149016040Y-90809794D01*
X149010469Y-90800144D01*
X149010463Y-90800136D01*
X148949863Y-90739536D01*
X148949855Y-90739530D01*
X148875644Y-90696685D01*
X148875640Y-90696683D01*
X148875638Y-90696682D01*
X148792853Y-90674500D01*
X148707147Y-90674500D01*
X148624362Y-90696682D01*
X148624355Y-90696685D01*
X148550144Y-90739530D01*
X148550136Y-90739536D01*
X148489536Y-90800136D01*
X148489530Y-90800144D01*
X148446685Y-90874355D01*
X148446682Y-90874362D01*
X148424500Y-90957147D01*
X144075500Y-90957147D01*
X144053318Y-90874362D01*
X144016040Y-90809794D01*
X144010469Y-90800144D01*
X144010463Y-90800136D01*
X143949863Y-90739536D01*
X143949855Y-90739530D01*
X143875644Y-90696685D01*
X143875640Y-90696683D01*
X143875638Y-90696682D01*
X143792853Y-90674500D01*
X143707147Y-90674500D01*
X143624362Y-90696682D01*
X143624355Y-90696685D01*
X143550144Y-90739530D01*
X143550136Y-90739536D01*
X143489536Y-90800136D01*
X143489530Y-90800144D01*
X143446685Y-90874355D01*
X143446682Y-90874362D01*
X143424500Y-90957147D01*
X120644683Y-90957147D01*
X120626614Y-90889712D01*
X120619156Y-90876794D01*
X120580473Y-90809794D01*
X120580470Y-90809791D01*
X120580469Y-90809788D01*
X120515212Y-90744531D01*
X120515209Y-90744529D01*
X120515205Y-90744526D01*
X120435293Y-90698388D01*
X120435290Y-90698387D01*
X120435289Y-90698386D01*
X120435288Y-90698386D01*
X120421517Y-90694696D01*
X120361858Y-90658332D01*
X120331329Y-90595485D01*
X120339624Y-90526110D01*
X120346226Y-90512920D01*
X120376613Y-90460290D01*
X120376614Y-90460288D01*
X120400500Y-90371144D01*
X120400500Y-90278856D01*
X120387103Y-90228856D01*
X140674500Y-90228856D01*
X140674500Y-90321144D01*
X140690626Y-90381328D01*
X140698387Y-90410290D01*
X140698388Y-90410293D01*
X140744526Y-90490205D01*
X140744529Y-90490209D01*
X140744531Y-90490212D01*
X140809788Y-90555469D01*
X140809791Y-90555470D01*
X140809794Y-90555473D01*
X140889706Y-90601611D01*
X140889707Y-90601611D01*
X140889712Y-90601614D01*
X140978856Y-90625500D01*
X140978858Y-90625500D01*
X141071142Y-90625500D01*
X141071144Y-90625500D01*
X141160288Y-90601614D01*
X141240212Y-90555469D01*
X141305469Y-90490212D01*
X141310482Y-90481530D01*
X160114500Y-90481530D01*
X160114500Y-90688469D01*
X160154868Y-90891412D01*
X160154870Y-90891420D01*
X160234058Y-91082596D01*
X160349024Y-91254657D01*
X160495342Y-91400975D01*
X160495345Y-91400977D01*
X160667402Y-91515941D01*
X160858580Y-91595130D01*
X161061530Y-91635499D01*
X161061534Y-91635500D01*
X161061535Y-91635500D01*
X161268466Y-91635500D01*
X161268467Y-91635499D01*
X161471420Y-91595130D01*
X161662598Y-91515941D01*
X161834655Y-91400977D01*
X161980977Y-91254655D01*
X162095941Y-91082598D01*
X162175130Y-90891420D01*
X162215500Y-90688465D01*
X162215500Y-90481535D01*
X162175130Y-90278580D01*
X162095941Y-90087402D01*
X161980977Y-89915345D01*
X161980975Y-89915342D01*
X161834657Y-89769024D01*
X161727273Y-89697273D01*
X161662598Y-89654059D01*
X161471420Y-89574870D01*
X161471412Y-89574868D01*
X161268469Y-89534500D01*
X161268465Y-89534500D01*
X161061535Y-89534500D01*
X161061530Y-89534500D01*
X160858587Y-89574868D01*
X160858579Y-89574870D01*
X160667403Y-89654058D01*
X160495342Y-89769024D01*
X160349024Y-89915342D01*
X160234058Y-90087403D01*
X160154870Y-90278579D01*
X160154868Y-90278587D01*
X160114500Y-90481530D01*
X141310482Y-90481530D01*
X141351614Y-90410288D01*
X141375500Y-90321144D01*
X141375500Y-90228856D01*
X141351614Y-90139712D01*
X141334341Y-90109794D01*
X141305473Y-90059794D01*
X141305470Y-90059791D01*
X141305469Y-90059788D01*
X141240212Y-89994531D01*
X141240209Y-89994529D01*
X141240205Y-89994526D01*
X141160293Y-89948388D01*
X141160290Y-89948387D01*
X141160289Y-89948386D01*
X141160288Y-89948386D01*
X141071144Y-89924500D01*
X140978856Y-89924500D01*
X140889712Y-89948386D01*
X140889711Y-89948386D01*
X140889709Y-89948387D01*
X140889706Y-89948388D01*
X140809794Y-89994526D01*
X140809785Y-89994533D01*
X140744533Y-90059785D01*
X140744526Y-90059794D01*
X140698388Y-90139706D01*
X140698387Y-90139709D01*
X140698386Y-90139711D01*
X140698386Y-90139712D01*
X140674500Y-90228856D01*
X120387103Y-90228856D01*
X120376614Y-90189712D01*
X120376612Y-90189709D01*
X120376612Y-90189707D01*
X120376611Y-90189706D01*
X120330473Y-90109794D01*
X120330470Y-90109791D01*
X120330469Y-90109788D01*
X120265212Y-90044531D01*
X120265209Y-90044529D01*
X120265205Y-90044526D01*
X120185293Y-89998388D01*
X120185290Y-89998387D01*
X120185289Y-89998386D01*
X120185288Y-89998386D01*
X120096144Y-89974500D01*
X120003856Y-89974500D01*
X119914712Y-89998386D01*
X119914711Y-89998386D01*
X119914709Y-89998387D01*
X119914706Y-89998388D01*
X119834794Y-90044526D01*
X119834785Y-90044533D01*
X119769533Y-90109785D01*
X119769526Y-90109794D01*
X119723388Y-90189706D01*
X119723387Y-90189709D01*
X119723386Y-90189711D01*
X119723386Y-90189712D01*
X119699500Y-90278856D01*
X106838979Y-90278856D01*
X106838202Y-90277256D01*
X106839226Y-90268691D01*
X106836544Y-90260493D01*
X106843313Y-90234524D01*
X106846500Y-90207881D01*
X106851991Y-90201229D01*
X106854168Y-90192882D01*
X106873901Y-90174696D01*
X106890987Y-90154005D01*
X106901625Y-90149146D01*
X106905547Y-90145533D01*
X106912023Y-90144398D01*
X106928388Y-90136925D01*
X106979587Y-90123207D01*
X107070913Y-90070480D01*
X107145480Y-89995913D01*
X107198207Y-89904587D01*
X107225500Y-89802727D01*
X107225500Y-89697273D01*
X107198207Y-89595413D01*
X107145480Y-89504087D01*
X107070913Y-89429520D01*
X106979587Y-89376793D01*
X106877727Y-89349500D01*
X106772273Y-89349500D01*
X106670413Y-89376793D01*
X106670410Y-89376794D01*
X106579085Y-89429521D01*
X106504521Y-89504085D01*
X106451794Y-89595410D01*
X106451793Y-89595413D01*
X106424500Y-89697273D01*
X106424500Y-89702239D01*
X106404815Y-89769278D01*
X106352011Y-89815033D01*
X106300500Y-89826239D01*
X106199012Y-89826239D01*
X106097152Y-89853532D01*
X106097149Y-89853533D01*
X106005824Y-89906260D01*
X105931260Y-89980824D01*
X105878533Y-90072149D01*
X105878532Y-90072152D01*
X105851239Y-90174012D01*
X105851239Y-90279466D01*
X105878532Y-90381326D01*
X105931259Y-90472652D01*
X106005826Y-90547219D01*
X106097152Y-90599946D01*
X106128381Y-90608313D01*
X106188041Y-90644677D01*
X106218571Y-90707524D01*
X106210277Y-90776899D01*
X106165792Y-90830778D01*
X106128382Y-90847863D01*
X106020411Y-90876793D01*
X106020410Y-90876794D01*
X105929085Y-90929521D01*
X105854521Y-91004085D01*
X105801794Y-91095410D01*
X105801793Y-91095413D01*
X105774500Y-91197273D01*
X100500500Y-91197273D01*
X100500500Y-88528856D01*
X119474500Y-88528856D01*
X119474500Y-88621144D01*
X119491687Y-88685288D01*
X119498387Y-88710290D01*
X119498388Y-88710293D01*
X119544526Y-88790205D01*
X119544529Y-88790209D01*
X119544531Y-88790212D01*
X119609788Y-88855469D01*
X119609791Y-88855470D01*
X119609794Y-88855473D01*
X119689706Y-88901611D01*
X119689707Y-88901611D01*
X119689712Y-88901614D01*
X119778856Y-88925500D01*
X119778858Y-88925500D01*
X119871142Y-88925500D01*
X119871144Y-88925500D01*
X119960288Y-88901614D01*
X120040212Y-88855469D01*
X120082549Y-88813131D01*
X120143870Y-88779647D01*
X120213561Y-88784631D01*
X120232228Y-88793425D01*
X120289712Y-88826614D01*
X120378856Y-88850500D01*
X120378858Y-88850500D01*
X120471142Y-88850500D01*
X120471144Y-88850500D01*
X120560288Y-88826614D01*
X120640212Y-88780469D01*
X120705469Y-88715212D01*
X120751614Y-88635288D01*
X120775500Y-88546144D01*
X120775500Y-88503856D01*
X128999500Y-88503856D01*
X128999500Y-88596144D01*
X129006198Y-88621143D01*
X129023387Y-88685290D01*
X129023388Y-88685293D01*
X129069526Y-88765205D01*
X129069529Y-88765209D01*
X129069531Y-88765212D01*
X129134788Y-88830469D01*
X129134791Y-88830470D01*
X129134794Y-88830473D01*
X129214706Y-88876611D01*
X129214707Y-88876611D01*
X129214712Y-88876614D01*
X129303856Y-88900500D01*
X129303858Y-88900500D01*
X129396142Y-88900500D01*
X129396144Y-88900500D01*
X129485288Y-88876614D01*
X129565212Y-88830469D01*
X129630469Y-88765212D01*
X129676614Y-88685288D01*
X129700500Y-88596144D01*
X129700500Y-88503856D01*
X129676614Y-88414712D01*
X129647746Y-88364712D01*
X129630473Y-88334794D01*
X129630470Y-88334791D01*
X129630469Y-88334788D01*
X129565212Y-88269531D01*
X129565209Y-88269529D01*
X129565205Y-88269526D01*
X129485293Y-88223388D01*
X129485290Y-88223387D01*
X129485289Y-88223386D01*
X129485288Y-88223386D01*
X129396144Y-88199500D01*
X129303856Y-88199500D01*
X129214712Y-88223386D01*
X129214711Y-88223386D01*
X129214709Y-88223387D01*
X129214706Y-88223388D01*
X129134794Y-88269526D01*
X129134785Y-88269533D01*
X129069533Y-88334785D01*
X129069526Y-88334794D01*
X129023388Y-88414706D01*
X129023387Y-88414709D01*
X129023386Y-88414711D01*
X129023386Y-88414712D01*
X128999500Y-88503856D01*
X120775500Y-88503856D01*
X120775500Y-88453856D01*
X120751614Y-88364712D01*
X120748775Y-88359794D01*
X120705473Y-88284794D01*
X120705470Y-88284791D01*
X120705469Y-88284788D01*
X120640212Y-88219531D01*
X120640209Y-88219529D01*
X120640205Y-88219526D01*
X120560293Y-88173388D01*
X120560290Y-88173387D01*
X120560289Y-88173386D01*
X120560288Y-88173386D01*
X120471144Y-88149500D01*
X120378856Y-88149500D01*
X120289712Y-88173386D01*
X120289711Y-88173386D01*
X120289709Y-88173387D01*
X120289706Y-88173388D01*
X120209794Y-88219526D01*
X120209784Y-88219534D01*
X120167448Y-88261869D01*
X120106125Y-88295353D01*
X120036433Y-88290367D01*
X120017768Y-88281572D01*
X119960293Y-88248388D01*
X119960290Y-88248387D01*
X119960289Y-88248386D01*
X119960288Y-88248386D01*
X119871144Y-88224500D01*
X119778856Y-88224500D01*
X119689712Y-88248386D01*
X119689711Y-88248386D01*
X119689709Y-88248387D01*
X119689706Y-88248388D01*
X119609794Y-88294526D01*
X119609785Y-88294533D01*
X119544533Y-88359785D01*
X119544526Y-88359794D01*
X119498388Y-88439706D01*
X119498387Y-88439709D01*
X119498386Y-88439711D01*
X119498386Y-88439712D01*
X119474500Y-88528856D01*
X100500500Y-88528856D01*
X100500500Y-86248995D01*
X102174499Y-86248995D01*
X102201418Y-86384322D01*
X102201421Y-86384332D01*
X102254221Y-86511804D01*
X102254228Y-86511817D01*
X102330885Y-86626541D01*
X102330888Y-86626545D01*
X102428454Y-86724111D01*
X102428458Y-86724114D01*
X102543182Y-86800771D01*
X102543195Y-86800778D01*
X102658644Y-86848598D01*
X102670672Y-86853580D01*
X102670676Y-86853580D01*
X102670677Y-86853581D01*
X102806004Y-86880500D01*
X102806007Y-86880500D01*
X103543995Y-86880500D01*
X103667609Y-86855911D01*
X103679328Y-86853580D01*
X103806811Y-86800775D01*
X103921542Y-86724114D01*
X104019114Y-86626542D01*
X104095775Y-86511811D01*
X104148580Y-86384328D01*
X104175500Y-86248995D01*
X106104499Y-86248995D01*
X106131418Y-86384322D01*
X106131421Y-86384332D01*
X106184221Y-86511804D01*
X106184228Y-86511817D01*
X106260885Y-86626541D01*
X106260888Y-86626545D01*
X106358454Y-86724111D01*
X106358458Y-86724114D01*
X106473182Y-86800771D01*
X106473195Y-86800778D01*
X106606299Y-86855911D01*
X106605550Y-86857717D01*
X106656441Y-86891052D01*
X106684911Y-86954858D01*
X106674365Y-87023927D01*
X106628152Y-87076331D01*
X106624025Y-87078822D01*
X106501635Y-87149485D01*
X106501632Y-87149487D01*
X106394487Y-87256632D01*
X106394485Y-87256635D01*
X106318719Y-87387863D01*
X106279500Y-87534234D01*
X106279500Y-87685765D01*
X106318719Y-87832136D01*
X106319282Y-87833111D01*
X106394485Y-87963365D01*
X106501635Y-88070515D01*
X106632865Y-88146281D01*
X106779234Y-88185500D01*
X106779236Y-88185500D01*
X106930764Y-88185500D01*
X106930766Y-88185500D01*
X107077135Y-88146281D01*
X107208365Y-88070515D01*
X107315515Y-87963365D01*
X107391281Y-87832135D01*
X107430500Y-87685766D01*
X107430500Y-87534234D01*
X107423995Y-87509956D01*
X107416794Y-87483080D01*
X107416792Y-87483075D01*
X107410705Y-87460358D01*
X107410370Y-87459108D01*
X108774500Y-87459108D01*
X108774500Y-87590891D01*
X108808608Y-87718187D01*
X108841554Y-87775250D01*
X108874500Y-87832314D01*
X108967686Y-87925500D01*
X109081814Y-87991392D01*
X109209108Y-88025500D01*
X109209110Y-88025500D01*
X109340890Y-88025500D01*
X109340892Y-88025500D01*
X109468186Y-87991392D01*
X109582314Y-87925500D01*
X109675500Y-87832314D01*
X109741392Y-87718186D01*
X109775500Y-87590892D01*
X109775500Y-87460356D01*
X134849500Y-87460356D01*
X134849500Y-87552644D01*
X134859748Y-87590892D01*
X134873387Y-87641790D01*
X134873388Y-87641793D01*
X134919526Y-87721705D01*
X134919529Y-87721709D01*
X134919531Y-87721712D01*
X134984788Y-87786969D01*
X134984791Y-87786970D01*
X134984794Y-87786973D01*
X135064706Y-87833111D01*
X135064707Y-87833111D01*
X135064712Y-87833114D01*
X135153856Y-87857000D01*
X135153858Y-87857000D01*
X135246142Y-87857000D01*
X135246144Y-87857000D01*
X135335288Y-87833114D01*
X135415212Y-87786969D01*
X135480469Y-87721712D01*
X135526614Y-87641788D01*
X135550500Y-87552644D01*
X135550500Y-87460356D01*
X135526614Y-87371212D01*
X135526611Y-87371206D01*
X135480473Y-87291294D01*
X135480470Y-87291291D01*
X135480469Y-87291288D01*
X135415212Y-87226031D01*
X135415209Y-87226029D01*
X135415205Y-87226026D01*
X135335293Y-87179888D01*
X135335290Y-87179887D01*
X135335289Y-87179886D01*
X135335288Y-87179886D01*
X135246144Y-87156000D01*
X135153856Y-87156000D01*
X135064712Y-87179886D01*
X135064711Y-87179886D01*
X135064709Y-87179887D01*
X135064706Y-87179888D01*
X134984794Y-87226026D01*
X134984785Y-87226033D01*
X134919533Y-87291285D01*
X134919526Y-87291294D01*
X134873388Y-87371206D01*
X134873387Y-87371209D01*
X134873386Y-87371211D01*
X134873386Y-87371212D01*
X134849500Y-87460356D01*
X109775500Y-87460356D01*
X109775500Y-87459108D01*
X109741392Y-87331814D01*
X109740615Y-87330469D01*
X109731953Y-87315466D01*
X109675500Y-87217686D01*
X109582314Y-87124500D01*
X109494359Y-87073719D01*
X109468187Y-87058608D01*
X109404539Y-87041554D01*
X109340892Y-87024500D01*
X109209108Y-87024500D01*
X109081812Y-87058608D01*
X108967686Y-87124500D01*
X108967683Y-87124502D01*
X108874502Y-87217683D01*
X108874500Y-87217686D01*
X108808608Y-87331812D01*
X108774500Y-87459108D01*
X107410370Y-87459108D01*
X107391281Y-87387865D01*
X107315515Y-87256635D01*
X107208365Y-87149485D01*
X107208363Y-87149484D01*
X107208361Y-87149482D01*
X107143244Y-87111887D01*
X107095028Y-87061320D01*
X107083953Y-87003856D01*
X113849500Y-87003856D01*
X113849500Y-87096144D01*
X113871939Y-87179888D01*
X113873387Y-87185290D01*
X113873388Y-87185293D01*
X113919526Y-87265205D01*
X113919529Y-87265209D01*
X113919531Y-87265212D01*
X113984788Y-87330469D01*
X113984791Y-87330470D01*
X113984794Y-87330473D01*
X114064706Y-87376611D01*
X114064707Y-87376611D01*
X114064712Y-87376614D01*
X114153856Y-87400500D01*
X114153858Y-87400500D01*
X114246142Y-87400500D01*
X114246144Y-87400500D01*
X114335288Y-87376614D01*
X114415212Y-87330469D01*
X114480469Y-87265212D01*
X114526614Y-87185288D01*
X114550500Y-87096144D01*
X114550500Y-87003856D01*
X114546481Y-86988856D01*
X133784500Y-86988856D01*
X133784500Y-87081144D01*
X133802812Y-87149487D01*
X133808387Y-87170290D01*
X133808388Y-87170293D01*
X133854526Y-87250205D01*
X133854529Y-87250209D01*
X133854531Y-87250212D01*
X133919788Y-87315469D01*
X133919791Y-87315470D01*
X133919794Y-87315473D01*
X133999706Y-87361611D01*
X133999707Y-87361611D01*
X133999712Y-87361614D01*
X134088856Y-87385500D01*
X134088858Y-87385500D01*
X134181142Y-87385500D01*
X134181144Y-87385500D01*
X134270288Y-87361614D01*
X134274060Y-87359436D01*
X134299337Y-87344843D01*
X134350205Y-87315473D01*
X134350204Y-87315473D01*
X134350212Y-87315469D01*
X134415469Y-87250212D01*
X134461614Y-87170288D01*
X134485500Y-87081144D01*
X134485500Y-86988856D01*
X134461614Y-86899712D01*
X134461611Y-86899706D01*
X134415473Y-86819794D01*
X134415470Y-86819791D01*
X134415469Y-86819788D01*
X134350212Y-86754531D01*
X134350209Y-86754529D01*
X134350205Y-86754526D01*
X134270293Y-86708388D01*
X134270290Y-86708387D01*
X134270289Y-86708386D01*
X134270288Y-86708386D01*
X134181144Y-86684500D01*
X134088856Y-86684500D01*
X133999712Y-86708386D01*
X133999711Y-86708386D01*
X133999709Y-86708387D01*
X133999706Y-86708388D01*
X133919794Y-86754526D01*
X133919785Y-86754533D01*
X133854533Y-86819785D01*
X133854526Y-86819794D01*
X133808388Y-86899706D01*
X133808387Y-86899709D01*
X133808386Y-86899711D01*
X133808386Y-86899712D01*
X133784500Y-86988856D01*
X114546481Y-86988856D01*
X114526614Y-86914712D01*
X114517952Y-86899709D01*
X114480473Y-86834794D01*
X114480470Y-86834791D01*
X114480469Y-86834788D01*
X114415212Y-86769531D01*
X114415209Y-86769529D01*
X114415205Y-86769526D01*
X114335293Y-86723388D01*
X114335290Y-86723387D01*
X114335289Y-86723386D01*
X114335288Y-86723386D01*
X114246144Y-86699500D01*
X114153856Y-86699500D01*
X114064712Y-86723386D01*
X114064711Y-86723386D01*
X114064709Y-86723387D01*
X114064706Y-86723388D01*
X113984794Y-86769526D01*
X113984785Y-86769533D01*
X113919533Y-86834785D01*
X113919526Y-86834794D01*
X113873388Y-86914706D01*
X113873387Y-86914709D01*
X113873386Y-86914711D01*
X113873386Y-86914712D01*
X113849500Y-87003856D01*
X107083953Y-87003856D01*
X107081806Y-86992713D01*
X107107774Y-86927848D01*
X107164688Y-86887320D01*
X107205244Y-86880500D01*
X107973995Y-86880500D01*
X108097609Y-86855911D01*
X108109328Y-86853580D01*
X108236811Y-86800775D01*
X108351542Y-86724114D01*
X108449114Y-86626542D01*
X108525775Y-86511811D01*
X108578580Y-86384328D01*
X108605500Y-86248993D01*
X108605500Y-86111007D01*
X108605500Y-86111004D01*
X108578581Y-85975677D01*
X108578580Y-85975676D01*
X108578580Y-85975672D01*
X108576614Y-85970925D01*
X108525778Y-85848195D01*
X108525771Y-85848182D01*
X108449114Y-85733458D01*
X108449111Y-85733454D01*
X108351545Y-85635888D01*
X108351541Y-85635885D01*
X108236817Y-85559228D01*
X108236804Y-85559221D01*
X108109332Y-85506421D01*
X108109322Y-85506418D01*
X107973995Y-85479500D01*
X107973993Y-85479500D01*
X106736007Y-85479500D01*
X106736005Y-85479500D01*
X106600677Y-85506418D01*
X106600667Y-85506421D01*
X106473195Y-85559221D01*
X106473182Y-85559228D01*
X106358458Y-85635885D01*
X106358454Y-85635888D01*
X106260888Y-85733454D01*
X106260885Y-85733458D01*
X106184228Y-85848182D01*
X106184221Y-85848195D01*
X106131421Y-85975667D01*
X106131418Y-85975677D01*
X106104500Y-86111004D01*
X106104500Y-86111007D01*
X106104500Y-86248993D01*
X106104500Y-86248995D01*
X106104499Y-86248995D01*
X104175500Y-86248995D01*
X104175500Y-86248993D01*
X104175500Y-86111007D01*
X104175500Y-86111004D01*
X104148581Y-85975677D01*
X104148580Y-85975676D01*
X104148580Y-85975672D01*
X104146614Y-85970925D01*
X104095778Y-85848195D01*
X104095771Y-85848182D01*
X104019114Y-85733458D01*
X104019111Y-85733454D01*
X103921545Y-85635888D01*
X103921541Y-85635885D01*
X103806817Y-85559228D01*
X103806804Y-85559221D01*
X103679332Y-85506421D01*
X103679322Y-85506418D01*
X103543995Y-85479500D01*
X103543993Y-85479500D01*
X102806007Y-85479500D01*
X102806005Y-85479500D01*
X102670677Y-85506418D01*
X102670667Y-85506421D01*
X102543195Y-85559221D01*
X102543182Y-85559228D01*
X102428458Y-85635885D01*
X102428454Y-85635888D01*
X102330888Y-85733454D01*
X102330885Y-85733458D01*
X102254228Y-85848182D01*
X102254221Y-85848195D01*
X102201421Y-85975667D01*
X102201418Y-85975677D01*
X102174500Y-86111004D01*
X102174500Y-86111007D01*
X102174500Y-86248993D01*
X102174500Y-86248995D01*
X102174499Y-86248995D01*
X100500500Y-86248995D01*
X100500500Y-84747273D01*
X115149500Y-84747273D01*
X115149500Y-84852727D01*
X115176793Y-84954587D01*
X115229520Y-85045913D01*
X115304087Y-85120480D01*
X115395413Y-85173207D01*
X115497273Y-85200500D01*
X115497275Y-85200500D01*
X115505123Y-85202603D01*
X115504385Y-85205357D01*
X115555661Y-85228038D01*
X115594134Y-85286361D01*
X115594969Y-85356226D01*
X115582970Y-85384714D01*
X115576794Y-85395410D01*
X115576793Y-85395413D01*
X115549500Y-85497273D01*
X115549500Y-85602727D01*
X115576793Y-85704587D01*
X115629520Y-85795913D01*
X115704087Y-85870480D01*
X115795413Y-85923207D01*
X115897273Y-85950500D01*
X115897275Y-85950500D01*
X116002725Y-85950500D01*
X116002727Y-85950500D01*
X116104587Y-85923207D01*
X116195913Y-85870480D01*
X116270480Y-85795913D01*
X116323207Y-85704587D01*
X116350500Y-85602727D01*
X116350500Y-85497273D01*
X116323207Y-85395413D01*
X116270480Y-85304087D01*
X116195913Y-85229520D01*
X116104587Y-85176793D01*
X116002727Y-85149500D01*
X116002726Y-85149500D01*
X115994877Y-85147397D01*
X115995613Y-85144648D01*
X115944307Y-85121934D01*
X115905852Y-85063598D01*
X115905041Y-84993734D01*
X115917028Y-84965287D01*
X115923207Y-84954587D01*
X115950500Y-84852727D01*
X115950500Y-84747273D01*
X115923207Y-84645413D01*
X115901119Y-84607155D01*
X159815000Y-84607155D01*
X159815000Y-85255000D01*
X160731988Y-85255000D01*
X160699075Y-85312007D01*
X160665000Y-85439174D01*
X160665000Y-85570826D01*
X160699075Y-85697993D01*
X160731988Y-85755000D01*
X159815000Y-85755000D01*
X159815000Y-86402844D01*
X159821401Y-86462372D01*
X159821403Y-86462379D01*
X159871645Y-86597086D01*
X159871649Y-86597093D01*
X159957809Y-86712187D01*
X159957812Y-86712190D01*
X160072906Y-86798350D01*
X160072913Y-86798354D01*
X160207620Y-86848596D01*
X160207627Y-86848598D01*
X160267155Y-86854999D01*
X160267172Y-86855000D01*
X160669435Y-86855000D01*
X160736474Y-86874685D01*
X160782229Y-86927489D01*
X160792173Y-86996647D01*
X160763148Y-87060203D01*
X160716888Y-87093561D01*
X160667403Y-87114058D01*
X160495342Y-87229024D01*
X160349024Y-87375342D01*
X160234058Y-87547403D01*
X160154870Y-87738579D01*
X160154868Y-87738587D01*
X160114500Y-87941530D01*
X160114500Y-88148469D01*
X160154868Y-88351412D01*
X160154870Y-88351420D01*
X160234059Y-88542598D01*
X160269836Y-88596142D01*
X160349024Y-88714657D01*
X160495342Y-88860975D01*
X160495345Y-88860977D01*
X160667402Y-88975941D01*
X160858580Y-89055130D01*
X161061530Y-89095499D01*
X161061534Y-89095500D01*
X161061535Y-89095500D01*
X161268466Y-89095500D01*
X161268467Y-89095499D01*
X161471420Y-89055130D01*
X161662598Y-88975941D01*
X161834655Y-88860977D01*
X161980977Y-88714655D01*
X162095941Y-88542598D01*
X162175130Y-88351420D01*
X162215500Y-88148465D01*
X162215500Y-87941535D01*
X162175130Y-87738580D01*
X162095941Y-87547402D01*
X161980977Y-87375345D01*
X161980975Y-87375342D01*
X161834657Y-87229024D01*
X161746751Y-87170288D01*
X161662598Y-87114059D01*
X161657354Y-87111887D01*
X161613112Y-87093561D01*
X161558709Y-87049720D01*
X161536644Y-86983426D01*
X161553923Y-86915726D01*
X161605061Y-86868116D01*
X161660565Y-86855000D01*
X162062828Y-86855000D01*
X162062844Y-86854999D01*
X162122372Y-86848598D01*
X162122379Y-86848596D01*
X162257086Y-86798354D01*
X162257093Y-86798350D01*
X162372187Y-86712190D01*
X162372190Y-86712187D01*
X162458350Y-86597093D01*
X162458354Y-86597086D01*
X162508596Y-86462379D01*
X162508598Y-86462372D01*
X162514999Y-86402844D01*
X162515000Y-86402827D01*
X162515000Y-85755000D01*
X161598012Y-85755000D01*
X161630925Y-85697993D01*
X161665000Y-85570826D01*
X161665000Y-85439174D01*
X161630925Y-85312007D01*
X161598012Y-85255000D01*
X162515000Y-85255000D01*
X162515000Y-84607172D01*
X162514999Y-84607155D01*
X162508598Y-84547627D01*
X162508596Y-84547620D01*
X162458354Y-84412913D01*
X162458350Y-84412906D01*
X162372190Y-84297812D01*
X162372187Y-84297809D01*
X162257093Y-84211649D01*
X162257086Y-84211645D01*
X162122379Y-84161403D01*
X162122372Y-84161401D01*
X162062844Y-84155000D01*
X161415000Y-84155000D01*
X161415000Y-85071988D01*
X161357993Y-85039075D01*
X161230826Y-85005000D01*
X161099174Y-85005000D01*
X160972007Y-85039075D01*
X160915000Y-85071988D01*
X160915000Y-84155000D01*
X160267155Y-84155000D01*
X160207627Y-84161401D01*
X160207620Y-84161403D01*
X160072913Y-84211645D01*
X160072906Y-84211649D01*
X159957812Y-84297809D01*
X159957809Y-84297812D01*
X159871649Y-84412906D01*
X159871645Y-84412913D01*
X159821403Y-84547620D01*
X159821401Y-84547627D01*
X159815000Y-84607155D01*
X115901119Y-84607155D01*
X115870480Y-84554087D01*
X115795913Y-84479520D01*
X115704587Y-84426793D01*
X115602727Y-84399500D01*
X115497273Y-84399500D01*
X115395413Y-84426793D01*
X115395410Y-84426794D01*
X115304085Y-84479521D01*
X115229521Y-84554085D01*
X115176794Y-84645410D01*
X115176794Y-84645411D01*
X115176793Y-84645413D01*
X115149500Y-84747273D01*
X100500500Y-84747273D01*
X100500500Y-83738712D01*
X109487069Y-83738712D01*
X109487069Y-83870496D01*
X109504123Y-83934143D01*
X109521177Y-83997791D01*
X109554123Y-84054854D01*
X109587069Y-84111918D01*
X109680255Y-84205104D01*
X109794383Y-84270996D01*
X109921677Y-84305104D01*
X109921679Y-84305104D01*
X110053459Y-84305104D01*
X110053461Y-84305104D01*
X110180755Y-84270996D01*
X110294883Y-84205104D01*
X110388069Y-84111918D01*
X110453961Y-83997790D01*
X110488069Y-83870496D01*
X110488069Y-83738712D01*
X110453961Y-83611418D01*
X110452628Y-83609110D01*
X110429406Y-83568888D01*
X110388069Y-83497290D01*
X110294883Y-83404104D01*
X110231800Y-83367683D01*
X110180756Y-83338212D01*
X110165439Y-83334108D01*
X110999500Y-83334108D01*
X110999500Y-83465891D01*
X111033608Y-83593187D01*
X111044133Y-83611416D01*
X111099500Y-83707314D01*
X111192686Y-83800500D01*
X111306814Y-83866392D01*
X111434108Y-83900500D01*
X111434110Y-83900500D01*
X111565890Y-83900500D01*
X111565892Y-83900500D01*
X111693186Y-83866392D01*
X111807314Y-83800500D01*
X111900500Y-83707314D01*
X111957199Y-83609108D01*
X113924500Y-83609108D01*
X113924500Y-83740892D01*
X113940472Y-83800500D01*
X113958608Y-83868187D01*
X113991554Y-83925250D01*
X114024500Y-83982314D01*
X114117686Y-84075500D01*
X114231814Y-84141392D01*
X114359108Y-84175500D01*
X114359110Y-84175500D01*
X114490890Y-84175500D01*
X114490892Y-84175500D01*
X114618186Y-84141392D01*
X114732314Y-84075500D01*
X114825500Y-83982314D01*
X114891392Y-83868186D01*
X114925500Y-83740892D01*
X114925500Y-83609108D01*
X114891392Y-83481814D01*
X114825500Y-83367686D01*
X114732314Y-83274500D01*
X114675250Y-83241554D01*
X114618187Y-83208608D01*
X114554539Y-83191554D01*
X114490892Y-83174500D01*
X114359108Y-83174500D01*
X114231812Y-83208608D01*
X114117686Y-83274500D01*
X114117683Y-83274502D01*
X114024502Y-83367683D01*
X114024500Y-83367686D01*
X113958608Y-83481812D01*
X113954462Y-83497287D01*
X113924500Y-83609108D01*
X111957199Y-83609108D01*
X111966392Y-83593186D01*
X112000500Y-83465892D01*
X112000500Y-83334108D01*
X111966392Y-83206814D01*
X111900500Y-83092686D01*
X111807314Y-82999500D01*
X111750250Y-82966554D01*
X111693187Y-82933608D01*
X111629539Y-82916554D01*
X111565892Y-82899500D01*
X111434108Y-82899500D01*
X111306812Y-82933608D01*
X111192686Y-82999500D01*
X111192683Y-82999502D01*
X111099502Y-83092683D01*
X111099500Y-83092686D01*
X111033608Y-83206812D01*
X110999500Y-83334108D01*
X110165439Y-83334108D01*
X110117108Y-83321158D01*
X110053461Y-83304104D01*
X109921677Y-83304104D01*
X109794381Y-83338212D01*
X109680255Y-83404104D01*
X109680252Y-83404106D01*
X109587071Y-83497287D01*
X109587069Y-83497290D01*
X109521177Y-83611416D01*
X109495482Y-83707313D01*
X109487069Y-83738712D01*
X100500500Y-83738712D01*
X100500500Y-82253750D01*
X100500726Y-82246263D01*
X100518271Y-81956205D01*
X100520076Y-81941340D01*
X100520751Y-81937660D01*
X100571780Y-81659198D01*
X100575364Y-81644664D01*
X100576511Y-81640984D01*
X100660699Y-81370812D01*
X100665997Y-81356842D01*
X100783727Y-81095258D01*
X100790680Y-81082011D01*
X100792586Y-81078858D01*
X100792587Y-81078856D01*
X113899500Y-81078856D01*
X113899500Y-81171143D01*
X113923387Y-81260290D01*
X113923388Y-81260293D01*
X113969526Y-81340205D01*
X113969529Y-81340209D01*
X113969531Y-81340212D01*
X114034788Y-81405469D01*
X114034791Y-81405470D01*
X114034794Y-81405473D01*
X114114706Y-81451611D01*
X114114707Y-81451611D01*
X114114712Y-81451614D01*
X114203856Y-81475500D01*
X114203858Y-81475500D01*
X114296142Y-81475500D01*
X114296144Y-81475500D01*
X114385288Y-81451614D01*
X114465212Y-81405469D01*
X114530469Y-81340212D01*
X114576614Y-81260288D01*
X114600500Y-81171144D01*
X114600500Y-81078856D01*
X114576614Y-80989712D01*
X114576611Y-80989706D01*
X114530473Y-80909794D01*
X114530470Y-80909791D01*
X114530469Y-80909788D01*
X114465212Y-80844531D01*
X114465209Y-80844529D01*
X114465205Y-80844526D01*
X114385293Y-80798388D01*
X114385290Y-80798387D01*
X114385289Y-80798386D01*
X114385288Y-80798386D01*
X114296144Y-80774500D01*
X114203856Y-80774500D01*
X114114712Y-80798386D01*
X114114711Y-80798386D01*
X114114709Y-80798387D01*
X114114706Y-80798388D01*
X114034794Y-80844526D01*
X114034785Y-80844533D01*
X113969533Y-80909785D01*
X113969526Y-80909794D01*
X113923388Y-80989706D01*
X113923387Y-80989709D01*
X113899500Y-81078856D01*
X100792587Y-81078856D01*
X100939075Y-80836534D01*
X100947567Y-80824230D01*
X101124481Y-80598417D01*
X101134396Y-80587226D01*
X101337226Y-80384396D01*
X101348417Y-80374481D01*
X101574230Y-80197567D01*
X101586534Y-80189075D01*
X101832012Y-80040680D01*
X101845258Y-80033727D01*
X102106842Y-79915997D01*
X102120812Y-79910699D01*
X102394668Y-79825362D01*
X102409198Y-79821780D01*
X102691344Y-79770075D01*
X102706201Y-79768271D01*
X102996264Y-79750726D01*
X103003741Y-79750500D01*
X103065892Y-79750500D01*
X103065908Y-79750495D01*
X160449935Y-79746820D01*
X160457415Y-79747045D01*
G37*
%TD.AperFunction*%
%TD*%
M02*
