%TF.GenerationSoftware,KiCad,Pcbnew,10.0.1-10.0.1~ubuntu24.04.1*%
%TF.CreationDate,2026-04-22T13:49:08+10:00*%
%TF.ProjectId,Smart USB Drive - Course,536d6172-7420-4555-9342-204472697665,rev?*%
%TF.SameCoordinates,Original*%
%TF.FileFunction,Copper,L4,Bot*%
%TF.FilePolarity,Positive*%
%FSLAX46Y46*%
G04 Gerber Fmt 4.6, Leading zero omitted, Abs format (unit mm)*
G04 Created by KiCad (PCBNEW 10.0.1-10.0.1~ubuntu24.04.1) date 2026-04-22 13:49:08*
%MOMM*%
%LPD*%
G01*
G04 APERTURE LIST*
%TA.AperFunction,ComponentPad*%
%ADD10C,0.600000*%
%TD*%
%TA.AperFunction,ComponentPad*%
%ADD11O,2.100000X1.000000*%
%TD*%
%TA.AperFunction,ComponentPad*%
%ADD12O,1.600000X1.000000*%
%TD*%
%TA.AperFunction,ComponentPad*%
%ADD13R,1.700000X1.700000*%
%TD*%
%TA.AperFunction,ComponentPad*%
%ADD14O,1.700000X1.700000*%
%TD*%
%TA.AperFunction,ComponentPad*%
%ADD15C,1.700000*%
%TD*%
%TA.AperFunction,ViaPad*%
%ADD16C,0.300000*%
%TD*%
%TA.AperFunction,ViaPad*%
%ADD17C,0.600000*%
%TD*%
%TA.AperFunction,ViaPad*%
%ADD18C,0.800000*%
%TD*%
%TA.AperFunction,ViaPad*%
%ADD19C,0.400000*%
%TD*%
%TA.AperFunction,Conductor*%
%ADD20C,0.500000*%
%TD*%
%TA.AperFunction,Conductor*%
%ADD21C,0.200000*%
%TD*%
%TA.AperFunction,Conductor*%
%ADD22C,0.300000*%
%TD*%
%TA.AperFunction,Conductor*%
%ADD23C,0.150000*%
%TD*%
%TA.AperFunction,Conductor*%
%ADD24C,0.113000*%
%TD*%
%TA.AperFunction,Conductor*%
%ADD25C,0.114000*%
%TD*%
G04 APERTURE END LIST*
D10*
%TO.P,U501,57,GND_57*%
%TO.N,GND*%
X119225000Y-112775000D03*
X120500000Y-112775000D03*
X121775000Y-112775000D03*
X119225000Y-111500000D03*
X120500000Y-111500000D03*
X121775000Y-111500000D03*
X119225000Y-110225000D03*
X120500000Y-110225000D03*
X121775000Y-110225000D03*
%TD*%
D11*
%TO.P,J102,SH,SHIELD_SH*%
%TO.N,Net-(J102-SHIELD)*%
X107355000Y-86180000D03*
D12*
X103175000Y-86180000D03*
D11*
X107355000Y-94820000D03*
D12*
X103175000Y-94820000D03*
%TD*%
D11*
%TO.P,J101,SH,SHIELD_SH*%
%TO.N,Net-(J101-SHIELD)*%
X107355000Y-104180000D03*
D12*
X103175000Y-104180000D03*
D11*
X107355000Y-112820000D03*
D12*
X103175000Y-112820000D03*
%TD*%
D13*
%TO.P,DS701,1,GND_1*%
%TO.N,GND*%
X161165000Y-85505000D03*
D14*
%TO.P,DS701,2,VCC_2*%
%TO.N,+3V3*%
X161165000Y-88045000D03*
%TO.P,DS701,3,SCL_3*%
%TO.N,/RP2040/I2C0_SCL*%
X161165000Y-90585000D03*
%TO.P,DS701,4,SDA_4*%
%TO.N,/RP2040/I2C0_SDA*%
X161165000Y-93125000D03*
%TD*%
D13*
%TO.P,J501,1,Pin_1_1*%
%TO.N,/RP2040/~{USB_BOOT}*%
X140200000Y-114975000D03*
D15*
%TO.P,J501,2,Pin_2_2*%
%TO.N,GND*%
X140200000Y-112435000D03*
%TD*%
D16*
%TO.N,GND*%
X126400000Y-84700000D03*
X127100000Y-84700000D03*
D17*
X117650000Y-88534000D03*
D16*
X145750000Y-91500000D03*
D18*
X147225000Y-85475000D03*
D16*
X145250000Y-91000000D03*
D18*
X112675000Y-83950000D03*
D17*
X130900000Y-96200000D03*
X122050000Y-103775000D03*
D16*
X147750000Y-89500000D03*
D19*
X147850000Y-97600000D03*
D18*
X103225000Y-81350000D03*
D17*
X121417736Y-97650000D03*
X113925000Y-103225000D03*
X133700000Y-84975000D03*
X115188235Y-112438235D03*
X103400000Y-101450000D03*
X119891026Y-85783974D03*
X113000000Y-106700000D03*
X132425000Y-85025000D03*
X115293024Y-106897060D03*
D18*
X129339216Y-90535784D03*
D17*
X128650000Y-81200000D03*
D16*
X149750000Y-92500000D03*
D18*
X155525000Y-110175000D03*
D17*
X130350000Y-85100000D03*
X136500000Y-85350000D03*
X120975000Y-82025000D03*
D18*
X127375000Y-117425000D03*
D17*
X122325000Y-97775000D03*
X111550000Y-105850000D03*
X123950000Y-102275000D03*
X123550000Y-103950000D03*
X118400000Y-92200000D03*
D18*
X109350000Y-84575000D03*
D17*
X128000000Y-111150000D03*
X117175000Y-105525000D03*
D16*
X148750000Y-92000000D03*
D17*
X130075000Y-110125000D03*
X126700000Y-99450000D03*
X132625000Y-96200000D03*
X123775000Y-105050000D03*
X138975000Y-99750000D03*
D16*
X147250000Y-89000000D03*
D19*
X145850000Y-97600000D03*
D16*
X144250000Y-93000000D03*
D19*
X146850000Y-97600000D03*
D16*
X149250000Y-92000000D03*
D19*
X144800000Y-97600000D03*
D17*
X155000000Y-94950000D03*
D18*
X112350000Y-115450000D03*
D19*
X143750000Y-97600000D03*
D17*
X112450000Y-101700000D03*
X142900000Y-94500000D03*
D16*
X144250000Y-91000000D03*
D17*
X155700000Y-97000000D03*
X125500000Y-83450000D03*
D19*
X142700000Y-97650000D03*
D17*
X154000000Y-82000000D03*
X130007459Y-94149192D03*
X149300000Y-94700000D03*
X105787500Y-115962500D03*
X112750000Y-92100000D03*
X123925000Y-96775000D03*
X146700000Y-94700000D03*
X109750000Y-116525000D03*
D16*
X149250000Y-93000000D03*
X149750000Y-92000000D03*
D17*
X136500000Y-102450000D03*
D18*
X111100000Y-87275000D03*
D17*
X157200000Y-92550000D03*
D19*
X133550000Y-103850000D03*
D17*
X128000000Y-110075000D03*
D19*
X142700000Y-98585000D03*
X144800000Y-98555000D03*
X113950000Y-116700000D03*
D17*
X128250000Y-92550000D03*
D16*
X110650000Y-96500000D03*
D17*
X136125000Y-83925000D03*
D19*
X143775000Y-98555000D03*
D16*
X143250000Y-91000000D03*
X110650000Y-99000000D03*
X146250000Y-91500000D03*
D17*
X155500000Y-89450000D03*
X122725000Y-104950000D03*
X127525000Y-106350000D03*
X149800000Y-115050000D03*
X128550000Y-101325000D03*
X120600000Y-97700000D03*
D18*
X111750000Y-117500000D03*
D19*
X114450000Y-109000000D03*
D17*
X123100000Y-112475000D03*
D19*
X131850000Y-106000000D03*
D17*
X136956495Y-90643505D03*
X118900000Y-93050000D03*
X145150000Y-81140000D03*
X155869101Y-95000392D03*
D16*
X125650000Y-89050000D03*
D18*
X109650000Y-112800000D03*
D16*
X110737500Y-90517500D03*
D17*
X160575000Y-104275000D03*
X150600000Y-94700000D03*
X117675000Y-89550000D03*
D19*
X147875000Y-98560000D03*
D16*
X147250000Y-91500000D03*
D19*
X132050000Y-82100000D03*
D16*
X110025000Y-109000000D03*
D19*
X128390000Y-88570000D03*
D17*
X148450000Y-81975000D03*
D18*
X155225000Y-103825000D03*
D16*
X144250000Y-92000000D03*
D17*
X102100000Y-81800000D03*
D19*
X109250000Y-114900000D03*
D17*
X149200000Y-86100000D03*
D19*
X124800000Y-80850000D03*
X102900000Y-98000000D03*
D17*
X129150000Y-96975000D03*
D16*
X147750000Y-90000000D03*
X145250000Y-90500000D03*
D17*
X132850000Y-100925000D03*
X120750000Y-86150000D03*
X146175000Y-103275000D03*
X151100000Y-88750000D03*
X111750000Y-92050000D03*
D16*
X149250000Y-91500000D03*
X115250000Y-103750000D03*
D17*
X134200000Y-100300000D03*
X146240000Y-81170000D03*
D16*
X124450000Y-90250000D03*
X125700000Y-90300000D03*
D19*
X120287561Y-91612439D03*
D16*
X124450000Y-89050000D03*
D17*
X139125000Y-90600000D03*
X135850000Y-90675000D03*
X100800000Y-98645407D03*
X141375000Y-89375000D03*
D19*
X133540000Y-86568500D03*
D17*
X120025000Y-105927818D03*
X109199461Y-99900000D03*
X151100000Y-90100000D03*
X134425000Y-107900000D03*
D18*
X101300000Y-103775000D03*
D19*
X119280000Y-90150000D03*
D17*
X138700000Y-87300000D03*
X114367525Y-99082475D03*
D16*
X146750000Y-89000000D03*
D17*
X125150000Y-96825000D03*
D19*
X135100000Y-117150000D03*
X122070000Y-92750000D03*
D17*
X120250000Y-92650000D03*
X151100000Y-87475000D03*
X101475000Y-83000000D03*
X128350000Y-104275000D03*
X149850000Y-116700000D03*
X137125000Y-106325000D03*
X143800000Y-86100000D03*
D16*
X110787500Y-109000000D03*
D17*
X109450000Y-104400000D03*
X121088068Y-95361932D03*
X139700000Y-94593500D03*
X141600000Y-87200000D03*
D19*
X114450000Y-107850000D03*
X113800000Y-113550000D03*
D16*
X123300000Y-90250000D03*
D17*
X150822409Y-93074696D03*
D16*
X117150000Y-86800000D03*
D17*
X146375000Y-108800000D03*
X138800000Y-86000000D03*
X148000000Y-94700000D03*
X130975000Y-89950000D03*
D19*
X129750000Y-83050000D03*
D17*
X149750000Y-113225000D03*
X141400000Y-94600000D03*
D16*
X123350000Y-89000000D03*
D19*
X119270000Y-88284000D03*
D16*
X149750000Y-91000000D03*
D17*
X160475000Y-109400000D03*
X122300000Y-82250000D03*
X136000000Y-94400000D03*
X137175000Y-86100000D03*
D19*
X141860000Y-90370000D03*
D16*
X110950000Y-102250000D03*
D19*
X135830000Y-86970000D03*
D17*
X104700000Y-116000000D03*
X118475000Y-83275000D03*
D19*
X146850000Y-98555000D03*
D17*
X120000000Y-82375000D03*
D19*
X114350000Y-111500000D03*
D16*
X109975000Y-90517500D03*
D17*
X110250000Y-93025000D03*
X131150000Y-85700000D03*
D18*
X109125000Y-86100000D03*
D19*
X113300000Y-112500000D03*
D17*
X151100000Y-86300000D03*
D19*
X145825000Y-98555000D03*
D17*
X141600000Y-86100000D03*
D16*
X117150000Y-86300000D03*
D17*
X105287501Y-81987501D03*
D16*
X112850000Y-85300000D03*
D17*
X145800000Y-86100000D03*
X138100000Y-94593500D03*
X120150000Y-94500000D03*
X120200000Y-93550000D03*
X143075000Y-81975000D03*
%TO.N,/RP2040/I2C_SDA*%
X150225000Y-111100000D03*
X119648700Y-116300000D03*
%TO.N,/RP2040/I2C_SCL*%
X149638370Y-110556062D03*
X120326473Y-115875000D03*
%TO.N,/RP2040/I2C0_SDA*%
X119275000Y-102150000D03*
X117375735Y-102549265D03*
X115950000Y-85550000D03*
X118400000Y-110550000D03*
%TO.N,/RP2040/I2C0_SCL*%
X122777555Y-111122445D03*
X116719236Y-101625001D03*
X115550000Y-84800000D03*
%TO.N,/RP2040/GPIO14*%
X127525000Y-113950000D03*
X147850000Y-107475000D03*
%TO.N,/RP2040/GPIO15*%
X125435050Y-112910000D03*
X147900000Y-106000000D03*
%TO.N,/RP2040/SWCLK*%
X138075000Y-108875000D03*
X127775000Y-109000000D03*
%TO.N,/RP2040/SWD*%
X138575000Y-104675000D03*
X122825000Y-109275000D03*
%TO.N,/RP2040/RUN*%
X127925000Y-108200000D03*
X138975000Y-107425000D03*
%TO.N,/RP2040/LED_A*%
X134050000Y-113050000D03*
X125800000Y-108350000D03*
%TO.N,/RP2040/LED_B*%
X125856998Y-107552031D03*
X134929603Y-112246032D03*
%TO.N,/RP2040/LED_C*%
X134850000Y-111450000D03*
X125150000Y-107050000D03*
D19*
%TO.N,/ORING_POWER/NOTIFY_3V3_CON1*%
X113310000Y-100350000D03*
X119800000Y-106775000D03*
X109647500Y-97522500D03*
%TO.N,/ORING_POWER/NOTIFY_3V3_CON2*%
X118540000Y-106850000D03*
X108990000Y-100760000D03*
D17*
%TO.N,/RP2040/QSPI_SD3*%
X126350000Y-114550000D03*
X117971629Y-112168161D03*
%TO.N,/RP2040/QSPI_SCLK*%
X125118847Y-114500000D03*
X117964613Y-113107179D03*
D19*
%TO.N,/RP2040/QSPI_SD0*%
X129470000Y-115440000D03*
D17*
X115487500Y-115087500D03*
%TO.N,/RP2040/QSPI_SD2*%
X116050000Y-114125000D03*
D19*
X126630000Y-117850000D03*
D17*
%TO.N,/RP2040/QSPI_SD1*%
X118075000Y-113925000D03*
X124179032Y-114991935D03*
%TO.N,/RP2040/QSPI_SS*%
X129900000Y-116450000D03*
X125523686Y-116874999D03*
X137975000Y-117575000D03*
X117050000Y-115725000D03*
D19*
%TO.N,/USB_BRIDGE/MMCD1*%
X120425000Y-88500000D03*
X135200000Y-87506500D03*
%TO.N,/VBUS_MCU*%
X103600000Y-100250000D03*
X107562500Y-98212500D03*
%TO.N,Net-(U201-ST)*%
X108690000Y-97890000D03*
D16*
X110650000Y-99650000D03*
D18*
%TO.N,/ORING_POWER/ORING_5V*%
X118195014Y-95800000D03*
X112687500Y-94812500D03*
X114312500Y-95362500D03*
X115425000Y-96975000D03*
X113375000Y-97725000D03*
X116375000Y-95500000D03*
X113575000Y-96525000D03*
X115450000Y-97975000D03*
D19*
%TO.N,/USB_BRIDGE/MMCD2*%
X141025000Y-90275000D03*
X129350000Y-88550000D03*
%TO.N,/VBUS_STORAGE_IN+*%
X114200000Y-87050000D03*
X114250000Y-81125000D03*
D18*
%TO.N,Net-(J102-VBUS-PadA4)*%
X109250000Y-92575000D03*
X111500000Y-83400000D03*
X109275000Y-87525000D03*
D17*
%TO.N,/USB_BRIDGE/STORAGE_USB+*%
X106251739Y-90226739D03*
X106175000Y-91250000D03*
%TO.N,/USB_BRIDGE/STORAGE_USB-*%
X106825000Y-89750000D03*
X106775000Y-90750000D03*
D16*
%TO.N,/USB_BRIDGE/MMCD4*%
X143750000Y-92500000D03*
D19*
X129975000Y-93500000D03*
%TO.N,/USB_BRIDGE/MMCD7*%
X120050000Y-90325000D03*
D16*
X143750000Y-91000000D03*
%TO.N,/USB_BRIDGE/MMCD6*%
X143750000Y-91500000D03*
D19*
X120300000Y-91025000D03*
D18*
%TO.N,Net-(J101-VBUS-PadA4)*%
X109600000Y-105450000D03*
X107400000Y-102300000D03*
X109826041Y-111173959D03*
%TO.N,/VBUS_STORAGE*%
X114425000Y-83675000D03*
X110012336Y-94337664D03*
X109987569Y-83804604D03*
D17*
%TO.N,/RP2040/RP_USB_D+*%
X106276739Y-108151739D03*
X106276739Y-109200000D03*
%TO.N,/RP2040/RP_USB_D-*%
X106274507Y-107411740D03*
X106800000Y-108675000D03*
D19*
%TO.N,/USB_BRIDGE/MMCD0*%
X134135000Y-87035000D03*
X119825000Y-88575000D03*
%TO.N,/USB_BRIDGE/MMCD3*%
X136710000Y-93950000D03*
D16*
X143750000Y-93000000D03*
%TO.N,/USB_BRIDGE/MMCD5*%
X143750000Y-92000000D03*
D19*
X122499999Y-93100000D03*
D17*
%TO.N,Net-(U601-RST_N)*%
X145050000Y-94525000D03*
D16*
X147750000Y-91500000D03*
%TO.N,/eMMC_STORAGE/MMC_CMD_L*%
X148750000Y-91500000D03*
D19*
X122900000Y-95625000D03*
D16*
%TO.N,/eMMC_STORAGE/MMC_CLK_L*%
X148750000Y-91000000D03*
D19*
X121825000Y-95150000D03*
%TD*%
%TO.N,GND*%
D20*
X147225000Y-85475000D02*
X147225000Y-85500000D01*
X109050000Y-84575000D02*
X107600000Y-83125000D01*
D21*
X142900000Y-94500000D02*
X144250000Y-93150000D01*
D20*
X107600000Y-81675000D02*
X106425000Y-80500000D01*
X106425000Y-80500000D02*
X104075000Y-80500000D01*
D22*
X144650000Y-93000000D02*
X144250000Y-93000000D01*
X147350000Y-89350000D02*
X147350000Y-89100000D01*
D20*
X147225000Y-85500000D02*
X147350000Y-85625000D01*
D21*
X149250000Y-92000000D02*
X149250000Y-92300000D01*
D22*
X145750000Y-91500000D02*
X145750000Y-91900000D01*
X145250000Y-91000000D02*
X145750000Y-91500000D01*
X145750000Y-91500000D02*
X145750000Y-90950000D01*
X145750000Y-91900000D02*
X144650000Y-93000000D01*
D20*
X107600000Y-83125000D02*
X107600000Y-81675000D01*
D21*
X148750000Y-92000000D02*
X149250000Y-92000000D01*
D20*
X147350000Y-89100000D02*
X147650000Y-89400000D01*
D21*
X149450000Y-92500000D02*
X149750000Y-92500000D01*
D22*
X145750000Y-90950000D02*
X147350000Y-89350000D01*
D20*
X147650000Y-89400000D02*
X147750000Y-89400000D01*
X104075000Y-80500000D02*
X103225000Y-81350000D01*
X109350000Y-84575000D02*
X109050000Y-84575000D01*
D21*
X144250000Y-93150000D02*
X144250000Y-93000000D01*
X149250000Y-92300000D02*
X149450000Y-92500000D01*
D20*
X147350000Y-85625000D02*
X147350000Y-89100000D01*
D22*
X144250000Y-91000000D02*
X145250000Y-91000000D01*
X149502513Y-91000000D02*
X149750000Y-91000000D01*
X149750000Y-91000000D02*
X149850000Y-91000000D01*
X149250000Y-91500000D02*
X149250000Y-91252513D01*
X150822409Y-93074696D02*
X150822409Y-92497409D01*
X150822409Y-92497409D02*
X150325000Y-92000000D01*
X149250000Y-91252513D02*
X149502513Y-91000000D01*
X150325000Y-92000000D02*
X149750000Y-92000000D01*
%TO.N,/RP2040/I2C_SDA*%
D21*
X138955000Y-111285000D02*
X135250000Y-114990000D01*
X128030000Y-114990000D02*
X126745000Y-116275000D01*
X121215000Y-116275000D02*
X120990000Y-116500000D01*
X150225000Y-111100000D02*
X150040000Y-111285000D01*
X119848700Y-116500000D02*
X119648700Y-116300000D01*
X126745000Y-116275000D02*
X121215000Y-116275000D01*
X120990000Y-116500000D02*
X119848700Y-116500000D01*
X135250000Y-114990000D02*
X128030000Y-114990000D01*
X150040000Y-111285000D02*
X138955000Y-111285000D01*
%TO.N,/RP2040/I2C_SCL*%
X135015686Y-114250000D02*
X134965685Y-114300000D01*
X149622308Y-110540000D02*
X138732058Y-110540000D01*
X126490000Y-115620000D02*
X120581473Y-115620000D01*
X138732058Y-110540000D02*
X135022057Y-114250000D01*
X127560000Y-114550000D02*
X126490000Y-115620000D01*
X127773529Y-114550000D02*
X127560000Y-114550000D01*
X134965685Y-114300000D02*
X134956372Y-114300000D01*
X134793872Y-114462500D02*
X127861029Y-114462500D01*
X127861029Y-114462500D02*
X127773529Y-114550000D01*
X135022057Y-114250000D02*
X135015686Y-114250000D01*
X120581473Y-115620000D02*
X120326473Y-115875000D01*
X149638370Y-110556062D02*
X149622308Y-110540000D01*
X134956372Y-114300000D02*
X134793872Y-114462500D01*
%TO.N,/RP2040/I2C0_SDA*%
X118400000Y-110125000D02*
X119100000Y-109425000D01*
X116425000Y-83390686D02*
X119455686Y-80360000D01*
X119100000Y-101975000D02*
X119100000Y-100525000D01*
X158160000Y-90050000D02*
X161160000Y-93050000D01*
X119100000Y-109425000D02*
X120525000Y-109425000D01*
X125017107Y-80360000D02*
X156410000Y-80360000D01*
X124582893Y-80360000D02*
X124592893Y-80350000D01*
X121050000Y-108900000D02*
X121050000Y-105940686D01*
X117495014Y-98920014D02*
X117495014Y-93045014D01*
X158160000Y-82110000D02*
X158160000Y-90050000D01*
X156410000Y-80360000D02*
X158160000Y-82110000D01*
D23*
X161825000Y-93375000D02*
X161700000Y-93500000D01*
D21*
X117495014Y-93045014D02*
X116000000Y-91550000D01*
X116000000Y-91550000D02*
X116000000Y-85600000D01*
X161160000Y-93050000D02*
X161605000Y-93050000D01*
X121050000Y-105940686D02*
X117658579Y-102549265D01*
X124592893Y-80350000D02*
X125007107Y-80350000D01*
X115950000Y-85550000D02*
X116425000Y-85075000D01*
X116425000Y-85075000D02*
X116425000Y-83390686D01*
X118400000Y-110550000D02*
X118400000Y-110125000D01*
X125007107Y-80350000D02*
X125017107Y-80360000D01*
X117658579Y-102549265D02*
X117375735Y-102549265D01*
X119455686Y-80360000D02*
X124582893Y-80360000D01*
X116000000Y-85600000D02*
X115950000Y-85550000D01*
X120525000Y-109425000D02*
X121050000Y-108900000D01*
X119275000Y-102150000D02*
X119100000Y-101975000D01*
X119100000Y-100525000D02*
X117495014Y-98920014D01*
%TO.N,/RP2040/I2C0_SCL*%
X122777555Y-111122445D02*
X122825000Y-111075000D01*
X159025000Y-82015000D02*
X159025000Y-88575000D01*
X119076030Y-79848970D02*
X156858970Y-79848970D01*
X116719236Y-101625001D02*
X115125000Y-100030765D01*
X115125000Y-98850000D02*
X114600000Y-98325000D01*
X115350000Y-95825000D02*
X115350000Y-85000000D01*
X115350000Y-85000000D02*
X115550000Y-84800000D01*
X121750000Y-105550000D02*
X117825001Y-101625001D01*
X121750000Y-109175000D02*
X121750000Y-105550000D01*
X114600000Y-96575000D02*
X115350000Y-95825000D01*
X114600000Y-98325000D02*
X114600000Y-96575000D01*
X156858970Y-79848970D02*
X159025000Y-82015000D01*
X122825000Y-110250000D02*
X121750000Y-109175000D01*
X122825000Y-111075000D02*
X122825000Y-110250000D01*
X115125000Y-100030765D02*
X115125000Y-98850000D01*
X117825001Y-101625001D02*
X116719236Y-101625001D01*
X160960000Y-90510000D02*
X161605000Y-90510000D01*
X159025000Y-88575000D02*
X160960000Y-90510000D01*
X115550000Y-83375000D02*
X119076030Y-79848970D01*
X115550000Y-84800000D02*
X115550000Y-83375000D01*
%TO.N,/RP2040/GPIO14*%
X134800000Y-113900000D02*
X134790685Y-113900000D01*
X134856372Y-113850000D02*
X134850000Y-113850000D01*
X140156372Y-108550000D02*
X134856372Y-113850000D01*
X147850000Y-107475000D02*
X142940686Y-107475000D01*
X142940686Y-107475000D02*
X141865686Y-108550000D01*
X134850000Y-113850000D02*
X134800000Y-113900000D01*
X141865686Y-108550000D02*
X140156372Y-108550000D01*
X134640686Y-114050000D02*
X127625000Y-114050000D01*
X134790685Y-113900000D02*
X134640686Y-114050000D01*
X127625000Y-114050000D02*
X127525000Y-113950000D01*
%TO.N,/RP2040/GPIO15*%
X128073529Y-113650000D02*
X127673529Y-113250000D01*
X147900000Y-106000000D02*
X147100000Y-106800000D01*
X140050000Y-108000000D02*
X134400000Y-113650000D01*
X142800000Y-106800000D02*
X141600000Y-108000000D01*
X127673529Y-113250000D02*
X125775050Y-113250000D01*
X141600000Y-108000000D02*
X140050000Y-108000000D01*
X134400000Y-113650000D02*
X128073529Y-113650000D01*
X125775050Y-113250000D02*
X125435050Y-112910000D01*
X147100000Y-106800000D02*
X142800000Y-106800000D01*
%TO.N,/RP2040/SWCLK*%
X128859314Y-109000000D02*
X127775000Y-109000000D01*
X129009314Y-109150000D02*
X128859314Y-109000000D01*
X138075000Y-108875000D02*
X137800000Y-109150000D01*
X137800000Y-109150000D02*
X129009314Y-109150000D01*
%TO.N,/RP2040/SWD*%
X138075000Y-105175000D02*
X124850000Y-105175000D01*
X122825000Y-107200000D02*
X122825000Y-109275000D01*
X124850000Y-105175000D02*
X122825000Y-107200000D01*
X138575000Y-104675000D02*
X138075000Y-105175000D01*
%TO.N,/RP2040/RUN*%
X137350000Y-108750000D02*
X138675000Y-107425000D01*
X127925000Y-108200000D02*
X128625000Y-108200000D01*
X138675000Y-107425000D02*
X138975000Y-107425000D01*
X129175000Y-108750000D02*
X137350000Y-108750000D01*
X128625000Y-108200000D02*
X129175000Y-108750000D01*
%TO.N,/RP2040/LED_A*%
X125875000Y-108375000D02*
X125900000Y-108350000D01*
X127568628Y-112850000D02*
X125875000Y-111156371D01*
X125875000Y-111156371D02*
X125875000Y-108375000D01*
X125900000Y-108350000D02*
X125800000Y-108350000D01*
X133850000Y-112850000D02*
X127568628Y-112850000D01*
X134050000Y-113050000D02*
X133850000Y-112850000D01*
%TO.N,/RP2040/LED_B*%
X125856998Y-107558469D02*
X125856998Y-107552031D01*
X126400000Y-108101471D02*
X125856998Y-107558469D01*
X134725635Y-112450000D02*
X127734314Y-112450000D01*
X134929603Y-112246032D02*
X134725635Y-112450000D01*
X127734314Y-112450000D02*
X126400000Y-111115686D01*
X126400000Y-111115686D02*
X126400000Y-108101471D01*
%TO.N,/RP2040/LED_C*%
X126925000Y-107750000D02*
X126000000Y-106825000D01*
X127900000Y-112050000D02*
X126925000Y-111075000D01*
X134850000Y-111450000D02*
X134250000Y-112050000D01*
X134250000Y-112050000D02*
X127900000Y-112050000D01*
X126000000Y-106825000D02*
X125375000Y-106825000D01*
X125375000Y-106825000D02*
X125150000Y-107050000D01*
X126925000Y-111075000D02*
X126925000Y-107750000D01*
%TO.N,/ORING_POWER/NOTIFY_3V3_CON1*%
X113310000Y-100350000D02*
X113485000Y-100525000D01*
X113310000Y-100350000D02*
X113125000Y-100165000D01*
X111150000Y-97875000D02*
X110000000Y-97875000D01*
X110000000Y-97875000D02*
X109647500Y-97522500D01*
X113550000Y-100525000D02*
X119800000Y-106775000D01*
X113125000Y-99850000D02*
X111150000Y-97875000D01*
X113485000Y-100525000D02*
X113550000Y-100525000D01*
X113125000Y-100165000D02*
X113125000Y-99850000D01*
%TO.N,/ORING_POWER/NOTIFY_3V3_CON2*%
X108990000Y-100760000D02*
X108990000Y-101015000D01*
X115750000Y-105950000D02*
X116650000Y-106850000D01*
X116650000Y-106850000D02*
X118540000Y-106850000D01*
X113925000Y-105950000D02*
X115750000Y-105950000D01*
X108990000Y-101015000D02*
X113925000Y-105950000D01*
%TO.N,/RP2040/QSPI_SD3*%
X126350000Y-114550000D02*
X125750000Y-113950000D01*
X118625000Y-113023529D02*
X118625000Y-112750000D01*
X118625000Y-112750000D02*
X118043161Y-112168161D01*
X124475000Y-113950000D02*
X123950000Y-113425000D01*
X125750000Y-113950000D02*
X124475000Y-113950000D01*
X123950000Y-113425000D02*
X119026471Y-113425000D01*
X119026471Y-113425000D02*
X118625000Y-113023529D01*
X118043161Y-112168161D02*
X117971629Y-112168161D01*
%TO.N,/RP2040/QSPI_SCLK*%
X123700000Y-113775000D02*
X118702818Y-113775000D01*
X118702818Y-113775000D02*
X118034997Y-113107179D01*
X124425000Y-114500000D02*
X123700000Y-113775000D01*
X125118847Y-114500000D02*
X124425000Y-114500000D01*
X118034997Y-113107179D02*
X117964613Y-113107179D01*
%TO.N,/RP2040/QSPI_SD0*%
X126315000Y-117425000D02*
X128190000Y-115550000D01*
X128190000Y-115550000D02*
X129360000Y-115550000D01*
X115487500Y-115087500D02*
X117825000Y-117425000D01*
X129360000Y-115550000D02*
X129470000Y-115440000D01*
X117825000Y-117425000D02*
X126315000Y-117425000D01*
%TO.N,/RP2040/QSPI_SD2*%
X114775000Y-115250000D02*
X114775000Y-114525000D01*
X117375000Y-117850000D02*
X114775000Y-115250000D01*
X126630000Y-117850000D02*
X117375000Y-117850000D01*
X114775000Y-114525000D02*
X115175000Y-114125000D01*
X115175000Y-114125000D02*
X116050000Y-114125000D01*
%TO.N,/RP2040/QSPI_SD1*%
X123475000Y-114150000D02*
X118300000Y-114150000D01*
X124179032Y-114854032D02*
X123475000Y-114150000D01*
X118300000Y-114150000D02*
X118075000Y-113925000D01*
X124179032Y-114991935D02*
X124179032Y-114854032D01*
%TO.N,/RP2040/QSPI_SS*%
X129900000Y-116450000D02*
X130150000Y-116450000D01*
X137539950Y-117575000D02*
X137975000Y-117575000D01*
X117050000Y-115750000D02*
X117050000Y-115725000D01*
X118200000Y-116900000D02*
X117050000Y-115750000D01*
X130150000Y-116450000D02*
X131825000Y-118125000D01*
X125498685Y-116900000D02*
X118200000Y-116900000D01*
X131825000Y-118125000D02*
X136989950Y-118125000D01*
X125523686Y-116874999D02*
X125498685Y-116900000D01*
X136989950Y-118125000D02*
X137539950Y-117575000D01*
%TO.N,/USB_BRIDGE/MMCD1*%
D24*
X135200000Y-87506500D02*
X121418500Y-87506500D01*
X121418500Y-87506500D02*
X120425000Y-88500000D01*
%TO.N,/VBUS_MCU*%
D21*
X105525000Y-100250000D02*
X103600000Y-100250000D01*
X107562500Y-98212500D02*
X105525000Y-100250000D01*
%TO.N,Net-(U201-ST)*%
X108690000Y-97890000D02*
X110450000Y-99650000D01*
X110450000Y-99650000D02*
X110650000Y-99650000D01*
%TO.N,/USB_BRIDGE/MMCD2*%
D24*
X134113578Y-88550000D02*
X134113578Y-89628000D01*
X134113578Y-88410000D02*
X134113578Y-88550000D01*
X137893578Y-88802000D02*
X137893578Y-89628000D01*
X136633578Y-88385000D02*
X136633578Y-88550000D01*
X133483578Y-89628000D02*
X133483578Y-88802000D01*
X135373578Y-88550000D02*
X135373578Y-89628000D01*
X138775578Y-88550000D02*
X138901578Y-88550000D01*
X139200000Y-88550000D02*
X139300000Y-88550000D01*
X134743578Y-89628000D02*
X134743578Y-88550000D01*
X137893578Y-88385000D02*
X137893578Y-88550000D01*
X134908578Y-88220000D02*
X135208578Y-88220000D01*
X132853578Y-88802000D02*
X132853578Y-89628000D01*
X136003578Y-89628000D02*
X136003578Y-88550000D01*
X136633578Y-88550000D02*
X136633578Y-89628000D01*
X135373578Y-88385000D02*
X135373578Y-88550000D01*
X136885578Y-89880000D02*
X137011578Y-89880000D01*
X139300000Y-88550000D02*
X141025000Y-90275000D01*
X137263578Y-89628000D02*
X137263578Y-88550000D01*
X133623578Y-88270000D02*
X133973578Y-88270000D01*
X137428578Y-88220000D02*
X137728578Y-88220000D01*
X129350000Y-88550000D02*
X132601578Y-88550000D01*
X133105578Y-89880000D02*
X133231578Y-89880000D01*
X133483578Y-88550000D02*
X133483578Y-88410000D01*
X137893578Y-88550000D02*
X137893578Y-88802000D01*
X138901578Y-88550000D02*
X139200000Y-88550000D01*
X134365578Y-89880000D02*
X134491578Y-89880000D01*
X137263578Y-88550000D02*
X137263578Y-88385000D01*
X136168578Y-88220000D02*
X136468578Y-88220000D01*
X136003578Y-88550000D02*
X136003578Y-88385000D01*
X133483578Y-88802000D02*
X133483578Y-88550000D01*
X138523578Y-89628000D02*
X138523578Y-88802000D01*
X134743578Y-88550000D02*
X134743578Y-88385000D01*
X138145578Y-89880000D02*
X138271578Y-89880000D01*
X135625578Y-89880000D02*
X135751578Y-89880000D01*
X137011578Y-89880000D02*
G75*
G03*
X137263600Y-89628000I22J252000D01*
G01*
X137728578Y-88220000D02*
G75*
G02*
X137893600Y-88385000I22J-165000D01*
G01*
X132601578Y-88550000D02*
G75*
G02*
X132853600Y-88802000I22J-252000D01*
G01*
X138271578Y-89880000D02*
G75*
G03*
X138523600Y-89628000I22J252000D01*
G01*
X132853578Y-89628000D02*
G75*
G03*
X133105578Y-89880022I252022J0D01*
G01*
X135751578Y-89880000D02*
G75*
G03*
X136003600Y-89628000I22J252000D01*
G01*
X133483578Y-88410000D02*
G75*
G02*
X133623578Y-88269978I140022J0D01*
G01*
X134113578Y-89628000D02*
G75*
G03*
X134365578Y-89880022I252022J0D01*
G01*
X137263578Y-88385000D02*
G75*
G02*
X137428578Y-88219978I165022J0D01*
G01*
X134491578Y-89880000D02*
G75*
G03*
X134743600Y-89628000I22J252000D01*
G01*
X136003578Y-88385000D02*
G75*
G02*
X136168578Y-88219978I165022J0D01*
G01*
X135373578Y-89628000D02*
G75*
G03*
X135625578Y-89880022I252022J0D01*
G01*
X136468578Y-88220000D02*
G75*
G02*
X136633600Y-88385000I22J-165000D01*
G01*
X138523578Y-88802000D02*
G75*
G02*
X138775578Y-88549978I252022J0D01*
G01*
X136633578Y-89628000D02*
G75*
G03*
X136885578Y-89880022I252022J0D01*
G01*
X133973578Y-88270000D02*
G75*
G02*
X134113600Y-88410000I22J-140000D01*
G01*
X135208578Y-88220000D02*
G75*
G02*
X135373600Y-88385000I22J-165000D01*
G01*
X133231578Y-89880000D02*
G75*
G03*
X133483600Y-89628000I22J252000D01*
G01*
X137893578Y-89628000D02*
G75*
G03*
X138145578Y-89880022I252022J0D01*
G01*
X134743578Y-88385000D02*
G75*
G02*
X134908578Y-88219978I165022J0D01*
G01*
%TO.N,/VBUS_STORAGE_IN+*%
D21*
X113600000Y-84250000D02*
X113600000Y-82975000D01*
X114200000Y-87050000D02*
X114200000Y-84850000D01*
X114250000Y-82325000D02*
X114250000Y-81125000D01*
X114200000Y-84850000D02*
X113600000Y-84250000D01*
X113600000Y-82975000D02*
X114250000Y-82325000D01*
%TO.N,/USB_BRIDGE/STORAGE_USB+*%
D25*
X106175000Y-90303478D02*
X106251739Y-90226739D01*
X106175000Y-91250000D02*
X106175000Y-90303478D01*
%TO.N,/USB_BRIDGE/STORAGE_USB-*%
X106775000Y-89950000D02*
X106775000Y-90750000D01*
X106825000Y-89900000D02*
X106775000Y-89950000D01*
X106825000Y-89750000D02*
X106825000Y-89900000D01*
X106775000Y-90750000D02*
X106675000Y-90650000D01*
%TO.N,Net-(J102-SHIELD)*%
D21*
X107355000Y-94820000D02*
X103175000Y-94820000D01*
X107355000Y-86180000D02*
X103175000Y-86180000D01*
X103175000Y-86180000D02*
X103175000Y-94820000D01*
%TO.N,/USB_BRIDGE/MMCD4*%
D24*
X130847579Y-93740000D02*
X130847579Y-94210000D01*
X133847579Y-94210000D02*
X133847579Y-93500000D01*
X135647579Y-93500000D02*
X135647579Y-93600000D01*
X134447579Y-93500000D02*
X134447579Y-94210000D01*
X137687579Y-92850000D02*
X137807579Y-92850000D01*
X131447579Y-94210000D02*
X131447579Y-93740000D01*
X131447579Y-93500000D02*
X131447579Y-93090000D01*
X135047579Y-94210000D02*
X135047579Y-93500000D01*
X131087579Y-94450000D02*
X131207579Y-94450000D01*
X133247579Y-93090000D02*
X133247579Y-93500000D01*
X143606500Y-92618500D02*
X143725000Y-92500000D01*
X136247579Y-93500000D02*
X136247579Y-93260000D01*
X134687579Y-94450000D02*
X134807579Y-94450000D01*
X143725000Y-92500000D02*
X143750000Y-92500000D01*
X135047579Y-93500000D02*
X135047579Y-93090000D01*
X137087579Y-93500000D02*
X137207579Y-93500000D01*
X132047579Y-93500000D02*
X132047579Y-94210000D01*
X136847579Y-93090000D02*
X136847579Y-93260000D01*
X132647579Y-93500000D02*
X132647579Y-93090000D01*
X133847579Y-93500000D02*
X133847579Y-93090000D01*
X137447579Y-93260000D02*
X137447579Y-93090000D01*
X131687579Y-92850000D02*
X131807579Y-92850000D01*
X142725000Y-93500000D02*
X143368500Y-92856500D01*
X136247579Y-93260000D02*
X136247579Y-93090000D01*
X138287579Y-93500000D02*
X138407579Y-93500000D01*
X135647579Y-93090000D02*
X135647579Y-93500000D01*
X132887579Y-92850000D02*
X133007579Y-92850000D01*
X134087579Y-92850000D02*
X134207579Y-92850000D01*
X135287579Y-92850000D02*
X135407579Y-92850000D01*
X135747579Y-93700000D02*
X136147579Y-93700000D01*
X132287579Y-94450000D02*
X132407579Y-94450000D01*
X132647579Y-94210000D02*
X132647579Y-93500000D01*
X143591977Y-92618500D02*
X143606500Y-92618500D01*
X138625000Y-93500000D02*
X142725000Y-93500000D01*
X132047579Y-93090000D02*
X132047579Y-93500000D01*
X129975000Y-93500000D02*
X130607579Y-93500000D01*
X133487579Y-94450000D02*
X133607579Y-94450000D01*
X143368500Y-92841977D02*
X143591977Y-92618500D01*
X138407579Y-93500000D02*
X138625000Y-93500000D01*
X136247579Y-93600000D02*
X136247579Y-93500000D01*
X133247579Y-93500000D02*
X133247579Y-94210000D01*
X131447579Y-93740000D02*
X131447579Y-93500000D01*
X138047579Y-93090000D02*
X138047579Y-93260000D01*
X134447579Y-93090000D02*
X134447579Y-93500000D01*
X136487579Y-92850000D02*
X136607579Y-92850000D01*
X143368500Y-92856500D02*
X143368500Y-92841977D01*
X132047579Y-94210000D02*
G75*
G03*
X132287579Y-94450021I240021J0D01*
G01*
X134447579Y-94210000D02*
G75*
G03*
X134687579Y-94450021I240021J0D01*
G01*
X132407579Y-94450000D02*
G75*
G03*
X132647600Y-94210000I21J240000D01*
G01*
X137807579Y-92850000D02*
G75*
G02*
X138047600Y-93090000I21J-240000D01*
G01*
X133247579Y-94210000D02*
G75*
G03*
X133487579Y-94450021I240021J0D01*
G01*
X133847579Y-93090000D02*
G75*
G02*
X134087579Y-92849979I240021J0D01*
G01*
X130607579Y-93500000D02*
G75*
G02*
X130847600Y-93740000I21J-240000D01*
G01*
X135407579Y-92850000D02*
G75*
G02*
X135647600Y-93090000I21J-240000D01*
G01*
X131207579Y-94450000D02*
G75*
G03*
X131447600Y-94210000I21J240000D01*
G01*
X130847579Y-94210000D02*
G75*
G03*
X131087579Y-94450021I240021J0D01*
G01*
X136247579Y-93090000D02*
G75*
G02*
X136487579Y-92849979I240021J0D01*
G01*
X137207579Y-93500000D02*
G75*
G03*
X137447600Y-93260000I21J240000D01*
G01*
X135647579Y-93600000D02*
G75*
G03*
X135747579Y-93700021I100021J0D01*
G01*
X134807579Y-94450000D02*
G75*
G03*
X135047600Y-94210000I21J240000D01*
G01*
X134207579Y-92850000D02*
G75*
G02*
X134447600Y-93090000I21J-240000D01*
G01*
X135047579Y-93090000D02*
G75*
G02*
X135287579Y-92849979I240021J0D01*
G01*
X136147579Y-93700000D02*
G75*
G03*
X136247600Y-93600000I21J100000D01*
G01*
X131807579Y-92850000D02*
G75*
G02*
X132047600Y-93090000I21J-240000D01*
G01*
X133007579Y-92850000D02*
G75*
G02*
X133247600Y-93090000I21J-240000D01*
G01*
X133607579Y-94450000D02*
G75*
G03*
X133847600Y-94210000I21J240000D01*
G01*
X137447579Y-93090000D02*
G75*
G02*
X137687579Y-92849979I240021J0D01*
G01*
X136847579Y-93260000D02*
G75*
G03*
X137087579Y-93500021I240021J0D01*
G01*
X131447579Y-93090000D02*
G75*
G02*
X131687579Y-92849979I240021J0D01*
G01*
X136607579Y-92850000D02*
G75*
G02*
X136847600Y-93090000I21J-240000D01*
G01*
X138047579Y-93260000D02*
G75*
G03*
X138287579Y-93500021I240021J0D01*
G01*
X132647579Y-93090000D02*
G75*
G02*
X132887579Y-92849979I240021J0D01*
G01*
%TO.N,/USB_BRIDGE/MMCD7*%
X142625210Y-88092835D02*
X142694506Y-88162131D01*
X141450000Y-87950000D02*
X141831837Y-88331837D01*
X142524801Y-89024801D02*
X142572786Y-89072786D01*
X140017000Y-87220000D02*
X140115000Y-87220000D01*
X120050000Y-90325000D02*
X122425000Y-87950000D01*
X142572786Y-89072786D02*
X143750000Y-90250000D01*
X142455503Y-88955504D02*
X142524801Y-89024801D01*
X142109023Y-88331838D02*
X142348024Y-88092834D01*
X139821000Y-87754000D02*
X139821000Y-87416000D01*
X122425000Y-87950000D02*
X139625000Y-87950000D01*
X140311000Y-87416000D02*
X140311000Y-87754000D01*
X140311000Y-88146000D02*
X140311000Y-88484000D01*
X140507000Y-88680000D02*
X140605000Y-88680000D01*
X143750000Y-90250000D02*
X143750000Y-91000000D01*
X140997000Y-87950000D02*
X141095000Y-87950000D01*
X140311000Y-87754000D02*
X140311000Y-88146000D01*
X141095000Y-87950000D02*
X141450000Y-87950000D01*
X140801000Y-88484000D02*
X140801000Y-88146000D01*
X142694506Y-88439317D02*
X142455502Y-88678318D01*
X139625000Y-87950000D02*
G75*
G03*
X139821000Y-87754000I0J196000D01*
G01*
X140801000Y-88146000D02*
G75*
G02*
X140997000Y-87950000I196000J0D01*
G01*
X140605000Y-88680000D02*
G75*
G03*
X140801000Y-88484000I0J196000D01*
G01*
X141831837Y-88331837D02*
G75*
G03*
X142108993Y-88331808I138563J138637D01*
G01*
X142694506Y-88162131D02*
G75*
G02*
X142694482Y-88439293I-138606J-138569D01*
G01*
X140311000Y-88484000D02*
G75*
G03*
X140507000Y-88680000I196000J0D01*
G01*
X142455502Y-88678318D02*
G75*
G03*
X142455513Y-88955493I138598J-138582D01*
G01*
X140115000Y-87220000D02*
G75*
G02*
X140311000Y-87416000I0J-196000D01*
G01*
X139821000Y-87416000D02*
G75*
G02*
X140017000Y-87220000I196000J0D01*
G01*
X142348024Y-88092834D02*
G75*
G02*
X142625193Y-88092851I138576J-138566D01*
G01*
%TO.N,/USB_BRIDGE/MMCD6*%
X134095858Y-91275000D02*
X134095858Y-91500000D01*
X133720858Y-91050000D02*
X133870858Y-91050000D01*
X135295858Y-91500000D02*
X135295858Y-91725000D01*
X132895858Y-91500000D02*
X132895858Y-91725000D01*
X131920858Y-91950000D02*
X132070858Y-91950000D01*
X120750000Y-91500000D02*
X130270858Y-91500000D01*
X136270858Y-91500000D02*
X136675000Y-91500000D01*
X132295858Y-91725000D02*
X132295858Y-91500000D01*
X131095858Y-91500000D02*
X131095858Y-91275000D01*
X133495858Y-91500000D02*
X133495858Y-91275000D01*
X136120858Y-91500000D02*
X136270858Y-91500000D01*
X120300000Y-91050000D02*
X120750000Y-91500000D01*
X134695858Y-91725000D02*
X134695858Y-91500000D01*
X136675000Y-91500000D02*
X143750000Y-91500000D01*
X133495858Y-91725000D02*
X133495858Y-91500000D01*
X135520858Y-91950000D02*
X135670858Y-91950000D01*
X133120858Y-91950000D02*
X133270858Y-91950000D01*
X132295858Y-91500000D02*
X132295858Y-91275000D01*
X131320858Y-91050000D02*
X131470858Y-91050000D01*
X131695858Y-91275000D02*
X131695858Y-91500000D01*
X134320858Y-91950000D02*
X134470858Y-91950000D01*
X130720858Y-91950000D02*
X130870858Y-91950000D01*
X131695858Y-91500000D02*
X131695858Y-91725000D01*
X134920858Y-91050000D02*
X135070858Y-91050000D01*
X132520858Y-91050000D02*
X132670858Y-91050000D01*
X131095858Y-91725000D02*
X131095858Y-91500000D01*
X132895858Y-91275000D02*
X132895858Y-91500000D01*
X134095858Y-91500000D02*
X134095858Y-91725000D01*
X120300000Y-91025000D02*
X120300000Y-91050000D01*
X135295858Y-91275000D02*
X135295858Y-91500000D01*
X134695858Y-91500000D02*
X134695858Y-91275000D01*
X134095858Y-91725000D02*
G75*
G03*
X134320858Y-91950042I225042J0D01*
G01*
X131695858Y-91725000D02*
G75*
G03*
X131920858Y-91950042I225042J0D01*
G01*
X132670858Y-91050000D02*
G75*
G02*
X132895900Y-91275000I42J-225000D01*
G01*
X134470858Y-91950000D02*
G75*
G03*
X134695900Y-91725000I42J225000D01*
G01*
X134695858Y-91275000D02*
G75*
G02*
X134920858Y-91049958I225042J0D01*
G01*
X135295858Y-91725000D02*
G75*
G03*
X135520858Y-91950042I225042J0D01*
G01*
X132070858Y-91950000D02*
G75*
G03*
X132295900Y-91725000I42J225000D01*
G01*
X135070858Y-91050000D02*
G75*
G02*
X135295900Y-91275000I42J-225000D01*
G01*
X133270858Y-91950000D02*
G75*
G03*
X133495900Y-91725000I42J225000D01*
G01*
X131095858Y-91275000D02*
G75*
G02*
X131320858Y-91049958I225042J0D01*
G01*
X130270858Y-91500000D02*
G75*
G02*
X130495900Y-91725000I42J-225000D01*
G01*
X130870858Y-91950000D02*
G75*
G03*
X131095900Y-91725000I42J225000D01*
G01*
X132895858Y-91725000D02*
G75*
G03*
X133120858Y-91950042I225042J0D01*
G01*
X130495858Y-91725000D02*
G75*
G03*
X130720858Y-91950042I225042J0D01*
G01*
X135670858Y-91950000D02*
G75*
G03*
X135895900Y-91725000I42J225000D01*
G01*
X132295858Y-91275000D02*
G75*
G02*
X132520858Y-91049958I225042J0D01*
G01*
X133495858Y-91275000D02*
G75*
G02*
X133720858Y-91049958I225042J0D01*
G01*
X135895858Y-91725000D02*
G75*
G02*
X136120858Y-91499958I225042J0D01*
G01*
X131470858Y-91050000D02*
G75*
G02*
X131695900Y-91275000I42J-225000D01*
G01*
X133870858Y-91050000D02*
G75*
G02*
X134095900Y-91275000I42J-225000D01*
G01*
%TO.N,Net-(J101-SHIELD)*%
D21*
X103175000Y-112820000D02*
X107355000Y-112820000D01*
X103175000Y-104180000D02*
X103175000Y-112820000D01*
X107355000Y-104180000D02*
X103175000Y-104180000D01*
%TO.N,/RP2040/RP_USB_D+*%
D25*
X106276739Y-108151739D02*
X106276739Y-109200000D01*
%TO.N,/RP2040/RP_USB_D-*%
X106274507Y-107411740D02*
X106850000Y-107987233D01*
X106850000Y-107987233D02*
X106850000Y-108625000D01*
X106850000Y-108625000D02*
X106800000Y-108675000D01*
%TO.N,/USB_BRIDGE/MMCD0*%
D24*
X119825000Y-87975000D02*
X120825000Y-86975000D01*
X130479000Y-86365000D02*
X130555000Y-86365000D01*
X131087000Y-86823000D02*
X131087000Y-86517000D01*
X131467000Y-86517000D02*
X131467000Y-86823000D01*
X130837000Y-87235000D02*
X130957000Y-87235000D01*
X130327000Y-86823000D02*
X130327000Y-86517000D01*
X131619000Y-86975000D02*
X131695000Y-86975000D01*
X120825000Y-86975000D02*
X130175000Y-86975000D01*
X130707000Y-86975000D02*
X130707000Y-87105000D01*
X131239000Y-86365000D02*
X131315000Y-86365000D01*
X130707000Y-86517000D02*
X130707000Y-86823000D01*
X130707000Y-86823000D02*
X130707000Y-86975000D01*
X119825000Y-88575000D02*
X119825000Y-87975000D01*
X131087000Y-87105000D02*
X131087000Y-86975000D01*
X134075000Y-86975000D02*
X131912546Y-86975000D01*
X131087000Y-86975000D02*
X131087000Y-86823000D01*
X134135000Y-87035000D02*
X134075000Y-86975000D01*
X131695000Y-86975000D02*
X131912546Y-86975000D01*
X130555000Y-86365000D02*
G75*
G02*
X130707000Y-86517000I0J-152000D01*
G01*
X131315000Y-86365000D02*
G75*
G02*
X131467000Y-86517000I0J-152000D01*
G01*
X131087000Y-86517000D02*
G75*
G02*
X131239000Y-86365000I152000J0D01*
G01*
X130957000Y-87235000D02*
G75*
G03*
X131087000Y-87105000I0J130000D01*
G01*
X130175000Y-86975000D02*
G75*
G03*
X130327000Y-86823000I0J152000D01*
G01*
X131467000Y-86823000D02*
G75*
G03*
X131619000Y-86975000I152000J0D01*
G01*
X130707000Y-87105000D02*
G75*
G03*
X130837000Y-87235000I130000J0D01*
G01*
X130327000Y-86517000D02*
G75*
G02*
X130479000Y-86365000I152000J0D01*
G01*
%TO.N,/USB_BRIDGE/MMCD3*%
X142800000Y-93950000D02*
X143750000Y-93000000D01*
X136710000Y-93950000D02*
X142800000Y-93950000D01*
%TO.N,/USB_BRIDGE/MMCD5*%
X122499999Y-93100000D02*
X122874999Y-93475000D01*
X128238000Y-93475000D02*
X128360000Y-93475000D01*
X122874999Y-93475000D02*
X124700000Y-93475000D01*
X126408000Y-94405000D02*
X126530000Y-94405000D01*
X126774000Y-93475000D02*
X126774000Y-92789000D01*
X127018000Y-92545000D02*
X127140000Y-92545000D01*
X129075000Y-93475000D02*
X129975000Y-92575000D01*
X142875000Y-92000000D02*
X143750000Y-92000000D01*
X128360000Y-93475000D02*
X128700000Y-93475000D01*
X124944000Y-93719000D02*
X124944000Y-94161000D01*
X142300000Y-92575000D02*
X142875000Y-92000000D01*
X129975000Y-92575000D02*
X142300000Y-92575000D01*
X128700000Y-93475000D02*
X129075000Y-93475000D01*
X125554000Y-94161000D02*
X125554000Y-93719000D01*
X127384000Y-93719000D02*
X127384000Y-94161000D01*
X126164000Y-93475000D02*
X126164000Y-94161000D01*
X127628000Y-94405000D02*
X127750000Y-94405000D01*
X125188000Y-94405000D02*
X125310000Y-94405000D01*
X127384000Y-93475000D02*
X127384000Y-93719000D01*
X126774000Y-94161000D02*
X126774000Y-93475000D01*
X125798000Y-92545000D02*
X125920000Y-92545000D01*
X125554000Y-93719000D02*
X125554000Y-93475000D01*
X126164000Y-92789000D02*
X126164000Y-93475000D01*
X125554000Y-93475000D02*
X125554000Y-92789000D01*
X127994000Y-94161000D02*
X127994000Y-93719000D01*
X127384000Y-92789000D02*
X127384000Y-93475000D01*
X126774000Y-92789000D02*
G75*
G02*
X127018000Y-92545000I244000J0D01*
G01*
X124944000Y-94161000D02*
G75*
G03*
X125188000Y-94405000I244000J0D01*
G01*
X126164000Y-94161000D02*
G75*
G03*
X126408000Y-94405000I244000J0D01*
G01*
X126530000Y-94405000D02*
G75*
G03*
X126774000Y-94161000I0J244000D01*
G01*
X125554000Y-92789000D02*
G75*
G02*
X125798000Y-92545000I244000J0D01*
G01*
X127994000Y-93719000D02*
G75*
G02*
X128238000Y-93475000I244000J0D01*
G01*
X127140000Y-92545000D02*
G75*
G02*
X127384000Y-92789000I0J-244000D01*
G01*
X127384000Y-94161000D02*
G75*
G03*
X127628000Y-94405000I244000J0D01*
G01*
X125310000Y-94405000D02*
G75*
G03*
X125554000Y-94161000I0J244000D01*
G01*
X124700000Y-93475000D02*
G75*
G02*
X124944000Y-93719000I0J-244000D01*
G01*
X125920000Y-92545000D02*
G75*
G02*
X126164000Y-92789000I0J-244000D01*
G01*
X127750000Y-94405000D02*
G75*
G03*
X127994000Y-94161000I0J244000D01*
G01*
%TO.N,Net-(U601-RST_N)*%
D21*
X145050000Y-94525000D02*
X147750000Y-91825000D01*
X147750000Y-91825000D02*
X147750000Y-91500000D01*
%TO.N,/eMMC_STORAGE/MMC_CMD_L*%
D24*
X148581622Y-91593500D02*
X148656500Y-91593500D01*
X148100000Y-92350000D02*
X148100000Y-92075122D01*
X122900000Y-95625000D02*
X144825000Y-95625000D01*
X144825000Y-95625000D02*
X148100000Y-92350000D01*
X148656500Y-91593500D02*
X148750000Y-91500000D01*
X148100000Y-92075122D02*
X148581622Y-91593500D01*
%TO.N,/eMMC_STORAGE/MMC_CLK_L*%
X121825000Y-95150000D02*
X143400000Y-95150000D01*
X143400000Y-95150000D02*
X146750000Y-91800000D01*
X147000000Y-91000000D02*
X148750000Y-91000000D01*
X146750000Y-91800000D02*
X146750000Y-91250000D01*
X146750000Y-91250000D02*
X147000000Y-91000000D01*
%TD*%
M02*
